<svg width="60" height="60" viewBox="0 0 60 60" fill="none" xmlns="http://www.w3.org/2000/svg">
<rect x="1" y="1" width="58" height="58" rx="29" stroke="url(#paint0_linear_2574_2844)" stroke-width="2"/>
<path d="M18.4178 43.75H15.3304C14.2605 43.75 13.2707 44.2412 12.6827 45.0639C12.564 45.2269 12.5 45.4234 12.5 45.625C12.5 45.8267 12.564 46.0232 12.6827 46.1862C13.2707 47.0088 14.2605 47.5 15.3304 47.5H18.4178C19.4877 47.5 20.4775 47.0088 21.0655 46.1861C21.1842 46.0231 21.2482 45.8266 21.2482 45.625C21.2482 45.4233 21.1842 45.2268 21.0655 45.0638C20.4775 44.2412 19.4877 43.75 18.4178 43.75Z" fill="white"/>
<path d="M20 14.6875C19.9992 13.8887 20.2779 13.1149 20.7878 12.5H19.375C18.8779 12.5006 18.4013 12.6983 18.0498 13.0498C17.6983 13.4013 17.5006 13.8779 17.5 14.375V15.625H20.131C20.0442 15.3201 20.0001 15.0046 20 14.6875Z" fill="url(#paint1_linear_2574_2844)"/>
<path d="M23.4375 16.875C24.6456 16.875 25.625 15.8956 25.625 14.6875C25.625 13.4794 24.6456 12.5 23.4375 12.5C22.2294 12.5 21.25 13.4794 21.25 14.6875C21.25 15.8956 22.2294 16.875 23.4375 16.875Z" fill="white"/>
<path d="M13.8591 40.9203C13.7883 41.0157 13.75 41.1314 13.75 41.2502C13.75 41.3691 13.7883 41.4847 13.8591 41.5801C14.0738 41.8699 14.3543 42.1045 14.6775 42.2645C15.0006 42.4245 15.3573 42.5053 15.7179 42.5002H18.0333C18.3939 42.5053 18.7505 42.4245 19.0737 42.2645C19.3969 42.1045 19.6774 41.8699 19.8921 41.5801C19.9629 41.4847 20.0012 41.3691 20.0012 41.2502C20.0012 41.1314 19.9629 41.0157 19.8921 40.9203C19.6774 40.6305 19.3969 40.3959 19.0737 40.236C18.7505 40.076 18.3939 39.9952 18.0333 40.0002H15.7179C15.3573 39.9952 15.0006 40.076 14.6775 40.236C14.3543 40.3959 14.0738 40.6305 13.8591 40.9203Z" fill="white"/>
<path d="M16.3039 38.7502H17.4445C17.7993 38.7543 18.15 38.6732 18.467 38.5137C18.784 38.3542 19.0581 38.121 19.2662 37.8337C19.3358 37.7364 19.3733 37.6198 19.3733 37.5002C19.3733 37.3806 19.3358 37.264 19.2662 37.1667C19.0581 36.8794 18.784 36.6461 18.467 36.4866C18.15 36.3272 17.7994 36.2461 17.4445 36.2502H16.3039C15.9491 36.246 15.5984 36.3271 15.2814 36.4866C14.9644 36.646 14.6902 36.8793 14.482 37.1666C14.4124 37.2639 14.375 37.3805 14.375 37.5001C14.375 37.6197 14.4124 37.7363 14.482 37.8336C14.6902 38.121 14.9643 38.3542 15.2814 38.5137C15.5984 38.6732 15.949 38.7543 16.3039 38.7502Z" fill="white"/>
<path d="M35.3568 14.7053C35.3581 14.7091 35.3593 14.7131 35.3604 14.717L35.6282 15.625H42.4984V14.375C42.4979 13.8779 42.3001 13.4013 41.9486 13.0498C41.5971 12.6983 41.1205 12.5006 40.6234 12.5H33.8438C34.5481 13.0976 35.0913 13.8655 35.3568 14.7053Z" fill="url(#paint2_linear_2574_2844)"/>
<path d="M34.3937 23.125H33.125V24.125C33.1259 24.191 33.1525 24.2541 33.1992 24.3008C33.2459 24.3475 33.309 24.3741 33.375 24.375H37.2623L41.4811 20.625H36.2687V21.25C36.2682 21.7471 36.0705 22.2237 35.719 22.5752C35.3674 22.9267 34.8909 23.1244 34.3937 23.125Z" fill="url(#paint3_linear_2574_2844)"/>
<path d="M25.8795 20.625H18.5156L22.7344 24.375H26.003C26.0359 24.3749 26.0686 24.3683 26.099 24.3556C26.1294 24.3429 26.157 24.3243 26.1802 24.3009C26.2034 24.2775 26.2218 24.2498 26.2343 24.2193C26.2468 24.1888 26.2531 24.1561 26.253 24.1231L26.2628 21.875H26.2467V21.3552L25.8795 20.625Z" fill="url(#paint4_linear_2574_2844)"/>
<path d="M26.1588 12.5H26.0859C26.0959 12.5121 26.1053 12.5248 26.1152 12.537C26.1295 12.5244 26.1444 12.5125 26.1588 12.5Z" fill="url(#paint5_linear_2574_2844)"/>
<path d="M26.8319 19.7205L27.2467 20.5469C27.9918 20.3891 28.667 19.9976 29.1739 19.4292L28.957 19.2124C28.6631 18.9185 28.4631 18.544 28.382 18.1364C28.301 17.7288 28.3426 17.3063 28.5016 16.9224C28.6607 16.5384 28.93 16.2102 29.2755 15.9793C29.621 15.7484 30.0272 15.6251 30.4428 15.625H30.6287V12.501C30.6141 12.501 30.5995 12.5 30.585 12.5H29.5225C29.0009 12.4984 28.4844 12.6027 28.0043 12.8066C27.5243 13.0105 27.0906 13.3098 26.7296 13.6863C26.9211 14.3144 26.9283 14.9842 26.7506 15.6163C26.5728 16.2484 26.2174 16.8162 25.7266 17.2524C25.7936 17.5577 25.8981 17.8534 26.0377 18.133L26.8319 19.7205Z" fill="url(#paint6_linear_2574_2844)"/>
<path d="M29.6875 28.125C30.2053 28.125 30.625 27.7053 30.625 27.1875C30.625 26.6697 30.2053 26.25 29.6875 26.25C29.1697 26.25 28.75 26.6697 28.75 27.1875C28.75 27.7053 29.1697 28.125 29.6875 28.125Z" fill="white"/>
<path d="M29.6875 33.75C30.2053 33.75 30.625 33.3303 30.625 32.8125C30.625 32.2947 30.2053 31.875 29.6875 31.875C29.1697 31.875 28.75 32.2947 28.75 32.8125C28.75 33.3303 29.1697 33.75 29.6875 33.75Z" fill="white"/>
<path d="M44.5497 16.8741H36.3419L37.4055 18.3902C37.4571 18.4637 37.4922 18.5476 37.5085 18.636C37.5248 18.7244 37.5218 18.8152 37.4997 18.9023C37.4777 18.9895 37.4371 19.0708 37.3808 19.1409C37.3245 19.2109 37.2537 19.2679 37.1733 19.3081L37.0413 19.3741H43.125C43.2518 19.3741 43.3755 19.4127 43.4798 19.4846C43.5842 19.5566 43.6642 19.6586 43.7092 19.777C43.7542 19.8955 43.7622 20.0248 43.732 20.1479C43.7018 20.271 43.635 20.382 43.5402 20.4663L37.9152 25.4663C37.8008 25.568 37.6531 25.6241 37.5 25.6241H33.375C32.9773 25.6237 32.5961 25.4655 32.3149 25.1843C32.0336 24.9031 31.8755 24.5218 31.875 24.1241V22.4991C31.875 22.3334 31.9409 22.1744 32.0581 22.0572C32.1753 21.94 32.3343 21.8741 32.5 21.8741H34.3938C34.5595 21.874 34.7183 21.808 34.8355 21.6909C34.9527 21.5737 35.0186 21.4148 35.0188 21.2491V19.3741C35.0188 19.2581 35.0511 19.1443 35.1121 19.0456C35.1732 18.9468 35.2605 18.8671 35.3643 18.8152L35.9659 18.5145L34.6634 16.658C34.6194 16.5954 34.5874 16.5252 34.5688 16.4509L34.5594 16.4135L34.1649 15.0757C33.8438 14.0684 32.9375 13.1746 31.875 12.7539V16.2491C31.875 16.4149 31.8092 16.5739 31.692 16.6911C31.5747 16.8083 31.4158 16.8741 31.25 16.8741H30.4391C30.2708 16.8743 30.1063 16.9243 29.9664 17.0179C29.8265 17.1114 29.7175 17.2443 29.6531 17.3998C29.5887 17.5553 29.5718 17.7263 29.6046 17.8914C29.6373 18.0565 29.7182 18.2082 29.8371 18.3273L30.442 18.9321C30.5441 19.0343 30.6078 19.1687 30.622 19.3125C30.6363 19.4563 30.6002 19.6006 30.5201 19.7208C29.8237 20.7677 28.746 21.5014 27.5167 21.7656L27.5063 24.1328C27.5016 24.5284 27.3417 24.9063 27.0612 25.1852C26.7807 25.4641 26.4018 25.6217 26.0063 25.6241H22.5C22.3469 25.6241 22.1992 25.568 22.0848 25.4663L16.4598 20.4663C16.3651 20.382 16.2982 20.271 16.268 20.1479C16.2378 20.0248 16.2458 19.8955 16.2908 19.777C16.3359 19.6586 16.4159 19.5566 16.5202 19.4846C16.6245 19.4127 16.7483 19.3741 16.875 19.3741H25.2578L24.9163 18.6912C24.7922 18.4428 24.6888 18.1845 24.6073 17.9191C23.9406 18.1604 23.2156 18.1896 22.5318 18.0025C21.8479 17.8154 21.2387 17.4213 20.7878 16.8741H15.4503C14.8736 16.8741 14.3095 17.0432 13.8278 17.3603C13.3461 17.6775 12.968 18.1289 12.7401 18.6587C12.5122 19.1885 12.4446 19.7735 12.5456 20.3413C12.6467 20.9091 12.9119 21.4348 13.3085 21.8535L23.5788 32.6945C23.6678 32.7884 23.7254 32.9077 23.7437 33.0359L24.852 40.7937C24.96 41.5522 24.8673 42.3258 24.5831 43.0373L22.7981 47.4991H37.2019L35.417 43.037C35.1327 42.3255 35.04 41.5519 35.1481 40.7934L36.2563 33.0355C36.2746 32.9074 36.3323 32.7881 36.4213 32.6941L37.7181 31.3252L46.6915 21.8535C47.0881 21.4348 47.3534 20.9091 47.4544 20.3413C47.5554 19.7735 47.4878 19.1885 47.2599 18.6587C47.0321 18.1289 46.6539 17.6775 46.1722 17.3603C45.6905 17.0432 45.1264 16.8741 44.5497 16.8741ZM29.6875 46.2491C29.2549 46.2491 28.8319 46.1208 28.4722 45.8805C28.1125 45.6401 27.8321 45.2985 27.6665 44.8988C27.501 44.499 27.4576 44.0592 27.542 43.6349C27.6264 43.2105 27.8348 42.8208 28.1407 42.5148C28.4466 42.2089 28.8364 42.0006 29.2608 41.9162C29.6851 41.8318 30.1249 41.8751 30.5246 42.0407C30.9243 42.2062 31.266 42.4866 31.5064 42.8463C31.7467 43.2061 31.875 43.629 31.875 44.0616C31.8744 44.6416 31.6437 45.1976 31.2336 45.6077C30.8235 46.0178 30.2675 46.2485 29.6875 46.2491ZM29.6875 40.6241C29.2549 40.6241 28.8319 40.4958 28.4722 40.2555C28.1125 40.0151 27.8321 39.6735 27.6665 39.2738C27.501 38.874 27.4576 38.4342 27.542 38.0099C27.6264 37.5855 27.8348 37.1958 28.1407 36.8898C28.4466 36.5839 28.8364 36.3756 29.2608 36.2912C29.6851 36.2068 30.1249 36.2501 30.5246 36.4157C30.9243 36.5812 31.266 36.8616 31.5064 37.2213C31.7467 37.5811 31.875 38.004 31.875 38.4366C31.8744 39.0166 31.6437 39.5726 31.2336 39.9827C30.8235 40.3928 30.2675 40.6235 29.6875 40.6241ZM29.6875 34.9991C29.2549 34.9991 28.8319 34.8708 28.4722 34.6305C28.1125 34.3901 27.8321 34.0485 27.6665 33.6488C27.501 33.249 27.4576 32.8092 27.542 32.3849C27.6264 31.9605 27.8348 31.5708 28.1407 31.2648C28.4466 30.9589 28.8364 30.7506 29.2608 30.6662C29.6851 30.5818 30.1249 30.6251 30.5246 30.7907C30.9243 30.9562 31.266 31.2366 31.5064 31.5963C31.7467 31.9561 31.875 32.379 31.875 32.8116C31.8744 33.3916 31.6437 33.9476 31.2336 34.3577C30.8235 34.7678 30.2675 34.9985 29.6875 34.9991ZM29.6875 29.3741C29.2549 29.3741 28.8319 29.2458 28.4722 29.0055C28.1125 28.7651 27.8321 28.4235 27.6665 28.0238C27.501 27.624 27.4576 27.1842 27.542 26.7599C27.6264 26.3355 27.8348 25.9458 28.1407 25.6398C28.4466 25.3339 28.8364 25.1256 29.2608 25.0412C29.6851 24.9568 30.1249 25.0001 30.5246 25.1657C30.9243 25.3312 31.266 25.6116 31.5064 25.9713C31.7467 26.3311 31.875 26.754 31.875 27.1866C31.8744 27.7666 31.6437 28.3226 31.2336 28.7327C30.8235 29.1428 30.2675 29.3735 29.6875 29.3741Z" fill="url(#paint7_linear_2574_2844)"/>
<path d="M29.6875 39.375C30.2053 39.375 30.625 38.9553 30.625 38.4375C30.625 37.9197 30.2053 37.5 29.6875 37.5C29.1697 37.5 28.75 37.9197 28.75 38.4375C28.75 38.9553 29.1697 39.375 29.6875 39.375Z" fill="white"/>
<path d="M29.6875 45C30.2053 45 30.625 44.5803 30.625 44.0625C30.625 43.5447 30.2053 43.125 29.6875 43.125C29.1697 43.125 28.75 43.5447 28.75 44.0625C28.75 44.5803 29.1697 45 29.6875 45Z" fill="white"/>
<defs>
<linearGradient id="paint0_linear_2574_2844" x1="30" y1="0" x2="30" y2="60" gradientUnits="userSpaceOnUse">
<stop stop-color="#6E4B12"/>
<stop offset="0.35" stop-color="#B8860B"/>
<stop offset="0.55" stop-color="#FFD700"/>
<stop offset="0.75" stop-color="#E6C35C"/>
<stop offset="1" stop-color="#8A6A1E"/>
</linearGradient>
<linearGradient id="paint1_linear_2574_2844" x1="19.1439" y1="12.5" x2="19.1439" y2="15.625" gradientUnits="userSpaceOnUse">
<stop stop-color="#6E4B12"/>
<stop offset="0.35" stop-color="#B8860B"/>
<stop offset="0.55" stop-color="#FFD700"/>
<stop offset="0.75" stop-color="#E6C35C"/>
<stop offset="1" stop-color="#8A6A1E"/>
</linearGradient>
<linearGradient id="paint2_linear_2574_2844" x1="38.1711" y1="12.5" x2="38.1711" y2="15.625" gradientUnits="userSpaceOnUse">
<stop stop-color="#6E4B12"/>
<stop offset="0.35" stop-color="#B8860B"/>
<stop offset="0.55" stop-color="#FFD700"/>
<stop offset="0.75" stop-color="#E6C35C"/>
<stop offset="1" stop-color="#8A6A1E"/>
</linearGradient>
<linearGradient id="paint3_linear_2574_2844" x1="37.303" y1="20.625" x2="37.303" y2="24.375" gradientUnits="userSpaceOnUse">
<stop stop-color="#6E4B12"/>
<stop offset="0.35" stop-color="#B8860B"/>
<stop offset="0.55" stop-color="#FFD700"/>
<stop offset="0.75" stop-color="#E6C35C"/>
<stop offset="1" stop-color="#8A6A1E"/>
</linearGradient>
<linearGradient id="paint4_linear_2574_2844" x1="22.3892" y1="20.625" x2="22.3892" y2="24.375" gradientUnits="userSpaceOnUse">
<stop stop-color="#6E4B12"/>
<stop offset="0.35" stop-color="#B8860B"/>
<stop offset="0.55" stop-color="#FFD700"/>
<stop offset="0.75" stop-color="#E6C35C"/>
<stop offset="1" stop-color="#8A6A1E"/>
</linearGradient>
<linearGradient id="paint5_linear_2574_2844" x1="26.1223" y1="12.5" x2="26.1223" y2="12.537" gradientUnits="userSpaceOnUse">
<stop stop-color="#6E4B12"/>
<stop offset="0.35" stop-color="#B8860B"/>
<stop offset="0.55" stop-color="#FFD700"/>
<stop offset="0.75" stop-color="#E6C35C"/>
<stop offset="1" stop-color="#8A6A1E"/>
</linearGradient>
<linearGradient id="paint6_linear_2574_2844" x1="28.1777" y1="12.5" x2="28.1777" y2="20.5469" gradientUnits="userSpaceOnUse">
<stop stop-color="#6E4B12"/>
<stop offset="0.35" stop-color="#B8860B"/>
<stop offset="0.55" stop-color="#FFD700"/>
<stop offset="0.75" stop-color="#E6C35C"/>
<stop offset="1" stop-color="#8A6A1E"/>
</linearGradient>
<linearGradient id="paint7_linear_2574_2844" x1="30" y1="12.7539" x2="30" y2="47.4991" gradientUnits="userSpaceOnUse">
<stop stop-color="#6E4B12"/>
<stop offset="0.35" stop-color="#B8860B"/>
<stop offset="0.55" stop-color="#FFD700"/>
<stop offset="0.75" stop-color="#E6C35C"/>
<stop offset="1" stop-color="#8A6A1E"/>
</linearGradient>
</defs>
</svg>
