<svg width="60" height="60" viewBox="0 0 60 60" fill="none" xmlns="http://www.w3.org/2000/svg">
<rect x="1" y="1" width="58" height="58" rx="29" stroke="url(#paint0_linear_2574_2862)" stroke-width="2"/>
<path d="M25.8799 27.7188H30.3333C30.9444 27.7188 31.4398 27.2234 31.4398 26.6124C31.4398 26.0012 30.9444 25.5059 30.3333 25.5059H25.8799C25.2688 25.5059 24.7734 26.0012 24.7734 26.6124C24.7734 27.2234 25.2688 27.7188 25.8799 27.7188Z" fill="white"/>
<path d="M30.8024 23.9129C30.8024 22.639 29.9167 21.5779 28.7294 21.2949V20.9453C28.7294 20.6002 28.4499 20.3203 28.1044 20.3203C27.759 20.3203 27.4794 20.6002 27.4794 20.9453V21.2949C26.292 21.5778 25.4062 22.6389 25.4062 23.9129V24.9092H30.8024V23.9129Z" fill="url(#paint1_linear_2574_2862)"/>
<path d="M14.0625 34.4512V37.0762H18.2125L19.7813 34.4512H14.0625Z" fill="url(#paint2_linear_2574_2862)"/>
<path d="M26.0578 34.4512L24.2891 37.0762H45.9391V34.4512H26.0578Z" fill="url(#paint3_linear_2574_2862)"/>
<path d="M24.3469 33.825H42.9594C43.4156 33.825 43.8219 33.6438 44.1219 33.3437C44.4156 33.05 44.6031 32.6375 44.6031 32.1813C44.6031 31.275 43.8656 30.5375 42.9594 30.5375H38.1969C37.4031 30.5375 36.6219 30.3312 35.9281 29.9375L34.1844 28.9438C33.4906 28.55 32.7094 28.3438 31.9156 28.3438H24.9093C23.0906 28.3438 21.6156 29.8187 21.6156 31.6375V33.825L19.2594 37.7625C19.1406 37.9688 19.0781 38.1875 19.0781 38.4063C19.0781 38.9375 19.4156 39.45 19.9719 39.625C20.5094 39.7875 21.0844 39.5813 21.4031 39.1187L24.3469 34.75V33.825Z" fill="url(#paint4_linear_2574_2862)"/>
<path d="M18.2475 33.829C19.7045 33.829 20.8856 32.6479 20.8856 31.1909C20.8856 29.7339 19.7045 28.5527 18.2475 28.5527C16.7905 28.5527 15.6094 29.7339 15.6094 31.1909C15.6094 32.6479 16.7905 33.829 18.2475 33.829Z" fill="url(#paint5_linear_2574_2862)"/>
<defs>
<linearGradient id="paint0_linear_2574_2862" x1="30" y1="0" x2="30" y2="60" gradientUnits="userSpaceOnUse">
<stop stop-color="#6E4B12"/>
<stop offset="0.35" stop-color="#B8860B"/>
<stop offset="0.55" stop-color="#FFD700"/>
<stop offset="0.75" stop-color="#E6C35C"/>
<stop offset="1" stop-color="#8A6A1E"/>
</linearGradient>
<linearGradient id="paint1_linear_2574_2862" x1="28.1043" y1="20.3203" x2="28.1043" y2="24.9092" gradientUnits="userSpaceOnUse">
<stop stop-color="#6E4B12"/>
<stop offset="0.35" stop-color="#B8860B"/>
<stop offset="0.55" stop-color="#FFD700"/>
<stop offset="0.75" stop-color="#E6C35C"/>
<stop offset="1" stop-color="#8A6A1E"/>
</linearGradient>
<linearGradient id="paint2_linear_2574_2862" x1="16.9219" y1="34.4512" x2="16.9219" y2="37.0762" gradientUnits="userSpaceOnUse">
<stop stop-color="#6E4B12"/>
<stop offset="0.35" stop-color="#B8860B"/>
<stop offset="0.55" stop-color="#FFD700"/>
<stop offset="0.75" stop-color="#E6C35C"/>
<stop offset="1" stop-color="#8A6A1E"/>
</linearGradient>
<linearGradient id="paint3_linear_2574_2862" x1="35.1141" y1="34.4512" x2="35.1141" y2="37.0762" gradientUnits="userSpaceOnUse">
<stop stop-color="#6E4B12"/>
<stop offset="0.35" stop-color="#B8860B"/>
<stop offset="0.55" stop-color="#FFD700"/>
<stop offset="0.75" stop-color="#E6C35C"/>
<stop offset="1" stop-color="#8A6A1E"/>
</linearGradient>
<linearGradient id="paint4_linear_2574_2862" x1="31.8406" y1="28.3438" x2="31.8406" y2="39.68" gradientUnits="userSpaceOnUse">
<stop stop-color="#6E4B12"/>
<stop offset="0.35" stop-color="#B8860B"/>
<stop offset="0.55" stop-color="#FFD700"/>
<stop offset="0.75" stop-color="#E6C35C"/>
<stop offset="1" stop-color="#8A6A1E"/>
</linearGradient>
<linearGradient id="paint5_linear_2574_2862" x1="18.2475" y1="28.5527" x2="18.2475" y2="33.829" gradientUnits="userSpaceOnUse">
<stop stop-color="#6E4B12"/>
<stop offset="0.35" stop-color="#B8860B"/>
<stop offset="0.55" stop-color="#FFD700"/>
<stop offset="0.75" stop-color="#E6C35C"/>
<stop offset="1" stop-color="#8A6A1E"/>
</linearGradient>
</defs>
</svg>
