<svg width="60" height="60" viewBox="0 0 60 60" fill="none" xmlns="http://www.w3.org/2000/svg">
<rect x="1" y="1" width="58" height="58" rx="29" stroke="url(#paint0_linear_2574_2799)" stroke-width="2"/>
<g clip-path="url(#clip0_2574_2799)">
<path fill-rule="evenodd" clip-rule="evenodd" d="M19.9126 49.2263C16.6789 49.2263 13.1171 45.9457 12.9765 40.6733L12.5078 26.3558C12.5078 26.098 12.7421 20.8959 20.7093 18.8807C20.8265 18.8573 24.5758 18.0605 26.8722 20.4741C28.0907 21.7395 28.6531 23.6844 28.5359 26.2152C28.5359 26.3089 28.4656 28.6054 26.4035 30.9252C24.5758 32.9404 25.0444 38.5644 25.0444 38.6347C25.6537 43.8133 24.4586 46.4144 23.3338 47.6563C22.4199 48.6874 21.2483 49.2263 19.9126 49.2263Z" fill="url(#paint1_linear_2574_2799)"/>
<path fill-rule="evenodd" clip-rule="evenodd" d="M12.9766 40.6971V40.6736L12.9531 39.6895C13.7733 39.9706 14.6872 40.2753 14.9684 40.369C16.2806 40.7674 17.8037 41.072 19.4206 41.072C20.5923 41.072 21.8342 40.9314 23.0761 40.533C23.3105 40.4627 24.2244 40.1112 25.1617 39.7598C25.1851 40.0878 25.2085 40.4159 25.2085 40.7439C24.3884 41.0486 23.662 41.3298 23.4511 41.4001C22.092 41.8453 20.7329 42.0093 19.444 42.0093C17.7569 42.0093 16.14 41.7047 14.7575 41.2829C14.4997 41.2126 13.7264 40.9548 12.9766 40.6971Z" fill="white"/>
<path fill-rule="evenodd" clip-rule="evenodd" d="M28.3266 27.4803C28.0688 28.3707 27.5533 29.6361 26.4051 30.9249C25.3037 32.1434 25.0225 34.6742 24.9991 36.502C24.7648 36.4551 24.6008 36.4317 24.5539 36.4317C24.507 36.4317 24.4836 36.4317 24.4602 36.4317C22.1403 35.963 20.4766 33.9243 20.4766 31.5576C20.4766 28.816 22.7027 26.5898 25.4209 26.5898C26.3348 26.5898 27.2252 26.8476 27.9985 27.3163L28.3266 27.4803Z" fill="white"/>
<path fill-rule="evenodd" clip-rule="evenodd" d="M26.1479 18.0376C24.6248 18.0376 23.4062 16.3973 23.4062 14.4055C23.4062 12.3903 24.6248 10.7734 26.1479 10.7734C27.6476 10.7734 28.8661 12.3903 28.8661 14.4055C28.8661 16.3973 27.6476 18.0376 26.1479 18.0376Z" fill="url(#paint2_linear_2574_2799)"/>
<path fill-rule="evenodd" clip-rule="evenodd" d="M20.7361 17.4989C19.6817 17.4989 18.8146 16.4679 18.674 15.1088C18.6272 14.4527 18.7443 13.82 19.049 13.3044C19.377 12.7655 19.8691 12.414 20.4081 12.3671C21.5094 12.2734 22.4702 13.3279 22.6108 14.7573C22.6811 15.4134 22.5405 16.0461 22.2358 16.5616C21.9312 17.1006 21.4157 17.4521 20.8767 17.4989C20.8299 17.4989 20.783 17.4989 20.7361 17.4989Z" fill="url(#paint3_linear_2574_2799)"/>
<path fill-rule="evenodd" clip-rule="evenodd" d="M16.843 18.4836C16.14 18.4836 15.437 17.9681 15.0387 17.1713C14.8278 16.7027 14.734 16.1872 14.8043 15.7185C14.8981 15.203 15.2027 14.7812 15.601 14.5937C15.7885 14.5 15.976 14.4531 16.1869 14.4531C16.8899 14.4531 17.5928 14.9686 17.9912 15.7654C18.2021 16.234 18.2958 16.773 18.2021 17.2416C18.1318 17.7572 17.8272 18.1555 17.4288 18.3664C17.2414 18.4367 17.0539 18.4836 16.843 18.4836Z" fill="url(#paint4_linear_2574_2799)"/>
<path fill-rule="evenodd" clip-rule="evenodd" d="M13.9151 20.6145C13.3527 20.6145 12.7434 20.263 12.3216 19.7006C11.6889 18.8102 11.7358 17.7323 12.4154 17.2402C12.6497 17.0996 12.9075 17.0059 13.1887 17.0059C13.751 17.0059 14.3603 17.3574 14.7821 17.9197C15.0633 18.3181 15.2273 18.7633 15.2273 19.2086C15.2273 19.7006 15.0399 20.1224 14.6884 20.3568C14.4775 20.5208 14.1963 20.6145 13.9151 20.6145Z" fill="url(#paint5_linear_2574_2799)"/>
<path fill-rule="evenodd" clip-rule="evenodd" d="M12.0412 23.2864C11.5022 23.2864 10.9633 23.0052 10.5415 22.5366C10.2368 22.1851 10.0494 21.7633 10.0025 21.3415C9.97907 20.8729 10.1197 20.4276 10.4477 20.1699C10.6586 19.959 10.9633 19.8652 11.2679 19.8652C11.8068 19.8652 12.3692 20.1464 12.7676 20.6151C13.0722 20.99 13.2597 21.4118 13.3065 21.8336C13.3534 22.3023 13.1894 22.7241 12.8848 23.0052C12.6504 23.1927 12.3692 23.2864 12.0412 23.2864Z" fill="url(#paint6_linear_2574_2799)"/>
<path fill-rule="evenodd" clip-rule="evenodd" d="M18.2497 39.2912C16.914 39.2912 15.7658 37.2291 15.2503 35.3076C14.641 33.058 14.7582 30.5976 16.1173 30.2461C16.2344 30.1992 16.3282 30.1992 16.4219 30.1992C17.7576 30.1992 18.9058 32.2613 19.4213 34.1828C19.7259 35.331 19.8431 36.4558 19.7259 37.3697C19.5854 38.4242 19.187 39.0803 18.5543 39.2678C18.4371 39.2912 18.3434 39.2912 18.2497 39.2912Z" fill="white"/>
<path fill-rule="evenodd" clip-rule="evenodd" d="M17.8042 26.8722C16.5623 26.8722 15.5547 25.8645 15.5547 24.6226C15.5547 23.3807 16.5623 22.3496 17.8042 22.3496C19.0696 22.3496 20.0772 23.3807 20.0772 24.6226C20.0772 25.8645 19.0696 26.8722 17.8042 26.8722Z" fill="white"/>
<path fill-rule="evenodd" clip-rule="evenodd" d="M40.0682 49.2263C43.3253 49.2263 46.8871 45.9457 47.0043 40.6733L47.4964 26.3558C47.473 26.098 47.2621 20.8959 39.2714 18.8807C39.1777 18.8573 35.405 18.0605 33.132 20.4741C31.8901 21.7395 31.3277 23.6844 31.4448 26.2152C31.4448 26.3089 31.5151 28.6054 33.6007 30.9252C35.4284 32.9404 34.9598 38.5644 34.9363 38.6347C34.3271 43.8133 35.5456 46.4144 36.6704 47.6563C37.5608 48.6874 38.7559 49.2263 40.0682 49.2263Z" fill="url(#paint7_linear_2574_2799)"/>
<path fill-rule="evenodd" clip-rule="evenodd" d="M47.0054 40.6971V40.6736L47.0523 39.6895C46.2321 39.9706 45.2948 40.2753 45.0371 40.369C43.7014 40.7674 42.1782 41.072 40.5848 41.072C39.3897 41.072 38.1712 40.9314 36.9293 40.533C36.6949 40.4627 35.7811 40.1112 34.8437 39.7598C34.8203 40.0878 34.7969 40.4159 34.7969 40.7439C35.5936 41.0486 36.3434 41.3298 36.5543 41.4001C37.9135 41.8453 39.2491 42.0093 40.5379 42.0093C42.2485 42.0093 43.842 41.7047 45.2245 41.2829C45.5057 41.2126 46.2556 40.9548 47.0054 40.6971Z" fill="white"/>
<path fill-rule="evenodd" clip-rule="evenodd" d="M31.6562 27.4803C31.914 28.3707 32.453 29.6361 33.6012 30.9249C34.7025 32.1434 34.9603 34.6742 35.0072 36.502C35.2415 36.4551 35.4055 36.4317 35.4524 36.4317H35.5461C37.8425 35.963 39.5297 33.9243 39.5297 31.5576C39.5297 28.816 37.3036 26.5898 34.5619 26.5898C33.648 26.5898 32.7576 26.8476 31.9843 27.3163C31.9374 27.3397 31.8203 27.41 31.6562 27.4803Z" fill="white"/>
<path fill-rule="evenodd" clip-rule="evenodd" d="M33.8588 18.0376C35.3585 18.0376 36.6005 16.3973 36.6005 14.4055C36.6005 12.3903 35.3585 10.7734 33.8588 10.7734C32.3591 10.7734 31.1172 12.3903 31.1172 14.4055C31.1172 16.3973 32.3591 18.0376 33.8588 18.0376Z" fill="url(#paint8_linear_2574_2799)"/>
<path fill-rule="evenodd" clip-rule="evenodd" d="M39.2675 17.4989C40.2986 17.4989 41.189 16.4679 41.3062 15.1088C41.3765 14.4527 41.2359 13.82 40.9547 13.3044C40.6267 12.7655 40.1346 12.414 39.5722 12.3671C38.4708 12.2734 37.5101 13.3279 37.3929 14.7573C37.3226 15.4134 37.4632 16.0461 37.7444 16.5616C38.0725 17.1006 38.5646 17.4521 39.127 17.4989H39.2675Z" fill="url(#paint9_linear_2574_2799)"/>
<path fill-rule="evenodd" clip-rule="evenodd" d="M43.1585 18.4836C43.8615 18.4836 44.5645 17.9681 44.9395 17.1713C45.1738 16.7027 45.2675 16.1872 45.1738 15.7185C45.08 15.203 44.7989 14.7812 44.3771 14.5937C44.213 14.5 44.0021 14.4531 43.8147 14.4531C43.0883 14.4531 42.3853 14.9686 42.0103 15.7654C41.776 16.234 41.7057 16.773 41.776 17.2416C41.8697 17.7572 42.1509 18.1555 42.5727 18.3664C42.7602 18.4367 42.9477 18.4836 43.1585 18.4836Z" fill="url(#paint10_linear_2574_2799)"/>
<path fill-rule="evenodd" clip-rule="evenodd" d="M46.0622 20.6145C46.6481 20.6145 47.2573 20.263 47.6557 19.7006C48.2884 18.8102 48.2649 17.7323 47.562 17.2402C47.3511 17.0996 47.0933 17.0059 46.8121 17.0059C46.2263 17.0059 45.617 17.3574 45.2187 17.9197C44.9375 18.3181 44.7734 18.7633 44.7734 19.2086C44.7734 19.7006 44.9609 20.1224 45.3124 20.3568C45.5233 20.5208 45.7811 20.6145 46.0622 20.6145Z" fill="url(#paint11_linear_2574_2799)"/>
<path fill-rule="evenodd" clip-rule="evenodd" d="M47.9617 23.2864C48.4772 23.2864 49.0396 23.0052 49.4379 22.5366C49.7426 22.1851 49.9535 21.7633 49.9769 21.3415C50.0238 20.8729 49.8597 20.4276 49.5551 20.1699C49.3208 19.959 49.0396 19.8652 48.7115 19.8652C48.196 19.8652 47.6336 20.1464 47.2118 20.6151C46.9072 20.99 46.7197 21.4118 46.6963 21.8336C46.6494 22.3023 46.79 22.7241 47.1181 23.0052C47.3524 23.1927 47.6336 23.2864 47.9617 23.2864Z" fill="url(#paint12_linear_2574_2799)"/>
<path fill-rule="evenodd" clip-rule="evenodd" d="M41.7553 39.2912C43.0676 39.2912 44.2392 37.2291 44.7548 35.3076C45.3406 33.058 45.2469 30.5976 43.8643 30.2461C43.7706 30.1992 43.6768 30.1992 43.5597 30.1992C42.2474 30.1992 41.0992 32.2613 40.5837 34.1828C40.2791 35.331 40.1619 36.4558 40.2791 37.3697C40.3962 38.4242 40.818 39.0803 41.4507 39.2678C41.5445 39.2912 41.6616 39.2912 41.7553 39.2912Z" fill="white"/>
<path fill-rule="evenodd" clip-rule="evenodd" d="M42.1792 26.8722C43.4212 26.8722 44.4288 25.8645 44.4288 24.6226C44.4288 23.3807 43.4212 22.3496 42.1792 22.3496C40.9373 22.3496 39.9297 23.3807 39.9297 24.6226C39.9297 25.8645 40.9373 26.8722 42.1792 26.8722Z" fill="white"/>
</g>
<defs>
<linearGradient id="paint0_linear_2574_2799" x1="30" y1="0" x2="30" y2="60" gradientUnits="userSpaceOnUse">
<stop stop-color="#6E4B12"/>
<stop offset="0.35" stop-color="#B8860B"/>
<stop offset="0.55" stop-color="#FFD700"/>
<stop offset="0.75" stop-color="#E6C35C"/>
<stop offset="1" stop-color="#8A6A1E"/>
</linearGradient>
<linearGradient id="paint1_linear_2574_2799" x1="20.5295" y1="18.7363" x2="20.5295" y2="49.2263" gradientUnits="userSpaceOnUse">
<stop stop-color="#B78E39"/>
<stop offset="0.5" stop-color="#CDA845"/>
<stop offset="0.75" stop-color="#D8B44B"/>
<stop offset="0.875" stop-color="#DEBB4E"/>
<stop offset="1" stop-color="#E3C151"/>
</linearGradient>
<linearGradient id="paint2_linear_2574_2799" x1="26.1362" y1="10.7734" x2="26.1362" y2="18.0376" gradientUnits="userSpaceOnUse">
<stop stop-color="#B78E39"/>
<stop offset="0.5" stop-color="#CDA845"/>
<stop offset="0.75" stop-color="#D8B44B"/>
<stop offset="0.875" stop-color="#DEBB4E"/>
<stop offset="1" stop-color="#E3C151"/>
</linearGradient>
<linearGradient id="paint3_linear_2574_2799" x1="20.6463" y1="12.3613" x2="20.6463" y2="17.4989" gradientUnits="userSpaceOnUse">
<stop stop-color="#B78E39"/>
<stop offset="0.5" stop-color="#CDA845"/>
<stop offset="0.75" stop-color="#D8B44B"/>
<stop offset="0.875" stop-color="#DEBB4E"/>
<stop offset="1" stop-color="#E3C151"/>
</linearGradient>
<linearGradient id="paint4_linear_2574_2799" x1="16.5098" y1="14.4531" x2="16.5098" y2="18.4836" gradientUnits="userSpaceOnUse">
<stop stop-color="#B78E39"/>
<stop offset="0.5" stop-color="#CDA845"/>
<stop offset="0.75" stop-color="#D8B44B"/>
<stop offset="0.875" stop-color="#DEBB4E"/>
<stop offset="1" stop-color="#E3C151"/>
</linearGradient>
<linearGradient id="paint5_linear_2574_2799" x1="13.5512" y1="17.0059" x2="13.5512" y2="20.6145" gradientUnits="userSpaceOnUse">
<stop stop-color="#B78E39"/>
<stop offset="0.5" stop-color="#CDA845"/>
<stop offset="0.75" stop-color="#D8B44B"/>
<stop offset="0.875" stop-color="#DEBB4E"/>
<stop offset="1" stop-color="#E3C151"/>
</linearGradient>
<linearGradient id="paint6_linear_2574_2799" x1="11.6572" y1="19.8652" x2="11.6572" y2="23.2864" gradientUnits="userSpaceOnUse">
<stop stop-color="#B78E39"/>
<stop offset="0.5" stop-color="#CDA845"/>
<stop offset="0.75" stop-color="#D8B44B"/>
<stop offset="0.875" stop-color="#DEBB4E"/>
<stop offset="1" stop-color="#E3C151"/>
</linearGradient>
<linearGradient id="paint7_linear_2574_2799" x1="39.463" y1="18.7363" x2="39.463" y2="49.2263" gradientUnits="userSpaceOnUse">
<stop stop-color="#B78E39"/>
<stop offset="0.5" stop-color="#CDA845"/>
<stop offset="0.75" stop-color="#D8B44B"/>
<stop offset="0.875" stop-color="#DEBB4E"/>
<stop offset="1" stop-color="#E3C151"/>
</linearGradient>
<linearGradient id="paint8_linear_2574_2799" x1="33.8588" y1="10.7734" x2="33.8588" y2="18.0376" gradientUnits="userSpaceOnUse">
<stop stop-color="#B78E39"/>
<stop offset="0.5" stop-color="#CDA845"/>
<stop offset="0.75" stop-color="#D8B44B"/>
<stop offset="0.875" stop-color="#DEBB4E"/>
<stop offset="1" stop-color="#E3C151"/>
</linearGradient>
<linearGradient id="paint9_linear_2574_2799" x1="39.3496" y1="12.3613" x2="39.3496" y2="17.4989" gradientUnits="userSpaceOnUse">
<stop stop-color="#B78E39"/>
<stop offset="0.5" stop-color="#CDA845"/>
<stop offset="0.75" stop-color="#D8B44B"/>
<stop offset="0.875" stop-color="#DEBB4E"/>
<stop offset="1" stop-color="#E3C151"/>
</linearGradient>
<linearGradient id="paint10_linear_2574_2799" x1="43.4798" y1="14.4531" x2="43.4798" y2="18.4836" gradientUnits="userSpaceOnUse">
<stop stop-color="#B78E39"/>
<stop offset="0.5" stop-color="#CDA845"/>
<stop offset="0.75" stop-color="#D8B44B"/>
<stop offset="0.875" stop-color="#DEBB4E"/>
<stop offset="1" stop-color="#E3C151"/>
</linearGradient>
<linearGradient id="paint11_linear_2574_2799" x1="46.4421" y1="17.0059" x2="46.4421" y2="20.6145" gradientUnits="userSpaceOnUse">
<stop stop-color="#B78E39"/>
<stop offset="0.5" stop-color="#CDA845"/>
<stop offset="0.75" stop-color="#D8B44B"/>
<stop offset="0.875" stop-color="#DEBB4E"/>
<stop offset="1" stop-color="#E3C151"/>
</linearGradient>
<linearGradient id="paint12_linear_2574_2799" x1="48.3362" y1="19.8652" x2="48.3362" y2="23.2864" gradientUnits="userSpaceOnUse">
<stop stop-color="#B78E39"/>
<stop offset="0.5" stop-color="#CDA845"/>
<stop offset="0.75" stop-color="#D8B44B"/>
<stop offset="0.875" stop-color="#DEBB4E"/>
<stop offset="1" stop-color="#E3C151"/>
</linearGradient>
<clipPath id="clip0_2574_2799">
<rect width="40" height="40" fill="white" transform="translate(10 10)"/>
</clipPath>
</defs>
</svg>
