<svg width="60" height="60" viewBox="0 0 60 60" fill="none" xmlns="http://www.w3.org/2000/svg">
<rect x="1" y="1" width="58" height="58" rx="29" stroke="url(#paint0_linear_2574_2823)" stroke-width="2"/>
<path d="M25.4687 16.091C26.4469 16.091 27.2421 15.2958 27.2421 14.3183C27.2421 13.3401 26.4469 12.5449 25.4687 12.5449C24.4912 12.5449 23.6953 13.3401 23.6953 14.3183C23.6953 15.2958 24.4912 16.091 25.4687 16.091Z" fill="url(#paint1_linear_2574_2823)"/>
<path d="M23.0839 24.7745C23.1349 24.7724 23.1851 24.771 23.2354 24.771H29.1078L28.4166 24.0589L25.6155 22.5976C25.5325 22.5536 25.4654 22.4831 25.427 22.3972L24.4523 20.2237C24.3574 20.0122 24.4523 19.7643 24.6632 19.6701C24.8747 19.5751 25.1219 19.6693 25.2169 19.8809L26.1322 21.9217L28.8656 23.3474C28.9117 23.3718 28.9521 23.404 28.9856 23.4416L31.8573 26.4012C31.9725 26.5199 32.1323 26.5765 32.2971 26.5555C32.4619 26.5353 32.603 26.441 32.686 26.2972C32.8075 26.085 32.767 25.821 32.589 25.6541L32.4382 25.5138L32.4067 25.4837L28.9116 22.2274C28.5004 21.8442 28.2644 21.3024 28.2644 20.7403V20.1273C28.2644 19.6533 27.9929 19.198 27.4999 18.8461C26.963 18.4629 26.2432 18.252 25.4724 18.252C23.9587 18.252 22.6797 19.1107 22.6797 20.1273V23.8542C22.6797 24.1356 22.7788 24.4093 22.9597 24.6257L23.0839 24.7745Z" fill="url(#paint2_linear_2574_2823)"/>
<path d="M18.5745 31.0532C20.0783 31.0532 21.2974 29.8342 21.2974 28.3303C21.2974 26.8265 20.0783 25.6074 18.5745 25.6074C17.0706 25.6074 15.8516 26.8265 15.8516 28.3303C15.8516 29.8342 17.0706 31.0532 18.5745 31.0532Z" fill="white"/>
<path d="M44.6562 30.8203H45.8808V32.5225H44.6562V30.8203Z" fill="white"/>
<path d="M21.727 29.9815H34.1155V25.6074H33.5248C33.6435 25.9649 33.6107 26.3657 33.4117 26.7127C33.1974 27.0869 32.8288 27.3319 32.4008 27.3857C32.3428 27.3927 32.2848 27.3961 32.2276 27.3961C31.8618 27.3969 31.5147 27.2509 31.255 26.9828L29.9201 25.6074H23.235C23.1415 25.6074 23.0458 25.613 22.953 25.6249C22.9474 25.6256 22.9418 25.6263 22.9369 25.627C22.4544 25.6912 21.9965 25.9175 21.6474 26.2651C21.6125 26.3 21.5789 26.3363 21.5469 26.374C21.9176 26.9353 22.1341 27.6084 22.1341 28.3303C22.134 28.9259 21.9867 29.4879 21.727 29.9815Z" fill="url(#paint3_linear_2574_2823)"/>
<path d="M34.1153 30.8203H21.1166C20.4694 31.4815 19.568 31.892 18.5731 31.892C17.5774 31.892 16.6761 31.4815 16.0296 30.8203H14.125V32.5225H34.1153V30.8203Z" fill="url(#paint4_linear_2574_2823)"/>
<path d="M34.8987 21.1636C35.1598 21.1636 35.4196 21.1357 35.6688 21.0798C35.673 21.0791 35.6772 21.0777 35.682 21.0771C36.7132 20.8411 37.4345 20.1548 37.4345 19.407C37.4345 18.6334 36.7084 17.9744 35.703 17.7412C35.7009 17.7404 35.6981 17.7398 35.6953 17.7398C35.6827 17.7363 35.6695 17.7335 35.6569 17.7307C35.6548 17.73 35.6534 17.73 35.652 17.7293C35.4139 17.6783 35.1605 17.6504 34.8987 17.6504C33.8871 17.6504 32.8921 18.7702 32.4453 19.407C32.8921 20.0438 33.8871 21.1636 34.8987 21.1636Z" fill="white"/>
<path d="M38.0747 25.675C38.0077 25.7155 37.9323 25.7357 37.8569 25.7357C37.7815 25.7357 37.7061 25.7155 37.6391 25.675C37.5755 25.6366 36.1722 24.7722 35.5543 23.5273H34.9531V33.7585H43.8187V23.5273H40.1595C39.5416 24.7722 38.1382 25.6366 38.0747 25.675Z" fill="url(#paint5_linear_2574_2823)"/>
<path d="M37.8541 18.1507C38.2248 17.6298 38.8245 17.2165 39.5737 16.9924C39.6009 16.8151 39.6149 16.6343 39.6149 16.4527C39.6149 15.4417 38.495 14.4468 37.8582 14C37.2215 14.4461 36.1016 15.4417 36.1016 16.4527C36.1016 16.635 36.1148 16.8165 36.1427 16.9945C36.8717 17.2165 37.4763 17.6284 37.8541 18.1507Z" fill="white"/>
<path d="M38.3359 19.0433C39.2149 19.2514 39.9474 20.0278 40.2755 21.1232H40.2762C40.4535 21.1504 40.6337 21.1637 40.8152 21.1637C41.8255 21.1637 42.8204 20.0445 43.2679 19.407C42.8211 18.7703 41.8255 17.6504 40.8152 17.6504C40.5541 17.6504 40.2943 17.679 40.0437 17.7342C40.0395 17.7349 40.0346 17.7363 40.0305 17.7369C39.1703 17.934 38.5258 18.445 38.3359 19.0433Z" fill="white"/>
<path d="M38.2226 19.8828C38.0145 20.7618 37.2381 21.4942 36.1427 21.8224C36.1155 22.0004 36.1016 22.1806 36.1016 22.3621C36.1016 22.5499 36.14 22.7461 36.2154 22.9443C36.2161 22.9486 36.2181 22.9527 36.2196 22.9569C36.2203 22.9583 36.2203 22.959 36.221 22.9604C36.5491 23.8108 37.4428 24.5181 37.8589 24.812C38.2751 24.518 39.1715 23.8087 39.4976 22.9583C39.4989 22.9541 39.5011 22.9492 39.5024 22.9451C39.5771 22.7454 39.6155 22.5499 39.6155 22.3621C39.6155 22.1024 39.5883 21.8433 39.5325 21.5927C39.5311 21.5871 39.5297 21.5815 39.529 21.576C39.3313 20.7164 38.8209 20.0727 38.2226 19.8828Z" fill="white"/>
<path d="M19.3993 44.6719C18.632 44.6719 18.0078 45.296 18.0078 46.0634C18.0078 46.83 18.632 47.4541 19.3993 47.4541C20.1659 47.4541 20.7901 46.83 20.7901 46.0634C20.7901 45.296 20.1659 44.6719 19.3993 44.6719Z" fill="white"/>
<path d="M19.8144 43.8739V43.2148H18.9766V43.8739C19.112 43.8474 19.2523 43.8341 19.3955 43.8341C19.5386 43.8341 19.679 43.8474 19.8144 43.8739Z" fill="url(#paint6_linear_2574_2823)"/>
<path d="M39.9845 44.6719C39.2179 44.6719 38.5938 45.296 38.5938 46.0634C38.5938 46.83 39.2179 47.4541 39.9845 47.4541C40.7518 47.4541 41.376 46.83 41.376 46.0634C41.376 45.296 40.7518 44.6719 39.9845 44.6719Z" fill="white"/>
<path d="M40.4081 43.8739V43.2148H39.5703V43.8739C39.7057 43.8474 39.8461 43.8341 39.9892 43.8341C40.1323 43.8341 40.2727 43.8474 40.4081 43.8739Z" fill="url(#paint7_linear_2574_2823)"/>
<path d="M34.5325 34.5952C34.3013 34.5952 34.1136 34.4074 34.1136 34.1762V33.3594H16.1172C16.9969 35.5963 17.2196 37.8508 16.7853 40.0968H42.5944C42.239 38.2634 42.3213 36.4223 42.8422 34.5952H34.5325Z" fill="url(#paint8_linear_2574_2823)"/>
<path d="M16.5927 40.9355C16.4642 41.4166 16.3057 41.8977 16.1172 42.3773H43.2618C43.0733 41.8977 42.9148 41.4166 42.7863 40.9355H16.5927Z" fill="url(#paint9_linear_2574_2823)"/>
<defs>
<linearGradient id="paint0_linear_2574_2823" x1="30" y1="0" x2="30" y2="60" gradientUnits="userSpaceOnUse">
<stop stop-color="#6E4B12"/>
<stop offset="0.35" stop-color="#B8860B"/>
<stop offset="0.55" stop-color="#FFD700"/>
<stop offset="0.75" stop-color="#E6C35C"/>
<stop offset="1" stop-color="#8A6A1E"/>
</linearGradient>
<linearGradient id="paint1_linear_2574_2823" x1="25.4687" y1="12.5449" x2="25.4687" y2="16.091" gradientUnits="userSpaceOnUse">
<stop stop-color="#6E4B12"/>
<stop offset="0.35" stop-color="#B8860B"/>
<stop offset="0.55" stop-color="#FFD700"/>
<stop offset="0.75" stop-color="#E6C35C"/>
<stop offset="1" stop-color="#8A6A1E"/>
</linearGradient>
<linearGradient id="paint2_linear_2574_2823" x1="27.7177" y1="18.252" x2="27.7177" y2="26.5598" gradientUnits="userSpaceOnUse">
<stop stop-color="#6E4B12"/>
<stop offset="0.35" stop-color="#B8860B"/>
<stop offset="0.55" stop-color="#FFD700"/>
<stop offset="0.75" stop-color="#E6C35C"/>
<stop offset="1" stop-color="#8A6A1E"/>
</linearGradient>
<linearGradient id="paint3_linear_2574_2823" x1="27.8312" y1="25.6074" x2="27.8312" y2="29.9815" gradientUnits="userSpaceOnUse">
<stop stop-color="#6E4B12"/>
<stop offset="0.35" stop-color="#B8860B"/>
<stop offset="0.55" stop-color="#FFD700"/>
<stop offset="0.75" stop-color="#E6C35C"/>
<stop offset="1" stop-color="#8A6A1E"/>
</linearGradient>
<linearGradient id="paint4_linear_2574_2823" x1="24.1202" y1="30.8203" x2="24.1202" y2="32.5225" gradientUnits="userSpaceOnUse">
<stop stop-color="#6E4B12"/>
<stop offset="0.35" stop-color="#B8860B"/>
<stop offset="0.55" stop-color="#FFD700"/>
<stop offset="0.75" stop-color="#E6C35C"/>
<stop offset="1" stop-color="#8A6A1E"/>
</linearGradient>
<linearGradient id="paint5_linear_2574_2823" x1="39.3859" y1="23.5273" x2="39.3859" y2="33.7585" gradientUnits="userSpaceOnUse">
<stop stop-color="#6E4B12"/>
<stop offset="0.35" stop-color="#B8860B"/>
<stop offset="0.55" stop-color="#FFD700"/>
<stop offset="0.75" stop-color="#E6C35C"/>
<stop offset="1" stop-color="#8A6A1E"/>
</linearGradient>
<linearGradient id="paint6_linear_2574_2823" x1="19.3955" y1="43.2148" x2="19.3955" y2="43.8739" gradientUnits="userSpaceOnUse">
<stop stop-color="#6E4B12"/>
<stop offset="0.35" stop-color="#B8860B"/>
<stop offset="0.55" stop-color="#FFD700"/>
<stop offset="0.75" stop-color="#E6C35C"/>
<stop offset="1" stop-color="#8A6A1E"/>
</linearGradient>
<linearGradient id="paint7_linear_2574_2823" x1="39.9892" y1="43.2148" x2="39.9892" y2="43.8739" gradientUnits="userSpaceOnUse">
<stop stop-color="#6E4B12"/>
<stop offset="0.35" stop-color="#B8860B"/>
<stop offset="0.55" stop-color="#FFD700"/>
<stop offset="0.75" stop-color="#E6C35C"/>
<stop offset="1" stop-color="#8A6A1E"/>
</linearGradient>
<linearGradient id="paint8_linear_2574_2823" x1="29.4797" y1="33.3594" x2="29.4797" y2="40.0968" gradientUnits="userSpaceOnUse">
<stop stop-color="#6E4B12"/>
<stop offset="0.35" stop-color="#B8860B"/>
<stop offset="0.55" stop-color="#FFD700"/>
<stop offset="0.75" stop-color="#E6C35C"/>
<stop offset="1" stop-color="#8A6A1E"/>
</linearGradient>
<linearGradient id="paint9_linear_2574_2823" x1="29.6895" y1="40.9355" x2="29.6895" y2="42.3773" gradientUnits="userSpaceOnUse">
<stop stop-color="#6E4B12"/>
<stop offset="0.35" stop-color="#B8860B"/>
<stop offset="0.55" stop-color="#FFD700"/>
<stop offset="0.75" stop-color="#E6C35C"/>
<stop offset="1" stop-color="#8A6A1E"/>
</linearGradient>
</defs>
</svg>
