<svg width="1440" height="600" viewBox="0 0 1440 600" fill="none" xmlns="http://www.w3.org/2000/svg">
<g clip-path="url(#clip0_2556_15730)">
<rect width="1440" height="600" fill="#361A0D"/>
<path d="M225.997 299C226.034 319.154 205.377 346.257 205.377 346.257C205.377 346.257 184.272 319.237 184.234 299C184.197 278.804 205.116 251.742 205.116 251.742C205.116 251.742 225.959 278.804 225.997 299Z" fill="white" fill-opacity="0.02"/>
<path d="M225.997 299C226.034 319.154 205.377 346.257 205.377 346.257C205.377 346.257 184.272 319.237 184.234 299C184.197 278.804 205.116 251.742 205.116 251.742C205.116 251.742 225.959 278.804 225.997 299Z" fill="white" fill-opacity="0.02"/>
<path d="M115 412.198C94.846 412.235 67.7429 391.578 67.7429 391.578C67.7429 391.578 94.7627 370.473 115 370.436C135.196 370.398 162.258 391.317 162.258 391.317C162.258 391.317 135.196 412.16 115 412.198Z" fill="white" fill-opacity="0.02"/>
<path d="M115 412.198C94.846 412.235 67.7429 391.578 67.7429 391.578C67.7429 391.578 94.7627 370.473 115 370.436C135.196 370.398 162.258 391.317 162.258 391.317C162.258 391.317 135.196 412.16 115 412.198Z" fill="white" fill-opacity="0.02"/>
<path d="M45.7624 299C45.7999 319.154 25.1422 346.257 25.1422 346.257C25.1422 346.257 4.03726 319.237 4 299C3.96282 278.804 24.8812 251.742 24.8812 251.742C24.8812 251.742 45.7248 278.804 45.7624 299Z" fill="white" fill-opacity="0.02"/>
<path d="M45.7624 299C45.7999 319.154 25.1422 346.257 25.1422 346.257C25.1422 346.257 4.03726 319.237 4 299C3.96282 278.804 24.8812 251.742 24.8812 251.742C24.8812 251.742 45.7248 278.804 45.7624 299Z" fill="white" fill-opacity="0.02"/>
<path d="M115 229.762C94.846 229.8 67.7429 209.142 67.7429 209.142C67.7429 209.142 94.7627 188.037 115 188C135.196 187.963 162.258 208.881 162.258 208.881C162.258 208.881 135.196 229.725 115 229.762Z" fill="white" fill-opacity="0.02"/>
<path d="M115 229.762C94.846 229.8 67.7429 209.142 67.7429 209.142C67.7429 209.142 94.7627 188.037 115 188C135.196 187.963 162.258 208.881 162.258 208.881C162.258 208.881 135.196 229.725 115 229.762Z" fill="white" fill-opacity="0.02"/>
<path d="M166.723 276.985C152.751 291.037 119.467 295.466 119.467 295.466C119.467 295.466 123.461 261.919 137.49 247.81C151.491 233.73 184.929 229.511 184.929 229.511C184.929 229.511 180.723 262.905 166.723 276.985Z" fill="white" fill-opacity="0.02"/>
<path d="M166.723 276.985C152.751 291.037 119.467 295.466 119.467 295.466C119.467 295.466 123.461 261.919 137.49 247.81C151.491 233.73 184.929 229.511 184.929 229.511C184.929 229.511 180.723 262.905 166.723 276.985Z" fill="white" fill-opacity="0.02"/>
<path d="M136.997 351.212C123.018 337.168 118.762 303.861 118.762 303.861C118.762 303.861 152.288 308.029 166.324 322.132C180.331 336.206 184.376 369.665 184.376 369.665C184.376 369.665 151.004 365.286 136.997 351.212Z" fill="white" fill-opacity="0.02"/>
<path d="M136.997 351.212C123.018 337.168 118.762 303.861 118.762 303.861C118.762 303.861 152.288 308.029 166.324 322.132C180.331 336.206 184.376 369.665 184.376 369.665C184.376 369.665 151.004 365.286 136.997 351.212Z" fill="white" fill-opacity="0.02"/>
<path d="M92.3866 350.81C78.4149 364.861 45.131 369.291 45.131 369.291C45.131 369.291 49.1246 335.744 63.1544 321.634C77.1551 307.554 110.593 303.336 110.593 303.336C110.593 303.336 106.387 336.729 92.3866 350.81Z" fill="white" fill-opacity="0.02"/>
<path d="M92.3866 350.81C78.4149 364.861 45.131 369.291 45.131 369.291C45.131 369.291 49.1246 335.744 63.1544 321.634C77.1551 307.554 110.593 303.336 110.593 303.336C110.593 303.336 106.387 336.729 92.3866 350.81Z" fill="white" fill-opacity="0.02"/>
<path d="M63.5517 276.488C49.573 262.443 45.3167 229.137 45.3167 229.137C45.3167 229.137 78.8424 233.305 92.8786 247.408C106.886 261.481 110.93 294.94 110.93 294.94C110.93 294.94 77.5591 290.561 63.5517 276.488Z" fill="white" fill-opacity="0.02"/>
<path d="M63.5517 276.488C49.573 262.443 45.3167 229.137 45.3167 229.137C45.3167 229.137 78.8424 233.305 92.8786 247.408C106.886 261.481 110.93 294.94 110.93 294.94C110.93 294.94 77.5591 290.561 63.5517 276.488Z" fill="white" fill-opacity="0.02"/>
<circle cx="23.7846" cy="207.783" r="15.3861" fill="white" fill-opacity="0.02"/>
<circle cx="23.7846" cy="207.783" r="15.3861" fill="white" fill-opacity="0.02"/>
<circle cx="23.7846" cy="390.218" r="15.3861" fill="white" fill-opacity="0.02"/>
<circle cx="23.7846" cy="390.218" r="15.3861" fill="white" fill-opacity="0.02"/>
<circle cx="206.214" cy="207.783" r="15.3861" fill="white" fill-opacity="0.02"/>
<circle cx="206.214" cy="207.783" r="15.3861" fill="white" fill-opacity="0.02"/>
<circle cx="206.214" cy="390.218" r="15.3861" fill="white" fill-opacity="0.02"/>
<circle cx="206.214" cy="390.218" r="15.3861" fill="white" fill-opacity="0.02"/>
<path d="M346.997 49.9996C347.034 70.154 326.377 97.2571 326.377 97.2571C326.377 97.2571 305.272 70.2373 305.234 49.9996C305.197 29.8038 326.116 2.74219 326.116 2.74219C326.116 2.74219 346.959 29.8038 346.997 49.9996Z" fill="white" fill-opacity="0.02"/>
<path d="M346.997 49.9996C347.034 70.154 326.377 97.2571 326.377 97.2571C326.377 97.2571 305.272 70.2373 305.234 49.9996C305.197 29.8038 326.116 2.74219 326.116 2.74219C326.116 2.74219 346.959 29.8038 346.997 49.9996Z" fill="white" fill-opacity="0.02"/>
<path d="M236 163.198C215.846 163.235 188.743 142.578 188.743 142.578C188.743 142.578 215.763 121.473 236 121.436C256.196 121.398 283.258 142.317 283.258 142.317C283.258 142.317 256.196 163.16 236 163.198Z" fill="white" fill-opacity="0.02"/>
<path d="M236 163.198C215.846 163.235 188.743 142.578 188.743 142.578C188.743 142.578 215.763 121.473 236 121.436C256.196 121.398 283.258 142.317 283.258 142.317C283.258 142.317 256.196 163.16 236 163.198Z" fill="white" fill-opacity="0.02"/>
<path d="M166.762 49.9996C166.8 70.154 146.142 97.2571 146.142 97.2571C146.142 97.2571 125.037 70.2373 125 49.9996C124.963 29.8038 145.881 2.74219 145.881 2.74219C145.881 2.74219 166.725 29.8038 166.762 49.9996Z" fill="white" fill-opacity="0.02"/>
<path d="M166.762 49.9996C166.8 70.154 146.142 97.2571 146.142 97.2571C146.142 97.2571 125.037 70.2373 125 49.9996C124.963 29.8038 145.881 2.74219 145.881 2.74219C145.881 2.74219 166.725 29.8038 166.762 49.9996Z" fill="white" fill-opacity="0.02"/>
<path d="M287.723 27.9854C273.751 42.0369 240.467 46.4664 240.467 46.4664C240.467 46.4664 244.461 12.9194 258.49 -1.1899C272.491 -15.27 305.929 -19.4885 305.929 -19.4885C305.929 -19.4885 301.723 13.905 287.723 27.9854Z" fill="white" fill-opacity="0.02"/>
<path d="M287.723 27.9854C273.751 42.0369 240.467 46.4664 240.467 46.4664C240.467 46.4664 244.461 12.9194 258.49 -1.1899C272.491 -15.27 305.929 -19.4885 305.929 -19.4885C305.929 -19.4885 301.723 13.905 287.723 27.9854Z" fill="white" fill-opacity="0.02"/>
<path d="M257.997 102.212C244.018 88.1678 239.762 54.8614 239.762 54.8614C239.762 54.8614 273.288 59.0293 287.324 73.1323C301.331 87.206 305.376 120.665 305.376 120.665C305.376 120.665 272.004 116.286 257.997 102.212Z" fill="white" fill-opacity="0.02"/>
<path d="M257.997 102.212C244.018 88.1678 239.762 54.8614 239.762 54.8614C239.762 54.8614 273.288 59.0293 287.324 73.1323C301.331 87.206 305.376 120.665 305.376 120.665C305.376 120.665 272.004 116.286 257.997 102.212Z" fill="white" fill-opacity="0.02"/>
<path d="M213.387 101.81C199.415 115.861 166.131 120.291 166.131 120.291C166.131 120.291 170.125 86.7437 184.154 72.6343C198.155 58.5542 231.593 54.3357 231.593 54.3357C231.593 54.3357 227.387 87.7292 213.387 101.81Z" fill="white" fill-opacity="0.02"/>
<path d="M213.387 101.81C199.415 115.861 166.131 120.291 166.131 120.291C166.131 120.291 170.125 86.7437 184.154 72.6343C198.155 58.5542 231.593 54.3357 231.593 54.3357C231.593 54.3357 227.387 87.7292 213.387 101.81Z" fill="white" fill-opacity="0.02"/>
<path d="M184.552 27.4878C170.573 13.4432 166.317 -19.8632 166.317 -19.8632C166.317 -19.8632 199.842 -15.6953 213.879 -1.59234C227.886 12.4814 231.93 45.9405 231.93 45.9405C231.93 45.9405 198.559 41.5613 184.552 27.4878Z" fill="white" fill-opacity="0.02"/>
<path d="M184.552 27.4878C170.573 13.4432 166.317 -19.8632 166.317 -19.8632C166.317 -19.8632 199.842 -15.6953 213.879 -1.59234C227.886 12.4814 231.93 45.9405 231.93 45.9405C231.93 45.9405 198.559 41.5613 184.552 27.4878Z" fill="white" fill-opacity="0.02"/>
<circle cx="144.785" cy="141.218" r="15.3861" fill="white" fill-opacity="0.02"/>
<circle cx="144.785" cy="141.218" r="15.3861" fill="white" fill-opacity="0.02"/>
<circle cx="327.214" cy="141.218" r="15.3861" fill="white" fill-opacity="0.02"/>
<circle cx="327.214" cy="141.218" r="15.3861" fill="white" fill-opacity="0.02"/>
<path d="M346.997 548C347.034 568.154 326.377 595.257 326.377 595.257C326.377 595.257 305.272 568.237 305.234 548C305.197 527.804 326.116 500.742 326.116 500.742C326.116 500.742 346.959 527.804 346.997 548Z" fill="white" fill-opacity="0.02"/>
<path d="M346.997 548C347.034 568.154 326.377 595.257 326.377 595.257C326.377 595.257 305.272 568.237 305.234 548C305.197 527.804 326.116 500.742 326.116 500.742C326.116 500.742 346.959 527.804 346.997 548Z" fill="white" fill-opacity="0.02"/>
<path d="M166.762 548C166.8 568.154 146.142 595.257 146.142 595.257C146.142 595.257 125.037 568.237 125 548C124.963 527.804 145.881 500.742 145.881 500.742C145.881 500.742 166.725 527.804 166.762 548Z" fill="white" fill-opacity="0.02"/>
<path d="M166.762 548C166.8 568.154 146.142 595.257 146.142 595.257C146.142 595.257 125.037 568.237 125 548C124.963 527.804 145.881 500.742 145.881 500.742C145.881 500.742 166.725 527.804 166.762 548Z" fill="white" fill-opacity="0.02"/>
<path d="M236 478.762C215.846 478.8 188.743 458.142 188.743 458.142C188.743 458.142 215.763 437.037 236 437C256.196 436.963 283.258 457.881 283.258 457.881C283.258 457.881 256.196 478.725 236 478.762Z" fill="white" fill-opacity="0.02"/>
<path d="M236 478.762C215.846 478.8 188.743 458.142 188.743 458.142C188.743 458.142 215.763 437.037 236 437C256.196 436.963 283.258 457.881 283.258 457.881C283.258 457.881 256.196 478.725 236 478.762Z" fill="white" fill-opacity="0.02"/>
<path d="M287.723 525.985C273.751 540.037 240.467 544.466 240.467 544.466C240.467 544.466 244.461 510.919 258.49 496.81C272.491 482.73 305.929 478.511 305.929 478.511C305.929 478.511 301.723 511.905 287.723 525.985Z" fill="white" fill-opacity="0.02"/>
<path d="M287.723 525.985C273.751 540.037 240.467 544.466 240.467 544.466C240.467 544.466 244.461 510.919 258.49 496.81C272.491 482.73 305.929 478.511 305.929 478.511C305.929 478.511 301.723 511.905 287.723 525.985Z" fill="white" fill-opacity="0.02"/>
<path d="M257.997 600.212C244.018 586.168 239.762 552.861 239.762 552.861C239.762 552.861 273.288 557.029 287.324 571.132C301.331 585.206 305.376 618.665 305.376 618.665C305.376 618.665 272.004 614.286 257.997 600.212Z" fill="white" fill-opacity="0.02"/>
<path d="M257.997 600.212C244.018 586.168 239.762 552.861 239.762 552.861C239.762 552.861 273.288 557.029 287.324 571.132C301.331 585.206 305.376 618.665 305.376 618.665C305.376 618.665 272.004 614.286 257.997 600.212Z" fill="white" fill-opacity="0.02"/>
<path d="M213.387 599.81C199.415 613.861 166.131 618.291 166.131 618.291C166.131 618.291 170.125 584.744 184.154 570.634C198.155 556.554 231.593 552.336 231.593 552.336C231.593 552.336 227.387 585.729 213.387 599.81Z" fill="white" fill-opacity="0.02"/>
<path d="M213.387 599.81C199.415 613.861 166.131 618.291 166.131 618.291C166.131 618.291 170.125 584.744 184.154 570.634C198.155 556.554 231.593 552.336 231.593 552.336C231.593 552.336 227.387 585.729 213.387 599.81Z" fill="white" fill-opacity="0.02"/>
<path d="M184.552 525.488C170.573 511.443 166.317 478.137 166.317 478.137C166.317 478.137 199.842 482.305 213.879 496.408C227.886 510.481 231.93 543.94 231.93 543.94C231.93 543.94 198.559 539.561 184.552 525.488Z" fill="white" fill-opacity="0.02"/>
<path d="M184.552 525.488C170.573 511.443 166.317 478.137 166.317 478.137C166.317 478.137 199.842 482.305 213.879 496.408C227.886 510.481 231.93 543.94 231.93 543.94C231.93 543.94 198.559 539.561 184.552 525.488Z" fill="white" fill-opacity="0.02"/>
<circle cx="144.785" cy="456.783" r="15.3861" fill="white" fill-opacity="0.02"/>
<circle cx="144.785" cy="456.783" r="15.3861" fill="white" fill-opacity="0.02"/>
<circle cx="327.214" cy="456.783" r="15.3861" fill="white" fill-opacity="0.02"/>
<circle cx="327.214" cy="456.783" r="15.3861" fill="white" fill-opacity="0.02"/>
<path d="M467.997 299C468.034 319.154 447.377 346.257 447.377 346.257C447.377 346.257 426.272 319.237 426.234 299C426.197 278.804 447.116 251.742 447.116 251.742C447.116 251.742 467.959 278.804 467.997 299Z" fill="white" fill-opacity="0.01"/>
<path d="M467.997 299C468.034 319.154 447.377 346.257 447.377 346.257C447.377 346.257 426.272 319.237 426.234 299C426.197 278.804 447.116 251.742 447.116 251.742C447.116 251.742 467.959 278.804 467.997 299Z" fill="white" fill-opacity="0.01"/>
<path d="M357 412.198C336.846 412.235 309.743 391.578 309.743 391.578C309.743 391.578 336.763 370.473 357 370.436C377.196 370.398 404.258 391.317 404.258 391.317C404.258 391.317 377.196 412.16 357 412.198Z" fill="white" fill-opacity="0.01"/>
<path d="M357 412.198C336.846 412.235 309.743 391.578 309.743 391.578C309.743 391.578 336.763 370.473 357 370.436C377.196 370.398 404.258 391.317 404.258 391.317C404.258 391.317 377.196 412.16 357 412.198Z" fill="white" fill-opacity="0.01"/>
<path d="M287.762 299C287.8 319.154 267.142 346.257 267.142 346.257C267.142 346.257 246.037 319.237 246 299C245.963 278.804 266.881 251.742 266.881 251.742C266.881 251.742 287.725 278.804 287.762 299Z" fill="white" fill-opacity="0.01"/>
<path d="M287.762 299C287.8 319.154 267.142 346.257 267.142 346.257C267.142 346.257 246.037 319.237 246 299C245.963 278.804 266.881 251.742 266.881 251.742C266.881 251.742 287.725 278.804 287.762 299Z" fill="white" fill-opacity="0.01"/>
<path d="M357 229.762C336.846 229.8 309.743 209.142 309.743 209.142C309.743 209.142 336.763 188.037 357 188C377.196 187.963 404.258 208.881 404.258 208.881C404.258 208.881 377.196 229.725 357 229.762Z" fill="white" fill-opacity="0.01"/>
<path d="M357 229.762C336.846 229.8 309.743 209.142 309.743 209.142C309.743 209.142 336.763 188.037 357 188C377.196 187.963 404.258 208.881 404.258 208.881C404.258 208.881 377.196 229.725 357 229.762Z" fill="white" fill-opacity="0.01"/>
<path d="M408.723 276.985C394.751 291.037 361.467 295.466 361.467 295.466C361.467 295.466 365.461 261.919 379.49 247.81C393.491 233.73 426.929 229.511 426.929 229.511C426.929 229.511 422.723 262.905 408.723 276.985Z" fill="white" fill-opacity="0.01"/>
<path d="M408.723 276.985C394.751 291.037 361.467 295.466 361.467 295.466C361.467 295.466 365.461 261.919 379.49 247.81C393.491 233.73 426.929 229.511 426.929 229.511C426.929 229.511 422.723 262.905 408.723 276.985Z" fill="white" fill-opacity="0.01"/>
<path d="M378.997 351.212C365.018 337.168 360.762 303.861 360.762 303.861C360.762 303.861 394.288 308.029 408.324 322.132C422.331 336.206 426.376 369.665 426.376 369.665C426.376 369.665 393.004 365.286 378.997 351.212Z" fill="white" fill-opacity="0.01"/>
<path d="M378.997 351.212C365.018 337.168 360.762 303.861 360.762 303.861C360.762 303.861 394.288 308.029 408.324 322.132C422.331 336.206 426.376 369.665 426.376 369.665C426.376 369.665 393.004 365.286 378.997 351.212Z" fill="white" fill-opacity="0.01"/>
<path d="M334.387 350.81C320.415 364.861 287.131 369.291 287.131 369.291C287.131 369.291 291.125 335.744 305.154 321.634C319.155 307.554 352.593 303.336 352.593 303.336C352.593 303.336 348.387 336.729 334.387 350.81Z" fill="white" fill-opacity="0.01"/>
<path d="M334.387 350.81C320.415 364.861 287.131 369.291 287.131 369.291C287.131 369.291 291.125 335.744 305.154 321.634C319.155 307.554 352.593 303.336 352.593 303.336C352.593 303.336 348.387 336.729 334.387 350.81Z" fill="white" fill-opacity="0.01"/>
<path d="M305.552 276.488C291.573 262.443 287.317 229.137 287.317 229.137C287.317 229.137 320.842 233.305 334.879 247.408C348.886 261.481 352.93 294.94 352.93 294.94C352.93 294.94 319.559 290.561 305.552 276.488Z" fill="white" fill-opacity="0.01"/>
<path d="M305.552 276.488C291.573 262.443 287.317 229.137 287.317 229.137C287.317 229.137 320.842 233.305 334.879 247.408C348.886 261.481 352.93 294.94 352.93 294.94C352.93 294.94 319.559 290.561 305.552 276.488Z" fill="white" fill-opacity="0.01"/>
<circle cx="265.785" cy="207.783" r="15.3861" fill="white" fill-opacity="0.01"/>
<circle cx="265.785" cy="207.783" r="15.3861" fill="white" fill-opacity="0.01"/>
<circle cx="265.785" cy="390.218" r="15.3861" fill="white" fill-opacity="0.01"/>
<circle cx="265.785" cy="390.218" r="15.3861" fill="white" fill-opacity="0.01"/>
<circle cx="448.214" cy="207.783" r="15.3861" fill="white" fill-opacity="0.01"/>
<circle cx="448.214" cy="207.783" r="15.3861" fill="white" fill-opacity="0.01"/>
<circle cx="448.214" cy="390.218" r="15.3861" fill="white" fill-opacity="0.01"/>
<circle cx="448.214" cy="390.218" r="15.3861" fill="white" fill-opacity="0.01"/>
<path d="M588.997 49.9996C589.034 70.154 568.377 97.2571 568.377 97.2571C568.377 97.2571 547.272 70.2373 547.234 49.9996C547.197 29.8038 568.116 2.74219 568.116 2.74219C568.116 2.74219 588.959 29.8038 588.997 49.9996Z" fill="white" fill-opacity="0.01"/>
<path d="M588.997 49.9996C589.034 70.154 568.377 97.2571 568.377 97.2571C568.377 97.2571 547.272 70.2373 547.234 49.9996C547.197 29.8038 568.116 2.74219 568.116 2.74219C568.116 2.74219 588.959 29.8038 588.997 49.9996Z" fill="white" fill-opacity="0.01"/>
<path d="M478 163.198C457.846 163.235 430.743 142.578 430.743 142.578C430.743 142.578 457.763 121.473 478 121.436C498.196 121.398 525.258 142.317 525.258 142.317C525.258 142.317 498.196 163.16 478 163.198Z" fill="white" fill-opacity="0.01"/>
<path d="M478 163.198C457.846 163.235 430.743 142.578 430.743 142.578C430.743 142.578 457.763 121.473 478 121.436C498.196 121.398 525.258 142.317 525.258 142.317C525.258 142.317 498.196 163.16 478 163.198Z" fill="white" fill-opacity="0.01"/>
<path d="M408.762 49.9996C408.8 70.154 388.142 97.2571 388.142 97.2571C388.142 97.2571 367.037 70.2373 367 49.9996C366.963 29.8038 387.881 2.74219 387.881 2.74219C387.881 2.74219 408.725 29.8038 408.762 49.9996Z" fill="white" fill-opacity="0.01"/>
<path d="M408.762 49.9996C408.8 70.154 388.142 97.2571 388.142 97.2571C388.142 97.2571 367.037 70.2373 367 49.9996C366.963 29.8038 387.881 2.74219 387.881 2.74219C387.881 2.74219 408.725 29.8038 408.762 49.9996Z" fill="white" fill-opacity="0.01"/>
<path d="M529.723 27.9854C515.751 42.0369 482.467 46.4664 482.467 46.4664C482.467 46.4664 486.461 12.9194 500.49 -1.1899C514.491 -15.27 547.929 -19.4885 547.929 -19.4885C547.929 -19.4885 543.723 13.905 529.723 27.9854Z" fill="white" fill-opacity="0.01"/>
<path d="M529.723 27.9854C515.751 42.0369 482.467 46.4664 482.467 46.4664C482.467 46.4664 486.461 12.9194 500.49 -1.1899C514.491 -15.27 547.929 -19.4885 547.929 -19.4885C547.929 -19.4885 543.723 13.905 529.723 27.9854Z" fill="white" fill-opacity="0.01"/>
<path d="M499.997 102.212C486.018 88.1678 481.762 54.8614 481.762 54.8614C481.762 54.8614 515.288 59.0293 529.324 73.1323C543.331 87.206 547.376 120.665 547.376 120.665C547.376 120.665 514.004 116.286 499.997 102.212Z" fill="white" fill-opacity="0.01"/>
<path d="M499.997 102.212C486.018 88.1678 481.762 54.8614 481.762 54.8614C481.762 54.8614 515.288 59.0293 529.324 73.1323C543.331 87.206 547.376 120.665 547.376 120.665C547.376 120.665 514.004 116.286 499.997 102.212Z" fill="white" fill-opacity="0.01"/>
<path d="M455.387 101.81C441.415 115.861 408.131 120.291 408.131 120.291C408.131 120.291 412.125 86.7437 426.154 72.6343C440.155 58.5542 473.593 54.3357 473.593 54.3357C473.593 54.3357 469.387 87.7292 455.387 101.81Z" fill="white" fill-opacity="0.01"/>
<path d="M455.387 101.81C441.415 115.861 408.131 120.291 408.131 120.291C408.131 120.291 412.125 86.7437 426.154 72.6343C440.155 58.5542 473.593 54.3357 473.593 54.3357C473.593 54.3357 469.387 87.7292 455.387 101.81Z" fill="white" fill-opacity="0.01"/>
<path d="M426.552 27.4878C412.573 13.4432 408.317 -19.8632 408.317 -19.8632C408.317 -19.8632 441.842 -15.6953 455.879 -1.59234C469.886 12.4814 473.93 45.9405 473.93 45.9405C473.93 45.9405 440.559 41.5613 426.552 27.4878Z" fill="white" fill-opacity="0.01"/>
<path d="M426.552 27.4878C412.573 13.4432 408.317 -19.8632 408.317 -19.8632C408.317 -19.8632 441.842 -15.6953 455.879 -1.59234C469.886 12.4814 473.93 45.9405 473.93 45.9405C473.93 45.9405 440.559 41.5613 426.552 27.4878Z" fill="white" fill-opacity="0.01"/>
<circle cx="386.785" cy="141.218" r="15.3861" fill="white" fill-opacity="0.01"/>
<circle cx="386.785" cy="141.218" r="15.3861" fill="white" fill-opacity="0.01"/>
<circle cx="569.214" cy="141.218" r="15.3861" fill="white" fill-opacity="0.01"/>
<circle cx="569.214" cy="141.218" r="15.3861" fill="white" fill-opacity="0.01"/>
<path d="M588.997 548C589.034 568.154 568.377 595.257 568.377 595.257C568.377 595.257 547.272 568.237 547.234 548C547.197 527.804 568.116 500.742 568.116 500.742C568.116 500.742 588.959 527.804 588.997 548Z" fill="white" fill-opacity="0.01"/>
<path d="M588.997 548C589.034 568.154 568.377 595.257 568.377 595.257C568.377 595.257 547.272 568.237 547.234 548C547.197 527.804 568.116 500.742 568.116 500.742C568.116 500.742 588.959 527.804 588.997 548Z" fill="white" fill-opacity="0.01"/>
<path d="M408.762 548C408.8 568.154 388.142 595.257 388.142 595.257C388.142 595.257 367.037 568.237 367 548C366.963 527.804 387.881 500.742 387.881 500.742C387.881 500.742 408.725 527.804 408.762 548Z" fill="white" fill-opacity="0.01"/>
<path d="M408.762 548C408.8 568.154 388.142 595.257 388.142 595.257C388.142 595.257 367.037 568.237 367 548C366.963 527.804 387.881 500.742 387.881 500.742C387.881 500.742 408.725 527.804 408.762 548Z" fill="white" fill-opacity="0.01"/>
<path d="M478 478.762C457.846 478.8 430.743 458.142 430.743 458.142C430.743 458.142 457.763 437.037 478 437C498.196 436.963 525.258 457.881 525.258 457.881C525.258 457.881 498.196 478.725 478 478.762Z" fill="white" fill-opacity="0.01"/>
<path d="M478 478.762C457.846 478.8 430.743 458.142 430.743 458.142C430.743 458.142 457.763 437.037 478 437C498.196 436.963 525.258 457.881 525.258 457.881C525.258 457.881 498.196 478.725 478 478.762Z" fill="white" fill-opacity="0.01"/>
<path d="M529.723 525.985C515.751 540.037 482.467 544.466 482.467 544.466C482.467 544.466 486.461 510.919 500.49 496.81C514.491 482.73 547.929 478.511 547.929 478.511C547.929 478.511 543.723 511.905 529.723 525.985Z" fill="white" fill-opacity="0.01"/>
<path d="M529.723 525.985C515.751 540.037 482.467 544.466 482.467 544.466C482.467 544.466 486.461 510.919 500.49 496.81C514.491 482.73 547.929 478.511 547.929 478.511C547.929 478.511 543.723 511.905 529.723 525.985Z" fill="white" fill-opacity="0.01"/>
<path d="M499.997 600.212C486.018 586.168 481.762 552.861 481.762 552.861C481.762 552.861 515.288 557.029 529.324 571.132C543.331 585.206 547.376 618.665 547.376 618.665C547.376 618.665 514.004 614.286 499.997 600.212Z" fill="white" fill-opacity="0.01"/>
<path d="M499.997 600.212C486.018 586.168 481.762 552.861 481.762 552.861C481.762 552.861 515.288 557.029 529.324 571.132C543.331 585.206 547.376 618.665 547.376 618.665C547.376 618.665 514.004 614.286 499.997 600.212Z" fill="white" fill-opacity="0.01"/>
<path d="M455.387 599.81C441.415 613.861 408.131 618.291 408.131 618.291C408.131 618.291 412.125 584.744 426.154 570.634C440.155 556.554 473.593 552.336 473.593 552.336C473.593 552.336 469.387 585.729 455.387 599.81Z" fill="white" fill-opacity="0.01"/>
<path d="M455.387 599.81C441.415 613.861 408.131 618.291 408.131 618.291C408.131 618.291 412.125 584.744 426.154 570.634C440.155 556.554 473.593 552.336 473.593 552.336C473.593 552.336 469.387 585.729 455.387 599.81Z" fill="white" fill-opacity="0.01"/>
<path d="M426.552 525.488C412.573 511.443 408.317 478.137 408.317 478.137C408.317 478.137 441.842 482.305 455.879 496.408C469.886 510.481 473.93 543.94 473.93 543.94C473.93 543.94 440.559 539.561 426.552 525.488Z" fill="white" fill-opacity="0.01"/>
<path d="M426.552 525.488C412.573 511.443 408.317 478.137 408.317 478.137C408.317 478.137 441.842 482.305 455.879 496.408C469.886 510.481 473.93 543.94 473.93 543.94C473.93 543.94 440.559 539.561 426.552 525.488Z" fill="white" fill-opacity="0.01"/>
<circle cx="386.785" cy="456.783" r="15.3861" fill="white" fill-opacity="0.01"/>
<circle cx="386.785" cy="456.783" r="15.3861" fill="white" fill-opacity="0.01"/>
<circle cx="569.214" cy="456.783" r="15.3861" fill="white" fill-opacity="0.01"/>
<circle cx="569.214" cy="456.783" r="15.3861" fill="white" fill-opacity="0.01"/>
<path d="M709.997 299C710.034 319.154 689.377 346.257 689.377 346.257C689.377 346.257 668.272 319.237 668.234 299C668.197 278.804 689.116 251.742 689.116 251.742C689.116 251.742 709.959 278.804 709.997 299Z" fill="white" fill-opacity="0.02"/>
<path d="M709.997 299C710.034 319.154 689.377 346.257 689.377 346.257C689.377 346.257 668.272 319.237 668.234 299C668.197 278.804 689.116 251.742 689.116 251.742C689.116 251.742 709.959 278.804 709.997 299Z" fill="white" fill-opacity="0.02"/>
<path d="M599 412.198C578.846 412.235 551.743 391.578 551.743 391.578C551.743 391.578 578.763 370.473 599 370.436C619.196 370.398 646.258 391.317 646.258 391.317C646.258 391.317 619.196 412.16 599 412.198Z" fill="white" fill-opacity="0.02"/>
<path d="M599 412.198C578.846 412.235 551.743 391.578 551.743 391.578C551.743 391.578 578.763 370.473 599 370.436C619.196 370.398 646.258 391.317 646.258 391.317C646.258 391.317 619.196 412.16 599 412.198Z" fill="white" fill-opacity="0.02"/>
<path d="M529.762 299C529.8 319.154 509.142 346.257 509.142 346.257C509.142 346.257 488.037 319.237 488 299C487.963 278.804 508.881 251.742 508.881 251.742C508.881 251.742 529.725 278.804 529.762 299Z" fill="white" fill-opacity="0.02"/>
<path d="M529.762 299C529.8 319.154 509.142 346.257 509.142 346.257C509.142 346.257 488.037 319.237 488 299C487.963 278.804 508.881 251.742 508.881 251.742C508.881 251.742 529.725 278.804 529.762 299Z" fill="white" fill-opacity="0.02"/>
<path d="M599 229.762C578.846 229.8 551.743 209.142 551.743 209.142C551.743 209.142 578.763 188.037 599 188C619.196 187.963 646.258 208.881 646.258 208.881C646.258 208.881 619.196 229.725 599 229.762Z" fill="white" fill-opacity="0.02"/>
<path d="M599 229.762C578.846 229.8 551.743 209.142 551.743 209.142C551.743 209.142 578.763 188.037 599 188C619.196 187.963 646.258 208.881 646.258 208.881C646.258 208.881 619.196 229.725 599 229.762Z" fill="white" fill-opacity="0.02"/>
<path d="M650.723 276.985C636.751 291.037 603.467 295.466 603.467 295.466C603.467 295.466 607.461 261.919 621.49 247.81C635.491 233.73 668.929 229.511 668.929 229.511C668.929 229.511 664.723 262.905 650.723 276.985Z" fill="white" fill-opacity="0.02"/>
<path d="M650.723 276.985C636.751 291.037 603.467 295.466 603.467 295.466C603.467 295.466 607.461 261.919 621.49 247.81C635.491 233.73 668.929 229.511 668.929 229.511C668.929 229.511 664.723 262.905 650.723 276.985Z" fill="white" fill-opacity="0.02"/>
<path d="M620.997 351.212C607.018 337.168 602.762 303.861 602.762 303.861C602.762 303.861 636.288 308.029 650.324 322.132C664.331 336.206 668.376 369.665 668.376 369.665C668.376 369.665 635.004 365.286 620.997 351.212Z" fill="white" fill-opacity="0.02"/>
<path d="M620.997 351.212C607.018 337.168 602.762 303.861 602.762 303.861C602.762 303.861 636.288 308.029 650.324 322.132C664.331 336.206 668.376 369.665 668.376 369.665C668.376 369.665 635.004 365.286 620.997 351.212Z" fill="white" fill-opacity="0.02"/>
<path d="M576.387 350.81C562.415 364.861 529.131 369.291 529.131 369.291C529.131 369.291 533.125 335.744 547.154 321.634C561.155 307.554 594.593 303.336 594.593 303.336C594.593 303.336 590.387 336.729 576.387 350.81Z" fill="white" fill-opacity="0.02"/>
<path d="M576.387 350.81C562.415 364.861 529.131 369.291 529.131 369.291C529.131 369.291 533.125 335.744 547.154 321.634C561.155 307.554 594.593 303.336 594.593 303.336C594.593 303.336 590.387 336.729 576.387 350.81Z" fill="white" fill-opacity="0.02"/>
<path d="M547.552 276.488C533.573 262.443 529.317 229.137 529.317 229.137C529.317 229.137 562.842 233.305 576.879 247.408C590.886 261.481 594.93 294.94 594.93 294.94C594.93 294.94 561.559 290.561 547.552 276.488Z" fill="white" fill-opacity="0.02"/>
<path d="M547.552 276.488C533.573 262.443 529.317 229.137 529.317 229.137C529.317 229.137 562.842 233.305 576.879 247.408C590.886 261.481 594.93 294.94 594.93 294.94C594.93 294.94 561.559 290.561 547.552 276.488Z" fill="white" fill-opacity="0.02"/>
<circle cx="507.785" cy="207.783" r="15.3861" fill="white" fill-opacity="0.02"/>
<circle cx="507.785" cy="207.783" r="15.3861" fill="white" fill-opacity="0.02"/>
<circle cx="507.785" cy="390.218" r="15.3861" fill="white" fill-opacity="0.02"/>
<circle cx="507.785" cy="390.218" r="15.3861" fill="white" fill-opacity="0.02"/>
<circle cx="690.214" cy="207.783" r="15.3861" fill="white" fill-opacity="0.02"/>
<circle cx="690.214" cy="207.783" r="15.3861" fill="white" fill-opacity="0.02"/>
<circle cx="690.214" cy="390.218" r="15.3861" fill="white" fill-opacity="0.02"/>
<circle cx="690.214" cy="390.218" r="15.3861" fill="white" fill-opacity="0.02"/>
<path d="M830.997 49.9996C831.034 70.154 810.377 97.2571 810.377 97.2571C810.377 97.2571 789.272 70.2373 789.234 49.9996C789.197 29.8038 810.116 2.74219 810.116 2.74219C810.116 2.74219 830.959 29.8038 830.997 49.9996Z" fill="white" fill-opacity="0.02"/>
<path d="M830.997 49.9996C831.034 70.154 810.377 97.2571 810.377 97.2571C810.377 97.2571 789.272 70.2373 789.234 49.9996C789.197 29.8038 810.116 2.74219 810.116 2.74219C810.116 2.74219 830.959 29.8038 830.997 49.9996Z" fill="white" fill-opacity="0.02"/>
<path d="M720 163.198C699.846 163.235 672.743 142.578 672.743 142.578C672.743 142.578 699.763 121.473 720 121.436C740.196 121.398 767.258 142.317 767.258 142.317C767.258 142.317 740.196 163.16 720 163.198Z" fill="white" fill-opacity="0.02"/>
<path d="M720 163.198C699.846 163.235 672.743 142.578 672.743 142.578C672.743 142.578 699.763 121.473 720 121.436C740.196 121.398 767.258 142.317 767.258 142.317C767.258 142.317 740.196 163.16 720 163.198Z" fill="white" fill-opacity="0.02"/>
<path d="M650.762 49.9996C650.8 70.154 630.142 97.2571 630.142 97.2571C630.142 97.2571 609.037 70.2373 609 49.9996C608.963 29.8038 629.881 2.74219 629.881 2.74219C629.881 2.74219 650.725 29.8038 650.762 49.9996Z" fill="white" fill-opacity="0.02"/>
<path d="M650.762 49.9996C650.8 70.154 630.142 97.2571 630.142 97.2571C630.142 97.2571 609.037 70.2373 609 49.9996C608.963 29.8038 629.881 2.74219 629.881 2.74219C629.881 2.74219 650.725 29.8038 650.762 49.9996Z" fill="white" fill-opacity="0.02"/>
<path d="M771.723 27.9854C757.751 42.0369 724.467 46.4664 724.467 46.4664C724.467 46.4664 728.461 12.9194 742.49 -1.1899C756.491 -15.27 789.929 -19.4885 789.929 -19.4885C789.929 -19.4885 785.723 13.905 771.723 27.9854Z" fill="white" fill-opacity="0.02"/>
<path d="M771.723 27.9854C757.751 42.0369 724.467 46.4664 724.467 46.4664C724.467 46.4664 728.461 12.9194 742.49 -1.1899C756.491 -15.27 789.929 -19.4885 789.929 -19.4885C789.929 -19.4885 785.723 13.905 771.723 27.9854Z" fill="white" fill-opacity="0.02"/>
<path d="M741.997 102.212C728.018 88.1678 723.762 54.8614 723.762 54.8614C723.762 54.8614 757.288 59.0293 771.324 73.1323C785.331 87.206 789.376 120.665 789.376 120.665C789.376 120.665 756.004 116.286 741.997 102.212Z" fill="white" fill-opacity="0.02"/>
<path d="M741.997 102.212C728.018 88.1678 723.762 54.8614 723.762 54.8614C723.762 54.8614 757.288 59.0293 771.324 73.1323C785.331 87.206 789.376 120.665 789.376 120.665C789.376 120.665 756.004 116.286 741.997 102.212Z" fill="white" fill-opacity="0.02"/>
<path d="M697.387 101.81C683.415 115.861 650.131 120.291 650.131 120.291C650.131 120.291 654.125 86.7437 668.154 72.6343C682.155 58.5542 715.593 54.3357 715.593 54.3357C715.593 54.3357 711.387 87.7292 697.387 101.81Z" fill="white" fill-opacity="0.02"/>
<path d="M697.387 101.81C683.415 115.861 650.131 120.291 650.131 120.291C650.131 120.291 654.125 86.7437 668.154 72.6343C682.155 58.5542 715.593 54.3357 715.593 54.3357C715.593 54.3357 711.387 87.7292 697.387 101.81Z" fill="white" fill-opacity="0.02"/>
<path d="M668.56 27.4878C654.581 13.4432 650.325 -19.8632 650.325 -19.8632C650.325 -19.8632 683.85 -15.6953 697.886 -1.59234C711.894 12.4814 715.938 45.9405 715.938 45.9405C715.938 45.9405 682.567 41.5613 668.56 27.4878Z" fill="white" fill-opacity="0.02"/>
<path d="M668.56 27.4878C654.581 13.4432 650.325 -19.8632 650.325 -19.8632C650.325 -19.8632 683.85 -15.6953 697.886 -1.59234C711.894 12.4814 715.938 45.9405 715.938 45.9405C715.938 45.9405 682.567 41.5613 668.56 27.4878Z" fill="white" fill-opacity="0.02"/>
<circle cx="628.785" cy="141.218" r="15.3861" fill="white" fill-opacity="0.02"/>
<circle cx="628.785" cy="141.218" r="15.3861" fill="white" fill-opacity="0.02"/>
<circle cx="811.222" cy="141.218" r="15.3861" fill="white" fill-opacity="0.02"/>
<circle cx="811.222" cy="141.218" r="15.3861" fill="white" fill-opacity="0.02"/>
<path d="M830.997 548C831.034 568.154 810.377 595.257 810.377 595.257C810.377 595.257 789.272 568.237 789.234 548C789.197 527.804 810.116 500.742 810.116 500.742C810.116 500.742 830.959 527.804 830.997 548Z" fill="white" fill-opacity="0.02"/>
<path d="M830.997 548C831.034 568.154 810.377 595.257 810.377 595.257C810.377 595.257 789.272 568.237 789.234 548C789.197 527.804 810.116 500.742 810.116 500.742C810.116 500.742 830.959 527.804 830.997 548Z" fill="white" fill-opacity="0.02"/>
<path d="M650.762 548C650.8 568.154 630.142 595.257 630.142 595.257C630.142 595.257 609.037 568.237 609 548C608.963 527.804 629.881 500.742 629.881 500.742C629.881 500.742 650.725 527.804 650.762 548Z" fill="white" fill-opacity="0.02"/>
<path d="M650.762 548C650.8 568.154 630.142 595.257 630.142 595.257C630.142 595.257 609.037 568.237 609 548C608.963 527.804 629.881 500.742 629.881 500.742C629.881 500.742 650.725 527.804 650.762 548Z" fill="white" fill-opacity="0.02"/>
<path d="M720 478.762C699.846 478.8 672.743 458.142 672.743 458.142C672.743 458.142 699.763 437.037 720 437C740.196 436.963 767.258 457.881 767.258 457.881C767.258 457.881 740.196 478.725 720 478.762Z" fill="white" fill-opacity="0.02"/>
<path d="M720 478.762C699.846 478.8 672.743 458.142 672.743 458.142C672.743 458.142 699.763 437.037 720 437C740.196 436.963 767.258 457.881 767.258 457.881C767.258 457.881 740.196 478.725 720 478.762Z" fill="white" fill-opacity="0.02"/>
<path d="M771.723 525.985C757.751 540.037 724.467 544.466 724.467 544.466C724.467 544.466 728.461 510.919 742.49 496.81C756.491 482.73 789.929 478.511 789.929 478.511C789.929 478.511 785.723 511.905 771.723 525.985Z" fill="white" fill-opacity="0.02"/>
<path d="M771.723 525.985C757.751 540.037 724.467 544.466 724.467 544.466C724.467 544.466 728.461 510.919 742.49 496.81C756.491 482.73 789.929 478.511 789.929 478.511C789.929 478.511 785.723 511.905 771.723 525.985Z" fill="white" fill-opacity="0.02"/>
<path d="M741.997 600.212C728.018 586.168 723.762 552.861 723.762 552.861C723.762 552.861 757.288 557.029 771.324 571.132C785.331 585.206 789.376 618.665 789.376 618.665C789.376 618.665 756.004 614.286 741.997 600.212Z" fill="white" fill-opacity="0.02"/>
<path d="M741.997 600.212C728.018 586.168 723.762 552.861 723.762 552.861C723.762 552.861 757.288 557.029 771.324 571.132C785.331 585.206 789.376 618.665 789.376 618.665C789.376 618.665 756.004 614.286 741.997 600.212Z" fill="white" fill-opacity="0.02"/>
<path d="M697.387 599.81C683.415 613.861 650.131 618.291 650.131 618.291C650.131 618.291 654.125 584.744 668.154 570.634C682.155 556.554 715.593 552.336 715.593 552.336C715.593 552.336 711.387 585.729 697.387 599.81Z" fill="white" fill-opacity="0.02"/>
<path d="M697.387 599.81C683.415 613.861 650.131 618.291 650.131 618.291C650.131 618.291 654.125 584.744 668.154 570.634C682.155 556.554 715.593 552.336 715.593 552.336C715.593 552.336 711.387 585.729 697.387 599.81Z" fill="white" fill-opacity="0.02"/>
<path d="M668.56 525.488C654.581 511.443 650.325 478.137 650.325 478.137C650.325 478.137 683.85 482.305 697.886 496.408C711.894 510.481 715.938 543.94 715.938 543.94C715.938 543.94 682.567 539.561 668.56 525.488Z" fill="white" fill-opacity="0.02"/>
<path d="M668.56 525.488C654.581 511.443 650.325 478.137 650.325 478.137C650.325 478.137 683.85 482.305 697.886 496.408C711.894 510.481 715.938 543.94 715.938 543.94C715.938 543.94 682.567 539.561 668.56 525.488Z" fill="white" fill-opacity="0.02"/>
<circle cx="628.785" cy="456.783" r="15.3861" fill="white" fill-opacity="0.02"/>
<circle cx="628.785" cy="456.783" r="15.3861" fill="white" fill-opacity="0.02"/>
<circle cx="811.222" cy="456.783" r="15.3861" fill="white" fill-opacity="0.02"/>
<circle cx="811.222" cy="456.783" r="15.3861" fill="white" fill-opacity="0.02"/>
<path d="M951.997 299C952.034 319.154 931.377 346.257 931.377 346.257C931.377 346.257 910.272 319.237 910.234 299C910.197 278.804 931.116 251.742 931.116 251.742C931.116 251.742 951.959 278.804 951.997 299Z" fill="white" fill-opacity="0.01"/>
<path d="M951.997 299C952.034 319.154 931.377 346.257 931.377 346.257C931.377 346.257 910.272 319.237 910.234 299C910.197 278.804 931.116 251.742 931.116 251.742C931.116 251.742 951.959 278.804 951.997 299Z" fill="white" fill-opacity="0.01"/>
<path d="M841 412.198C820.846 412.235 793.743 391.578 793.743 391.578C793.743 391.578 820.763 370.473 841 370.436C861.196 370.398 888.258 391.317 888.258 391.317C888.258 391.317 861.196 412.16 841 412.198Z" fill="white" fill-opacity="0.01"/>
<path d="M841 412.198C820.846 412.235 793.743 391.578 793.743 391.578C793.743 391.578 820.763 370.473 841 370.436C861.196 370.398 888.258 391.317 888.258 391.317C888.258 391.317 861.196 412.16 841 412.198Z" fill="white" fill-opacity="0.01"/>
<path d="M771.762 299C771.8 319.154 751.142 346.257 751.142 346.257C751.142 346.257 730.037 319.237 730 299C729.963 278.804 750.881 251.742 750.881 251.742C750.881 251.742 771.725 278.804 771.762 299Z" fill="white" fill-opacity="0.01"/>
<path d="M771.762 299C771.8 319.154 751.142 346.257 751.142 346.257C751.142 346.257 730.037 319.237 730 299C729.963 278.804 750.881 251.742 750.881 251.742C750.881 251.742 771.725 278.804 771.762 299Z" fill="white" fill-opacity="0.01"/>
<path d="M841 229.762C820.846 229.8 793.743 209.142 793.743 209.142C793.743 209.142 820.763 188.037 841 188C861.196 187.963 888.258 208.881 888.258 208.881C888.258 208.881 861.196 229.725 841 229.762Z" fill="white" fill-opacity="0.01"/>
<path d="M841 229.762C820.846 229.8 793.743 209.142 793.743 209.142C793.743 209.142 820.763 188.037 841 188C861.196 187.963 888.258 208.881 888.258 208.881C888.258 208.881 861.196 229.725 841 229.762Z" fill="white" fill-opacity="0.01"/>
<path d="M892.723 276.985C878.751 291.037 845.467 295.466 845.467 295.466C845.467 295.466 849.461 261.919 863.49 247.81C877.491 233.73 910.929 229.511 910.929 229.511C910.929 229.511 906.723 262.905 892.723 276.985Z" fill="white" fill-opacity="0.01"/>
<path d="M892.723 276.985C878.751 291.037 845.467 295.466 845.467 295.466C845.467 295.466 849.461 261.919 863.49 247.81C877.491 233.73 910.929 229.511 910.929 229.511C910.929 229.511 906.723 262.905 892.723 276.985Z" fill="white" fill-opacity="0.01"/>
<path d="M862.997 351.212C849.018 337.168 844.762 303.861 844.762 303.861C844.762 303.861 878.288 308.029 892.324 322.132C906.331 336.206 910.376 369.665 910.376 369.665C910.376 369.665 877.004 365.286 862.997 351.212Z" fill="white" fill-opacity="0.01"/>
<path d="M862.997 351.212C849.018 337.168 844.762 303.861 844.762 303.861C844.762 303.861 878.288 308.029 892.324 322.132C906.331 336.206 910.376 369.665 910.376 369.665C910.376 369.665 877.004 365.286 862.997 351.212Z" fill="white" fill-opacity="0.01"/>
<path d="M818.387 350.81C804.415 364.861 771.131 369.291 771.131 369.291C771.131 369.291 775.125 335.744 789.154 321.634C803.155 307.554 836.593 303.336 836.593 303.336C836.593 303.336 832.387 336.729 818.387 350.81Z" fill="white" fill-opacity="0.01"/>
<path d="M818.387 350.81C804.415 364.861 771.131 369.291 771.131 369.291C771.131 369.291 775.125 335.744 789.154 321.634C803.155 307.554 836.593 303.336 836.593 303.336C836.593 303.336 832.387 336.729 818.387 350.81Z" fill="white" fill-opacity="0.01"/>
<path d="M789.552 276.488C775.573 262.443 771.317 229.137 771.317 229.137C771.317 229.137 804.842 233.305 818.879 247.408C832.886 261.481 836.93 294.94 836.93 294.94C836.93 294.94 803.559 290.561 789.552 276.488Z" fill="white" fill-opacity="0.01"/>
<path d="M789.552 276.488C775.573 262.443 771.317 229.137 771.317 229.137C771.317 229.137 804.842 233.305 818.879 247.408C832.886 261.481 836.93 294.94 836.93 294.94C836.93 294.94 803.559 290.561 789.552 276.488Z" fill="white" fill-opacity="0.01"/>
<circle cx="749.785" cy="207.783" r="15.3861" fill="white" fill-opacity="0.01"/>
<circle cx="749.785" cy="207.783" r="15.3861" fill="white" fill-opacity="0.01"/>
<circle cx="749.785" cy="390.218" r="15.3861" fill="white" fill-opacity="0.01"/>
<circle cx="749.785" cy="390.218" r="15.3861" fill="white" fill-opacity="0.01"/>
<circle cx="932.214" cy="207.783" r="15.3861" fill="white" fill-opacity="0.01"/>
<circle cx="932.214" cy="207.783" r="15.3861" fill="white" fill-opacity="0.01"/>
<circle cx="932.214" cy="390.218" r="15.3861" fill="white" fill-opacity="0.01"/>
<circle cx="932.214" cy="390.218" r="15.3861" fill="white" fill-opacity="0.01"/>
<path d="M1073 49.9996C1073.03 70.154 1052.38 97.2571 1052.38 97.2571C1052.38 97.2571 1031.27 70.2373 1031.23 49.9996C1031.2 29.8038 1052.12 2.74219 1052.12 2.74219C1052.12 2.74219 1072.96 29.8038 1073 49.9996Z" fill="white" fill-opacity="0.01"/>
<path d="M1073 49.9996C1073.03 70.154 1052.38 97.2571 1052.38 97.2571C1052.38 97.2571 1031.27 70.2373 1031.23 49.9996C1031.2 29.8038 1052.12 2.74219 1052.12 2.74219C1052.12 2.74219 1072.96 29.8038 1073 49.9996Z" fill="white" fill-opacity="0.01"/>
<path d="M962 163.198C941.846 163.235 914.743 142.578 914.743 142.578C914.743 142.578 941.763 121.473 962 121.436C982.196 121.398 1009.26 142.317 1009.26 142.317C1009.26 142.317 982.196 163.16 962 163.198Z" fill="white" fill-opacity="0.01"/>
<path d="M962 163.198C941.846 163.235 914.743 142.578 914.743 142.578C914.743 142.578 941.763 121.473 962 121.436C982.196 121.398 1009.26 142.317 1009.26 142.317C1009.26 142.317 982.196 163.16 962 163.198Z" fill="white" fill-opacity="0.01"/>
<path d="M892.762 49.9996C892.8 70.154 872.142 97.2571 872.142 97.2571C872.142 97.2571 851.037 70.2373 851 49.9996C850.963 29.8038 871.881 2.74219 871.881 2.74219C871.881 2.74219 892.725 29.8038 892.762 49.9996Z" fill="white" fill-opacity="0.01"/>
<path d="M892.762 49.9996C892.8 70.154 872.142 97.2571 872.142 97.2571C872.142 97.2571 851.037 70.2373 851 49.9996C850.963 29.8038 871.881 2.74219 871.881 2.74219C871.881 2.74219 892.725 29.8038 892.762 49.9996Z" fill="white" fill-opacity="0.01"/>
<path d="M1013.72 27.9854C999.751 42.0369 966.467 46.4664 966.467 46.4664C966.467 46.4664 970.461 12.9194 984.49 -1.1899C998.491 -15.27 1031.93 -19.4885 1031.93 -19.4885C1031.93 -19.4885 1027.72 13.905 1013.72 27.9854Z" fill="white" fill-opacity="0.01"/>
<path d="M1013.72 27.9854C999.751 42.0369 966.467 46.4664 966.467 46.4664C966.467 46.4664 970.461 12.9194 984.49 -1.1899C998.491 -15.27 1031.93 -19.4885 1031.93 -19.4885C1031.93 -19.4885 1027.72 13.905 1013.72 27.9854Z" fill="white" fill-opacity="0.01"/>
<path d="M983.997 102.212C970.018 88.1678 965.762 54.8614 965.762 54.8614C965.762 54.8614 999.288 59.0293 1013.32 73.1323C1027.33 87.206 1031.38 120.665 1031.38 120.665C1031.38 120.665 998.004 116.286 983.997 102.212Z" fill="white" fill-opacity="0.01"/>
<path d="M983.997 102.212C970.018 88.1678 965.762 54.8614 965.762 54.8614C965.762 54.8614 999.288 59.0293 1013.32 73.1323C1027.33 87.206 1031.38 120.665 1031.38 120.665C1031.38 120.665 998.004 116.286 983.997 102.212Z" fill="white" fill-opacity="0.01"/>
<path d="M939.387 101.81C925.415 115.861 892.131 120.291 892.131 120.291C892.131 120.291 896.125 86.7437 910.154 72.6343C924.155 58.5542 957.593 54.3357 957.593 54.3357C957.593 54.3357 953.387 87.7292 939.387 101.81Z" fill="white" fill-opacity="0.01"/>
<path d="M939.387 101.81C925.415 115.861 892.131 120.291 892.131 120.291C892.131 120.291 896.125 86.7437 910.154 72.6343C924.155 58.5542 957.593 54.3357 957.593 54.3357C957.593 54.3357 953.387 87.7292 939.387 101.81Z" fill="white" fill-opacity="0.01"/>
<path d="M910.56 27.4878C896.581 13.4432 892.325 -19.8632 892.325 -19.8632C892.325 -19.8632 925.85 -15.6953 939.886 -1.59234C953.894 12.4814 957.938 45.9405 957.938 45.9405C957.938 45.9405 924.567 41.5613 910.56 27.4878Z" fill="white" fill-opacity="0.01"/>
<path d="M910.56 27.4878C896.581 13.4432 892.325 -19.8632 892.325 -19.8632C892.325 -19.8632 925.85 -15.6953 939.886 -1.59234C953.894 12.4814 957.938 45.9405 957.938 45.9405C957.938 45.9405 924.567 41.5613 910.56 27.4878Z" fill="white" fill-opacity="0.01"/>
<circle cx="870.785" cy="141.218" r="15.3861" fill="white" fill-opacity="0.01"/>
<circle cx="870.785" cy="141.218" r="15.3861" fill="white" fill-opacity="0.01"/>
<circle cx="1053.22" cy="141.218" r="15.3861" fill="white" fill-opacity="0.01"/>
<circle cx="1053.22" cy="141.218" r="15.3861" fill="white" fill-opacity="0.01"/>
<path d="M1073 548C1073.03 568.154 1052.38 595.257 1052.38 595.257C1052.38 595.257 1031.27 568.237 1031.23 548C1031.2 527.804 1052.12 500.742 1052.12 500.742C1052.12 500.742 1072.96 527.804 1073 548Z" fill="white" fill-opacity="0.01"/>
<path d="M1073 548C1073.03 568.154 1052.38 595.257 1052.38 595.257C1052.38 595.257 1031.27 568.237 1031.23 548C1031.2 527.804 1052.12 500.742 1052.12 500.742C1052.12 500.742 1072.96 527.804 1073 548Z" fill="white" fill-opacity="0.01"/>
<path d="M892.762 548C892.8 568.154 872.142 595.257 872.142 595.257C872.142 595.257 851.037 568.237 851 548C850.963 527.804 871.881 500.742 871.881 500.742C871.881 500.742 892.725 527.804 892.762 548Z" fill="white" fill-opacity="0.01"/>
<path d="M892.762 548C892.8 568.154 872.142 595.257 872.142 595.257C872.142 595.257 851.037 568.237 851 548C850.963 527.804 871.881 500.742 871.881 500.742C871.881 500.742 892.725 527.804 892.762 548Z" fill="white" fill-opacity="0.01"/>
<path d="M962 478.762C941.846 478.8 914.743 458.142 914.743 458.142C914.743 458.142 941.763 437.037 962 437C982.196 436.963 1009.26 457.881 1009.26 457.881C1009.26 457.881 982.196 478.725 962 478.762Z" fill="white" fill-opacity="0.01"/>
<path d="M962 478.762C941.846 478.8 914.743 458.142 914.743 458.142C914.743 458.142 941.763 437.037 962 437C982.196 436.963 1009.26 457.881 1009.26 457.881C1009.26 457.881 982.196 478.725 962 478.762Z" fill="white" fill-opacity="0.01"/>
<path d="M1013.72 525.985C999.751 540.037 966.467 544.466 966.467 544.466C966.467 544.466 970.461 510.919 984.49 496.81C998.491 482.73 1031.93 478.511 1031.93 478.511C1031.93 478.511 1027.72 511.905 1013.72 525.985Z" fill="white" fill-opacity="0.01"/>
<path d="M1013.72 525.985C999.751 540.037 966.467 544.466 966.467 544.466C966.467 544.466 970.461 510.919 984.49 496.81C998.491 482.73 1031.93 478.511 1031.93 478.511C1031.93 478.511 1027.72 511.905 1013.72 525.985Z" fill="white" fill-opacity="0.01"/>
<path d="M983.997 600.212C970.018 586.168 965.762 552.861 965.762 552.861C965.762 552.861 999.288 557.029 1013.32 571.132C1027.33 585.206 1031.38 618.665 1031.38 618.665C1031.38 618.665 998.004 614.286 983.997 600.212Z" fill="white" fill-opacity="0.01"/>
<path d="M983.997 600.212C970.018 586.168 965.762 552.861 965.762 552.861C965.762 552.861 999.288 557.029 1013.32 571.132C1027.33 585.206 1031.38 618.665 1031.38 618.665C1031.38 618.665 998.004 614.286 983.997 600.212Z" fill="white" fill-opacity="0.01"/>
<path d="M939.387 599.81C925.415 613.861 892.131 618.291 892.131 618.291C892.131 618.291 896.125 584.744 910.154 570.634C924.155 556.554 957.593 552.336 957.593 552.336C957.593 552.336 953.387 585.729 939.387 599.81Z" fill="white" fill-opacity="0.01"/>
<path d="M939.387 599.81C925.415 613.861 892.131 618.291 892.131 618.291C892.131 618.291 896.125 584.744 910.154 570.634C924.155 556.554 957.593 552.336 957.593 552.336C957.593 552.336 953.387 585.729 939.387 599.81Z" fill="white" fill-opacity="0.01"/>
<path d="M910.56 525.488C896.581 511.443 892.325 478.137 892.325 478.137C892.325 478.137 925.85 482.305 939.886 496.408C953.894 510.481 957.938 543.94 957.938 543.94C957.938 543.94 924.567 539.561 910.56 525.488Z" fill="white" fill-opacity="0.01"/>
<path d="M910.56 525.488C896.581 511.443 892.325 478.137 892.325 478.137C892.325 478.137 925.85 482.305 939.886 496.408C953.894 510.481 957.938 543.94 957.938 543.94C957.938 543.94 924.567 539.561 910.56 525.488Z" fill="white" fill-opacity="0.01"/>
<circle cx="870.785" cy="456.783" r="15.3861" fill="white" fill-opacity="0.01"/>
<circle cx="870.785" cy="456.783" r="15.3861" fill="white" fill-opacity="0.01"/>
<circle cx="1053.22" cy="456.783" r="15.3861" fill="white" fill-opacity="0.01"/>
<circle cx="1053.22" cy="456.783" r="15.3861" fill="white" fill-opacity="0.01"/>
<path d="M1194 299C1194.03 319.154 1173.38 346.257 1173.38 346.257C1173.38 346.257 1152.27 319.237 1152.23 299C1152.2 278.804 1173.12 251.742 1173.12 251.742C1173.12 251.742 1193.96 278.804 1194 299Z" fill="white" fill-opacity="0.02"/>
<path d="M1194 299C1194.03 319.154 1173.38 346.257 1173.38 346.257C1173.38 346.257 1152.27 319.237 1152.23 299C1152.2 278.804 1173.12 251.742 1173.12 251.742C1173.12 251.742 1193.96 278.804 1194 299Z" fill="white" fill-opacity="0.02"/>
<path d="M1083 412.198C1062.85 412.235 1035.74 391.578 1035.74 391.578C1035.74 391.578 1062.76 370.473 1083 370.436C1103.2 370.398 1130.26 391.317 1130.26 391.317C1130.26 391.317 1103.2 412.16 1083 412.198Z" fill="white" fill-opacity="0.02"/>
<path d="M1083 412.198C1062.85 412.235 1035.74 391.578 1035.74 391.578C1035.74 391.578 1062.76 370.473 1083 370.436C1103.2 370.398 1130.26 391.317 1130.26 391.317C1130.26 391.317 1103.2 412.16 1083 412.198Z" fill="white" fill-opacity="0.02"/>
<path d="M1013.76 299C1013.8 319.154 993.142 346.257 993.142 346.257C993.142 346.257 972.037 319.237 972 299C971.963 278.804 992.881 251.742 992.881 251.742C992.881 251.742 1013.72 278.804 1013.76 299Z" fill="white" fill-opacity="0.02"/>
<path d="M1013.76 299C1013.8 319.154 993.142 346.257 993.142 346.257C993.142 346.257 972.037 319.237 972 299C971.963 278.804 992.881 251.742 992.881 251.742C992.881 251.742 1013.72 278.804 1013.76 299Z" fill="white" fill-opacity="0.02"/>
<path d="M1083 229.762C1062.85 229.8 1035.74 209.142 1035.74 209.142C1035.74 209.142 1062.76 188.037 1083 188C1103.2 187.963 1130.26 208.881 1130.26 208.881C1130.26 208.881 1103.2 229.725 1083 229.762Z" fill="white" fill-opacity="0.02"/>
<path d="M1083 229.762C1062.85 229.8 1035.74 209.142 1035.74 209.142C1035.74 209.142 1062.76 188.037 1083 188C1103.2 187.963 1130.26 208.881 1130.26 208.881C1130.26 208.881 1103.2 229.725 1083 229.762Z" fill="white" fill-opacity="0.02"/>
<path d="M1134.72 276.985C1120.75 291.037 1087.47 295.466 1087.47 295.466C1087.47 295.466 1091.46 261.919 1105.49 247.81C1119.49 233.73 1152.93 229.511 1152.93 229.511C1152.93 229.511 1148.72 262.905 1134.72 276.985Z" fill="white" fill-opacity="0.02"/>
<path d="M1134.72 276.985C1120.75 291.037 1087.47 295.466 1087.47 295.466C1087.47 295.466 1091.46 261.919 1105.49 247.81C1119.49 233.73 1152.93 229.511 1152.93 229.511C1152.93 229.511 1148.72 262.905 1134.72 276.985Z" fill="white" fill-opacity="0.02"/>
<path d="M1105 351.212C1091.02 337.168 1086.76 303.861 1086.76 303.861C1086.76 303.861 1120.29 308.029 1134.32 322.132C1148.33 336.206 1152.38 369.665 1152.38 369.665C1152.38 369.665 1119 365.286 1105 351.212Z" fill="white" fill-opacity="0.02"/>
<path d="M1105 351.212C1091.02 337.168 1086.76 303.861 1086.76 303.861C1086.76 303.861 1120.29 308.029 1134.32 322.132C1148.33 336.206 1152.38 369.665 1152.38 369.665C1152.38 369.665 1119 365.286 1105 351.212Z" fill="white" fill-opacity="0.02"/>
<path d="M1060.39 350.81C1046.41 364.861 1013.13 369.291 1013.13 369.291C1013.13 369.291 1017.12 335.744 1031.15 321.634C1045.16 307.554 1078.59 303.336 1078.59 303.336C1078.59 303.336 1074.39 336.729 1060.39 350.81Z" fill="white" fill-opacity="0.02"/>
<path d="M1060.39 350.81C1046.41 364.861 1013.13 369.291 1013.13 369.291C1013.13 369.291 1017.12 335.744 1031.15 321.634C1045.16 307.554 1078.59 303.336 1078.59 303.336C1078.59 303.336 1074.39 336.729 1060.39 350.81Z" fill="white" fill-opacity="0.02"/>
<path d="M1031.55 276.488C1017.57 262.443 1013.32 229.137 1013.32 229.137C1013.32 229.137 1046.84 233.305 1060.88 247.408C1074.89 261.481 1078.93 294.94 1078.93 294.94C1078.93 294.94 1045.56 290.561 1031.55 276.488Z" fill="white" fill-opacity="0.02"/>
<path d="M1031.55 276.488C1017.57 262.443 1013.32 229.137 1013.32 229.137C1013.32 229.137 1046.84 233.305 1060.88 247.408C1074.89 261.481 1078.93 294.94 1078.93 294.94C1078.93 294.94 1045.56 290.561 1031.55 276.488Z" fill="white" fill-opacity="0.02"/>
<circle cx="991.785" cy="207.783" r="15.3861" fill="white" fill-opacity="0.02"/>
<circle cx="991.785" cy="207.783" r="15.3861" fill="white" fill-opacity="0.02"/>
<circle cx="991.785" cy="390.218" r="15.3861" fill="white" fill-opacity="0.02"/>
<circle cx="991.785" cy="390.218" r="15.3861" fill="white" fill-opacity="0.02"/>
<circle cx="1174.21" cy="207.783" r="15.3861" fill="white" fill-opacity="0.02"/>
<circle cx="1174.21" cy="207.783" r="15.3861" fill="white" fill-opacity="0.02"/>
<circle cx="1174.21" cy="390.218" r="15.3861" fill="white" fill-opacity="0.02"/>
<circle cx="1174.21" cy="390.218" r="15.3861" fill="white" fill-opacity="0.02"/>
<path d="M1315 49.9996C1315.03 70.154 1294.38 97.2571 1294.38 97.2571C1294.38 97.2571 1273.27 70.2373 1273.23 49.9996C1273.2 29.8038 1294.12 2.74219 1294.12 2.74219C1294.12 2.74219 1314.96 29.8038 1315 49.9996Z" fill="white" fill-opacity="0.02"/>
<path d="M1315 49.9996C1315.03 70.154 1294.38 97.2571 1294.38 97.2571C1294.38 97.2571 1273.27 70.2373 1273.23 49.9996C1273.2 29.8038 1294.12 2.74219 1294.12 2.74219C1294.12 2.74219 1314.96 29.8038 1315 49.9996Z" fill="white" fill-opacity="0.02"/>
<path d="M1204 163.198C1183.85 163.235 1156.74 142.578 1156.74 142.578C1156.74 142.578 1183.76 121.473 1204 121.436C1224.2 121.398 1251.26 142.317 1251.26 142.317C1251.26 142.317 1224.2 163.16 1204 163.198Z" fill="white" fill-opacity="0.02"/>
<path d="M1204 163.198C1183.85 163.235 1156.74 142.578 1156.74 142.578C1156.74 142.578 1183.76 121.473 1204 121.436C1224.2 121.398 1251.26 142.317 1251.26 142.317C1251.26 142.317 1224.2 163.16 1204 163.198Z" fill="white" fill-opacity="0.02"/>
<path d="M1134.76 49.9996C1134.8 70.154 1114.14 97.2571 1114.14 97.2571C1114.14 97.2571 1093.04 70.2373 1093 49.9996C1092.96 29.8038 1113.88 2.74219 1113.88 2.74219C1113.88 2.74219 1134.72 29.8038 1134.76 49.9996Z" fill="white" fill-opacity="0.02"/>
<path d="M1134.76 49.9996C1134.8 70.154 1114.14 97.2571 1114.14 97.2571C1114.14 97.2571 1093.04 70.2373 1093 49.9996C1092.96 29.8038 1113.88 2.74219 1113.88 2.74219C1113.88 2.74219 1134.72 29.8038 1134.76 49.9996Z" fill="white" fill-opacity="0.02"/>
<path d="M1255.72 27.9854C1241.75 42.0369 1208.47 46.4664 1208.47 46.4664C1208.47 46.4664 1212.46 12.9194 1226.49 -1.1899C1240.49 -15.27 1273.93 -19.4885 1273.93 -19.4885C1273.93 -19.4885 1269.72 13.905 1255.72 27.9854Z" fill="white" fill-opacity="0.02"/>
<path d="M1255.72 27.9854C1241.75 42.0369 1208.47 46.4664 1208.47 46.4664C1208.47 46.4664 1212.46 12.9194 1226.49 -1.1899C1240.49 -15.27 1273.93 -19.4885 1273.93 -19.4885C1273.93 -19.4885 1269.72 13.905 1255.72 27.9854Z" fill="white" fill-opacity="0.02"/>
<path d="M1226 102.212C1212.02 88.1678 1207.76 54.8614 1207.76 54.8614C1207.76 54.8614 1241.29 59.0293 1255.32 73.1323C1269.33 87.206 1273.38 120.665 1273.38 120.665C1273.38 120.665 1240 116.286 1226 102.212Z" fill="white" fill-opacity="0.02"/>
<path d="M1226 102.212C1212.02 88.1678 1207.76 54.8614 1207.76 54.8614C1207.76 54.8614 1241.29 59.0293 1255.32 73.1323C1269.33 87.206 1273.38 120.665 1273.38 120.665C1273.38 120.665 1240 116.286 1226 102.212Z" fill="white" fill-opacity="0.02"/>
<path d="M1181.39 101.81C1167.41 115.861 1134.13 120.291 1134.13 120.291C1134.13 120.291 1138.12 86.7437 1152.15 72.6343C1166.16 58.5542 1199.59 54.3357 1199.59 54.3357C1199.59 54.3357 1195.39 87.7292 1181.39 101.81Z" fill="white" fill-opacity="0.02"/>
<path d="M1181.39 101.81C1167.41 115.861 1134.13 120.291 1134.13 120.291C1134.13 120.291 1138.12 86.7437 1152.15 72.6343C1166.16 58.5542 1199.59 54.3357 1199.59 54.3357C1199.59 54.3357 1195.39 87.7292 1181.39 101.81Z" fill="white" fill-opacity="0.02"/>
<path d="M1152.55 27.4878C1138.57 13.4432 1134.32 -19.8632 1134.32 -19.8632C1134.32 -19.8632 1167.84 -15.6953 1181.88 -1.59234C1195.89 12.4814 1199.93 45.9405 1199.93 45.9405C1199.93 45.9405 1166.56 41.5613 1152.55 27.4878Z" fill="white" fill-opacity="0.02"/>
<path d="M1152.55 27.4878C1138.57 13.4432 1134.32 -19.8632 1134.32 -19.8632C1134.32 -19.8632 1167.84 -15.6953 1181.88 -1.59234C1195.89 12.4814 1199.93 45.9405 1199.93 45.9405C1199.93 45.9405 1166.56 41.5613 1152.55 27.4878Z" fill="white" fill-opacity="0.02"/>
<circle cx="1112.78" cy="141.218" r="15.3861" fill="white" fill-opacity="0.02"/>
<circle cx="1112.78" cy="141.218" r="15.3861" fill="white" fill-opacity="0.02"/>
<circle cx="1295.21" cy="141.218" r="15.3861" fill="white" fill-opacity="0.02"/>
<circle cx="1295.21" cy="141.218" r="15.3861" fill="white" fill-opacity="0.02"/>
<path d="M1315 548C1315.03 568.154 1294.38 595.257 1294.38 595.257C1294.38 595.257 1273.27 568.237 1273.23 548C1273.2 527.804 1294.12 500.742 1294.12 500.742C1294.12 500.742 1314.96 527.804 1315 548Z" fill="white" fill-opacity="0.02"/>
<path d="M1315 548C1315.03 568.154 1294.38 595.257 1294.38 595.257C1294.38 595.257 1273.27 568.237 1273.23 548C1273.2 527.804 1294.12 500.742 1294.12 500.742C1294.12 500.742 1314.96 527.804 1315 548Z" fill="white" fill-opacity="0.02"/>
<path d="M1134.76 548C1134.8 568.154 1114.14 595.257 1114.14 595.257C1114.14 595.257 1093.04 568.237 1093 548C1092.96 527.804 1113.88 500.742 1113.88 500.742C1113.88 500.742 1134.72 527.804 1134.76 548Z" fill="white" fill-opacity="0.02"/>
<path d="M1134.76 548C1134.8 568.154 1114.14 595.257 1114.14 595.257C1114.14 595.257 1093.04 568.237 1093 548C1092.96 527.804 1113.88 500.742 1113.88 500.742C1113.88 500.742 1134.72 527.804 1134.76 548Z" fill="white" fill-opacity="0.02"/>
<path d="M1204 478.762C1183.85 478.8 1156.74 458.142 1156.74 458.142C1156.74 458.142 1183.76 437.037 1204 437C1224.2 436.963 1251.26 457.881 1251.26 457.881C1251.26 457.881 1224.2 478.725 1204 478.762Z" fill="white" fill-opacity="0.02"/>
<path d="M1204 478.762C1183.85 478.8 1156.74 458.142 1156.74 458.142C1156.74 458.142 1183.76 437.037 1204 437C1224.2 436.963 1251.26 457.881 1251.26 457.881C1251.26 457.881 1224.2 478.725 1204 478.762Z" fill="white" fill-opacity="0.02"/>
<path d="M1255.72 525.985C1241.75 540.037 1208.47 544.466 1208.47 544.466C1208.47 544.466 1212.46 510.919 1226.49 496.81C1240.49 482.73 1273.93 478.511 1273.93 478.511C1273.93 478.511 1269.72 511.905 1255.72 525.985Z" fill="white" fill-opacity="0.02"/>
<path d="M1255.72 525.985C1241.75 540.037 1208.47 544.466 1208.47 544.466C1208.47 544.466 1212.46 510.919 1226.49 496.81C1240.49 482.73 1273.93 478.511 1273.93 478.511C1273.93 478.511 1269.72 511.905 1255.72 525.985Z" fill="white" fill-opacity="0.02"/>
<path d="M1226 600.212C1212.02 586.168 1207.76 552.861 1207.76 552.861C1207.76 552.861 1241.29 557.029 1255.32 571.132C1269.33 585.206 1273.38 618.665 1273.38 618.665C1273.38 618.665 1240 614.286 1226 600.212Z" fill="white" fill-opacity="0.02"/>
<path d="M1226 600.212C1212.02 586.168 1207.76 552.861 1207.76 552.861C1207.76 552.861 1241.29 557.029 1255.32 571.132C1269.33 585.206 1273.38 618.665 1273.38 618.665C1273.38 618.665 1240 614.286 1226 600.212Z" fill="white" fill-opacity="0.02"/>
<path d="M1181.39 599.81C1167.41 613.861 1134.13 618.291 1134.13 618.291C1134.13 618.291 1138.12 584.744 1152.15 570.634C1166.16 556.554 1199.59 552.336 1199.59 552.336C1199.59 552.336 1195.39 585.729 1181.39 599.81Z" fill="white" fill-opacity="0.02"/>
<path d="M1181.39 599.81C1167.41 613.861 1134.13 618.291 1134.13 618.291C1134.13 618.291 1138.12 584.744 1152.15 570.634C1166.16 556.554 1199.59 552.336 1199.59 552.336C1199.59 552.336 1195.39 585.729 1181.39 599.81Z" fill="white" fill-opacity="0.02"/>
<path d="M1152.55 525.488C1138.57 511.443 1134.32 478.137 1134.32 478.137C1134.32 478.137 1167.84 482.305 1181.88 496.408C1195.89 510.481 1199.93 543.94 1199.93 543.94C1199.93 543.94 1166.56 539.561 1152.55 525.488Z" fill="white" fill-opacity="0.02"/>
<path d="M1152.55 525.488C1138.57 511.443 1134.32 478.137 1134.32 478.137C1134.32 478.137 1167.84 482.305 1181.88 496.408C1195.89 510.481 1199.93 543.94 1199.93 543.94C1199.93 543.94 1166.56 539.561 1152.55 525.488Z" fill="white" fill-opacity="0.02"/>
<circle cx="1112.78" cy="456.783" r="15.3861" fill="white" fill-opacity="0.02"/>
<circle cx="1112.78" cy="456.783" r="15.3861" fill="white" fill-opacity="0.02"/>
<circle cx="1295.21" cy="456.783" r="15.3861" fill="white" fill-opacity="0.02"/>
<circle cx="1295.21" cy="456.783" r="15.3861" fill="white" fill-opacity="0.02"/>
<path d="M1436 299C1436.03 319.154 1415.38 346.257 1415.38 346.257C1415.38 346.257 1394.27 319.237 1394.23 299C1394.2 278.804 1415.12 251.742 1415.12 251.742C1415.12 251.742 1435.96 278.804 1436 299Z" fill="white" fill-opacity="0.01"/>
<path d="M1436 299C1436.03 319.154 1415.38 346.257 1415.38 346.257C1415.38 346.257 1394.27 319.237 1394.23 299C1394.2 278.804 1415.12 251.742 1415.12 251.742C1415.12 251.742 1435.96 278.804 1436 299Z" fill="white" fill-opacity="0.01"/>
<path d="M1325 412.198C1304.85 412.235 1277.74 391.578 1277.74 391.578C1277.74 391.578 1304.76 370.473 1325 370.436C1345.2 370.398 1372.26 391.317 1372.26 391.317C1372.26 391.317 1345.2 412.16 1325 412.198Z" fill="white" fill-opacity="0.01"/>
<path d="M1325 412.198C1304.85 412.235 1277.74 391.578 1277.74 391.578C1277.74 391.578 1304.76 370.473 1325 370.436C1345.2 370.398 1372.26 391.317 1372.26 391.317C1372.26 391.317 1345.2 412.16 1325 412.198Z" fill="white" fill-opacity="0.01"/>
<path d="M1255.76 299C1255.8 319.154 1235.14 346.257 1235.14 346.257C1235.14 346.257 1214.04 319.237 1214 299C1213.96 278.804 1234.88 251.742 1234.88 251.742C1234.88 251.742 1255.72 278.804 1255.76 299Z" fill="white" fill-opacity="0.01"/>
<path d="M1255.76 299C1255.8 319.154 1235.14 346.257 1235.14 346.257C1235.14 346.257 1214.04 319.237 1214 299C1213.96 278.804 1234.88 251.742 1234.88 251.742C1234.88 251.742 1255.72 278.804 1255.76 299Z" fill="white" fill-opacity="0.01"/>
<path d="M1325 229.762C1304.85 229.8 1277.74 209.142 1277.74 209.142C1277.74 209.142 1304.76 188.037 1325 188C1345.2 187.963 1372.26 208.881 1372.26 208.881C1372.26 208.881 1345.2 229.725 1325 229.762Z" fill="white" fill-opacity="0.01"/>
<path d="M1325 229.762C1304.85 229.8 1277.74 209.142 1277.74 209.142C1277.74 209.142 1304.76 188.037 1325 188C1345.2 187.963 1372.26 208.881 1372.26 208.881C1372.26 208.881 1345.2 229.725 1325 229.762Z" fill="white" fill-opacity="0.01"/>
<path d="M1376.72 276.985C1362.75 291.037 1329.47 295.466 1329.47 295.466C1329.47 295.466 1333.46 261.919 1347.49 247.81C1361.49 233.73 1394.93 229.511 1394.93 229.511C1394.93 229.511 1390.72 262.905 1376.72 276.985Z" fill="white" fill-opacity="0.01"/>
<path d="M1376.72 276.985C1362.75 291.037 1329.47 295.466 1329.47 295.466C1329.47 295.466 1333.46 261.919 1347.49 247.81C1361.49 233.73 1394.93 229.511 1394.93 229.511C1394.93 229.511 1390.72 262.905 1376.72 276.985Z" fill="white" fill-opacity="0.01"/>
<path d="M1347 351.212C1333.02 337.168 1328.76 303.861 1328.76 303.861C1328.76 303.861 1362.29 308.029 1376.32 322.132C1390.33 336.206 1394.38 369.665 1394.38 369.665C1394.38 369.665 1361 365.286 1347 351.212Z" fill="white" fill-opacity="0.01"/>
<path d="M1347 351.212C1333.02 337.168 1328.76 303.861 1328.76 303.861C1328.76 303.861 1362.29 308.029 1376.32 322.132C1390.33 336.206 1394.38 369.665 1394.38 369.665C1394.38 369.665 1361 365.286 1347 351.212Z" fill="white" fill-opacity="0.01"/>
<path d="M1302.39 350.81C1288.41 364.861 1255.13 369.291 1255.13 369.291C1255.13 369.291 1259.12 335.744 1273.15 321.634C1287.16 307.554 1320.59 303.336 1320.59 303.336C1320.59 303.336 1316.39 336.729 1302.39 350.81Z" fill="white" fill-opacity="0.01"/>
<path d="M1302.39 350.81C1288.41 364.861 1255.13 369.291 1255.13 369.291C1255.13 369.291 1259.12 335.744 1273.15 321.634C1287.16 307.554 1320.59 303.336 1320.59 303.336C1320.59 303.336 1316.39 336.729 1302.39 350.81Z" fill="white" fill-opacity="0.01"/>
<path d="M1273.55 276.488C1259.57 262.443 1255.32 229.137 1255.32 229.137C1255.32 229.137 1288.84 233.305 1302.88 247.408C1316.89 261.481 1320.93 294.94 1320.93 294.94C1320.93 294.94 1287.56 290.561 1273.55 276.488Z" fill="white" fill-opacity="0.01"/>
<path d="M1273.55 276.488C1259.57 262.443 1255.32 229.137 1255.32 229.137C1255.32 229.137 1288.84 233.305 1302.88 247.408C1316.89 261.481 1320.93 294.94 1320.93 294.94C1320.93 294.94 1287.56 290.561 1273.55 276.488Z" fill="white" fill-opacity="0.01"/>
<circle cx="1233.78" cy="207.783" r="15.3861" fill="white" fill-opacity="0.01"/>
<circle cx="1233.78" cy="207.783" r="15.3861" fill="white" fill-opacity="0.01"/>
<circle cx="1233.78" cy="390.218" r="15.3861" fill="white" fill-opacity="0.01"/>
<circle cx="1233.78" cy="390.218" r="15.3861" fill="white" fill-opacity="0.01"/>
<circle cx="1416.21" cy="207.783" r="15.3861" fill="white" fill-opacity="0.01"/>
<circle cx="1416.21" cy="207.783" r="15.3861" fill="white" fill-opacity="0.01"/>
<circle cx="1416.21" cy="390.218" r="15.3861" fill="white" fill-opacity="0.01"/>
<circle cx="1416.21" cy="390.218" r="15.3861" fill="white" fill-opacity="0.01"/>
<path d="M1446 163.198C1425.85 163.235 1398.74 142.578 1398.74 142.578C1398.74 142.578 1425.76 121.473 1446 121.436C1466.2 121.398 1493.26 142.317 1493.26 142.317C1493.26 142.317 1466.2 163.16 1446 163.198Z" fill="white" fill-opacity="0.01"/>
<path d="M1446 163.198C1425.85 163.235 1398.74 142.578 1398.74 142.578C1398.74 142.578 1425.76 121.473 1446 121.436C1466.2 121.398 1493.26 142.317 1493.26 142.317C1493.26 142.317 1466.2 163.16 1446 163.198Z" fill="white" fill-opacity="0.01"/>
<path d="M1376.76 49.9996C1376.8 70.154 1356.14 97.2571 1356.14 97.2571C1356.14 97.2571 1335.04 70.2373 1335 49.9996C1334.96 29.8038 1355.88 2.74219 1355.88 2.74219C1355.88 2.74219 1376.72 29.8038 1376.76 49.9996Z" fill="white" fill-opacity="0.01"/>
<path d="M1376.76 49.9996C1376.8 70.154 1356.14 97.2571 1356.14 97.2571C1356.14 97.2571 1335.04 70.2373 1335 49.9996C1334.96 29.8038 1355.88 2.74219 1355.88 2.74219C1355.88 2.74219 1376.72 29.8038 1376.76 49.9996Z" fill="white" fill-opacity="0.01"/>
<path d="M1497.72 27.9854C1483.75 42.0369 1450.47 46.4664 1450.47 46.4664C1450.47 46.4664 1454.46 12.9194 1468.49 -1.1899C1482.49 -15.27 1515.93 -19.4885 1515.93 -19.4885C1515.93 -19.4885 1511.72 13.905 1497.72 27.9854Z" fill="white" fill-opacity="0.01"/>
<path d="M1497.72 27.9854C1483.75 42.0369 1450.47 46.4664 1450.47 46.4664C1450.47 46.4664 1454.46 12.9194 1468.49 -1.1899C1482.49 -15.27 1515.93 -19.4885 1515.93 -19.4885C1515.93 -19.4885 1511.72 13.905 1497.72 27.9854Z" fill="white" fill-opacity="0.01"/>
<path d="M1468 102.212C1454.02 88.1678 1449.76 54.8614 1449.76 54.8614C1449.76 54.8614 1483.29 59.0293 1497.32 73.1323C1511.33 87.206 1515.38 120.665 1515.38 120.665C1515.38 120.665 1482 116.286 1468 102.212Z" fill="white" fill-opacity="0.01"/>
<path d="M1468 102.212C1454.02 88.1678 1449.76 54.8614 1449.76 54.8614C1449.76 54.8614 1483.29 59.0293 1497.32 73.1323C1511.33 87.206 1515.38 120.665 1515.38 120.665C1515.38 120.665 1482 116.286 1468 102.212Z" fill="white" fill-opacity="0.01"/>
<path d="M1423.39 101.81C1409.41 115.861 1376.13 120.291 1376.13 120.291C1376.13 120.291 1380.12 86.7437 1394.15 72.6343C1408.16 58.5542 1441.59 54.3357 1441.59 54.3357C1441.59 54.3357 1437.39 87.7292 1423.39 101.81Z" fill="white" fill-opacity="0.01"/>
<path d="M1423.39 101.81C1409.41 115.861 1376.13 120.291 1376.13 120.291C1376.13 120.291 1380.12 86.7437 1394.15 72.6343C1408.16 58.5542 1441.59 54.3357 1441.59 54.3357C1441.59 54.3357 1437.39 87.7292 1423.39 101.81Z" fill="white" fill-opacity="0.01"/>
<path d="M1394.55 27.4878C1380.57 13.4432 1376.32 -19.8632 1376.32 -19.8632C1376.32 -19.8632 1409.84 -15.6953 1423.88 -1.59234C1437.89 12.4814 1441.93 45.9405 1441.93 45.9405C1441.93 45.9405 1408.56 41.5613 1394.55 27.4878Z" fill="white" fill-opacity="0.01"/>
<path d="M1394.55 27.4878C1380.57 13.4432 1376.32 -19.8632 1376.32 -19.8632C1376.32 -19.8632 1409.84 -15.6953 1423.88 -1.59234C1437.89 12.4814 1441.93 45.9405 1441.93 45.9405C1441.93 45.9405 1408.56 41.5613 1394.55 27.4878Z" fill="white" fill-opacity="0.01"/>
<circle cx="1354.78" cy="141.218" r="15.3861" fill="white" fill-opacity="0.01"/>
<circle cx="1354.78" cy="141.218" r="15.3861" fill="white" fill-opacity="0.01"/>
<path d="M1376.76 548C1376.8 568.154 1356.14 595.257 1356.14 595.257C1356.14 595.257 1335.04 568.237 1335 548C1334.96 527.804 1355.88 500.742 1355.88 500.742C1355.88 500.742 1376.72 527.804 1376.76 548Z" fill="white" fill-opacity="0.01"/>
<path d="M1376.76 548C1376.8 568.154 1356.14 595.257 1356.14 595.257C1356.14 595.257 1335.04 568.237 1335 548C1334.96 527.804 1355.88 500.742 1355.88 500.742C1355.88 500.742 1376.72 527.804 1376.76 548Z" fill="white" fill-opacity="0.01"/>
<path d="M1446 478.762C1425.85 478.8 1398.74 458.142 1398.74 458.142C1398.74 458.142 1425.76 437.037 1446 437C1466.2 436.963 1493.26 457.881 1493.26 457.881C1493.26 457.881 1466.2 478.725 1446 478.762Z" fill="white" fill-opacity="0.01"/>
<path d="M1446 478.762C1425.85 478.8 1398.74 458.142 1398.74 458.142C1398.74 458.142 1425.76 437.037 1446 437C1466.2 436.963 1493.26 457.881 1493.26 457.881C1493.26 457.881 1466.2 478.725 1446 478.762Z" fill="white" fill-opacity="0.01"/>
<path d="M1497.72 525.985C1483.75 540.037 1450.47 544.466 1450.47 544.466C1450.47 544.466 1454.46 510.919 1468.49 496.81C1482.49 482.73 1515.93 478.511 1515.93 478.511C1515.93 478.511 1511.72 511.905 1497.72 525.985Z" fill="white" fill-opacity="0.01"/>
<path d="M1497.72 525.985C1483.75 540.037 1450.47 544.466 1450.47 544.466C1450.47 544.466 1454.46 510.919 1468.49 496.81C1482.49 482.73 1515.93 478.511 1515.93 478.511C1515.93 478.511 1511.72 511.905 1497.72 525.985Z" fill="white" fill-opacity="0.01"/>
<path d="M1468 600.212C1454.02 586.168 1449.76 552.861 1449.76 552.861C1449.76 552.861 1483.29 557.029 1497.32 571.132C1511.33 585.206 1515.38 618.665 1515.38 618.665C1515.38 618.665 1482 614.286 1468 600.212Z" fill="white" fill-opacity="0.01"/>
<path d="M1468 600.212C1454.02 586.168 1449.76 552.861 1449.76 552.861C1449.76 552.861 1483.29 557.029 1497.32 571.132C1511.33 585.206 1515.38 618.665 1515.38 618.665C1515.38 618.665 1482 614.286 1468 600.212Z" fill="white" fill-opacity="0.01"/>
<path d="M1423.39 599.81C1409.41 613.861 1376.13 618.291 1376.13 618.291C1376.13 618.291 1380.12 584.744 1394.15 570.634C1408.16 556.554 1441.59 552.336 1441.59 552.336C1441.59 552.336 1437.39 585.729 1423.39 599.81Z" fill="white" fill-opacity="0.01"/>
<path d="M1423.39 599.81C1409.41 613.861 1376.13 618.291 1376.13 618.291C1376.13 618.291 1380.12 584.744 1394.15 570.634C1408.16 556.554 1441.59 552.336 1441.59 552.336C1441.59 552.336 1437.39 585.729 1423.39 599.81Z" fill="white" fill-opacity="0.01"/>
<path d="M1394.55 525.488C1380.57 511.443 1376.32 478.137 1376.32 478.137C1376.32 478.137 1409.84 482.305 1423.88 496.408C1437.89 510.481 1441.93 543.94 1441.93 543.94C1441.93 543.94 1408.56 539.561 1394.55 525.488Z" fill="white" fill-opacity="0.01"/>
<path d="M1394.55 525.488C1380.57 511.443 1376.32 478.137 1376.32 478.137C1376.32 478.137 1409.84 482.305 1423.88 496.408C1437.89 510.481 1441.93 543.94 1441.93 543.94C1441.93 543.94 1408.56 539.561 1394.55 525.488Z" fill="white" fill-opacity="0.01"/>
<circle cx="1354.78" cy="456.783" r="15.3861" fill="white" fill-opacity="0.01"/>
<circle cx="1354.78" cy="456.783" r="15.3861" fill="white" fill-opacity="0.01"/>
<path d="M104.997 49.9996C105.034 70.154 84.3766 97.2571 84.3766 97.2571C84.3766 97.2571 63.2716 70.2373 63.2344 49.9996C63.1972 29.8038 84.1156 2.74219 84.1156 2.74219C84.1156 2.74219 104.959 29.8038 104.997 49.9996Z" fill="white" fill-opacity="0.01"/>
<path d="M104.997 49.9996C105.034 70.154 84.3766 97.2571 84.3766 97.2571C84.3766 97.2571 63.2716 70.2373 63.2344 49.9996C63.1972 29.8038 84.1156 2.74219 84.1156 2.74219C84.1156 2.74219 104.959 29.8038 104.997 49.9996Z" fill="white" fill-opacity="0.01"/>
<path d="M-5.99964 163.198C-26.154 163.235 -53.2571 142.578 -53.2571 142.578C-53.2571 142.578 -26.2373 121.473 -5.99964 121.436C14.1962 121.398 41.2578 142.317 41.2578 142.317C41.2578 142.317 14.1962 163.16 -5.99964 163.198Z" fill="white" fill-opacity="0.01"/>
<path d="M-5.99964 163.198C-26.154 163.235 -53.2571 142.578 -53.2571 142.578C-53.2571 142.578 -26.2373 121.473 -5.99964 121.436C14.1962 121.398 41.2578 142.317 41.2578 142.317C41.2578 142.317 14.1962 163.16 -5.99964 163.198Z" fill="white" fill-opacity="0.01"/>
<path d="M45.7226 27.9854C31.7508 42.0369 -1.53303 46.4664 -1.53303 46.4664C-1.53303 46.4664 2.46054 12.9194 16.4903 -1.1899C30.4911 -15.27 63.9286 -19.4885 63.9286 -19.4885C63.9286 -19.4885 59.7231 13.905 45.7226 27.9854Z" fill="white" fill-opacity="0.01"/>
<path d="M45.7226 27.9854C31.7508 42.0369 -1.53303 46.4664 -1.53303 46.4664C-1.53303 46.4664 2.46054 12.9194 16.4903 -1.1899C30.4911 -15.27 63.9286 -19.4885 63.9286 -19.4885C63.9286 -19.4885 59.7231 13.905 45.7226 27.9854Z" fill="white" fill-opacity="0.01"/>
<path d="M15.997 102.212C2.01833 88.1678 -2.238 54.8614 -2.238 54.8614C-2.238 54.8614 31.2877 59.0293 45.3239 73.1323C59.3311 87.206 63.3756 120.665 63.3756 120.665C63.3756 120.665 30.0045 116.286 15.997 102.212Z" fill="white" fill-opacity="0.01"/>
<path d="M15.997 102.212C2.01833 88.1678 -2.238 54.8614 -2.238 54.8614C-2.238 54.8614 31.2877 59.0293 45.3239 73.1323C59.3311 87.206 63.3756 120.665 63.3756 120.665C63.3756 120.665 30.0045 116.286 15.997 102.212Z" fill="white" fill-opacity="0.01"/>
<path d="M-28.6134 101.81C-42.5851 115.861 -75.869 120.291 -75.869 120.291C-75.869 120.291 -71.8754 86.7437 -57.8456 72.6343C-43.8449 58.5542 -10.4073 54.3357 -10.4073 54.3357C-10.4073 54.3357 -14.6129 87.7292 -28.6134 101.81Z" fill="white" fill-opacity="0.01"/>
<path d="M-28.6134 101.81C-42.5851 115.861 -75.869 120.291 -75.869 120.291C-75.869 120.291 -71.8754 86.7437 -57.8456 72.6343C-43.8449 58.5542 -10.4073 54.3357 -10.4073 54.3357C-10.4073 54.3357 -14.6129 87.7292 -28.6134 101.81Z" fill="white" fill-opacity="0.01"/>
<path d="M-57.4483 27.4878C-71.427 13.4432 -75.6833 -19.8632 -75.6833 -19.8632C-75.6833 -19.8632 -42.1576 -15.6953 -28.1214 -1.59234C-14.1143 12.4814 -10.0697 45.9405 -10.0697 45.9405C-10.0697 45.9405 -43.4409 41.5613 -57.4483 27.4878Z" fill="white" fill-opacity="0.01"/>
<path d="M-57.4483 27.4878C-71.427 13.4432 -75.6833 -19.8632 -75.6833 -19.8632C-75.6833 -19.8632 -42.1576 -15.6953 -28.1214 -1.59234C-14.1143 12.4814 -10.0697 45.9405 -10.0697 45.9405C-10.0697 45.9405 -43.4409 41.5613 -57.4483 27.4878Z" fill="white" fill-opacity="0.01"/>
<circle cx="85.2143" cy="141.218" r="15.3861" fill="white" fill-opacity="0.01"/>
<circle cx="85.2143" cy="141.218" r="15.3861" fill="white" fill-opacity="0.01"/>
<path d="M104.997 548C105.034 568.154 84.3766 595.257 84.3766 595.257C84.3766 595.257 63.2716 568.237 63.2344 548C63.1972 527.804 84.1156 500.742 84.1156 500.742C84.1156 500.742 104.959 527.804 104.997 548Z" fill="white" fill-opacity="0.01"/>
<path d="M104.997 548C105.034 568.154 84.3766 595.257 84.3766 595.257C84.3766 595.257 63.2716 568.237 63.2344 548C63.1972 527.804 84.1156 500.742 84.1156 500.742C84.1156 500.742 104.959 527.804 104.997 548Z" fill="white" fill-opacity="0.01"/>
<path d="M-5.99964 478.762C-26.154 478.8 -53.2571 458.142 -53.2571 458.142C-53.2571 458.142 -26.2373 437.037 -5.99964 437C14.1962 436.963 41.2578 457.881 41.2578 457.881C41.2578 457.881 14.1962 478.725 -5.99964 478.762Z" fill="white" fill-opacity="0.01"/>
<path d="M-5.99964 478.762C-26.154 478.8 -53.2571 458.142 -53.2571 458.142C-53.2571 458.142 -26.2373 437.037 -5.99964 437C14.1962 436.963 41.2578 457.881 41.2578 457.881C41.2578 457.881 14.1962 478.725 -5.99964 478.762Z" fill="white" fill-opacity="0.01"/>
<path d="M45.7226 525.985C31.7508 540.037 -1.53303 544.466 -1.53303 544.466C-1.53303 544.466 2.46054 510.919 16.4903 496.81C30.4911 482.73 63.9286 478.511 63.9286 478.511C63.9286 478.511 59.7231 511.905 45.7226 525.985Z" fill="white" fill-opacity="0.01"/>
<path d="M45.7226 525.985C31.7508 540.037 -1.53303 544.466 -1.53303 544.466C-1.53303 544.466 2.46054 510.919 16.4903 496.81C30.4911 482.73 63.9286 478.511 63.9286 478.511C63.9286 478.511 59.7231 511.905 45.7226 525.985Z" fill="white" fill-opacity="0.01"/>
<path d="M15.997 600.212C2.01833 586.168 -2.238 552.861 -2.238 552.861C-2.238 552.861 31.2877 557.029 45.3239 571.132C59.3311 585.206 63.3756 618.665 63.3756 618.665C63.3756 618.665 30.0045 614.286 15.997 600.212Z" fill="white" fill-opacity="0.01"/>
<path d="M15.997 600.212C2.01833 586.168 -2.238 552.861 -2.238 552.861C-2.238 552.861 31.2877 557.029 45.3239 571.132C59.3311 585.206 63.3756 618.665 63.3756 618.665C63.3756 618.665 30.0045 614.286 15.997 600.212Z" fill="white" fill-opacity="0.01"/>
<path d="M-28.6134 599.81C-42.5851 613.861 -75.869 618.291 -75.869 618.291C-75.869 618.291 -71.8754 584.744 -57.8456 570.634C-43.8449 556.554 -10.4073 552.336 -10.4073 552.336C-10.4073 552.336 -14.6129 585.729 -28.6134 599.81Z" fill="white" fill-opacity="0.01"/>
<path d="M-28.6134 599.81C-42.5851 613.861 -75.869 618.291 -75.869 618.291C-75.869 618.291 -71.8754 584.744 -57.8456 570.634C-43.8449 556.554 -10.4073 552.336 -10.4073 552.336C-10.4073 552.336 -14.6129 585.729 -28.6134 599.81Z" fill="white" fill-opacity="0.01"/>
<path d="M-57.4483 525.488C-71.427 511.443 -75.6833 478.137 -75.6833 478.137C-75.6833 478.137 -42.1576 482.305 -28.1214 496.408C-14.1143 510.481 -10.0697 543.94 -10.0697 543.94C-10.0697 543.94 -43.4409 539.561 -57.4483 525.488Z" fill="white" fill-opacity="0.01"/>
<path d="M-57.4483 525.488C-71.427 511.443 -75.6833 478.137 -75.6833 478.137C-75.6833 478.137 -42.1576 482.305 -28.1214 496.408C-14.1143 510.481 -10.0697 543.94 -10.0697 543.94C-10.0697 543.94 -43.4409 539.561 -57.4483 525.488Z" fill="white" fill-opacity="0.01"/>
<circle cx="85.2143" cy="456.783" r="15.3861" fill="white" fill-opacity="0.01"/>
<circle cx="85.2143" cy="456.783" r="15.3861" fill="white" fill-opacity="0.01"/>
</g>
<defs>
<clipPath id="clip0_2556_15730">
<rect width="1440" height="600" fill="white"/>
</clipPath>
</defs>
</svg>
