<svg width="1863" height="29" viewBox="0 0 1863 29" fill="none" xmlns="http://www.w3.org/2000/svg">
<path d="M70 29C55.9262 29.026 37 14.6812 37 14.6812C37 14.6812 55.868 0.0258706 70 -1.44248e-06C84.1028 -0.02582 103 14.5 103 14.5C103 14.5 84.1028 28.9739 70 29Z" fill="url(#paint0_linear_2557_15905)" fill-opacity="0.3"/>
<path d="M192.5 29C178.639 29.026 160 14.6812 160 14.6812C160 14.6812 178.582 0.0258706 192.5 -1.42062e-06C206.389 -0.02582 225 14.5 225 14.5C225 14.5 206.389 28.9739 192.5 29Z" fill="url(#paint1_linear_2557_15905)" fill-opacity="0.3"/>
<path d="M315.5 29C301.639 29.026 283 14.6812 283 14.6812C283 14.6812 301.582 0.0258706 315.5 -1.42062e-06C329.389 -0.02582 348 14.5 348 14.5C348 14.5 329.389 28.9739 315.5 29Z" fill="url(#paint2_linear_2557_15905)" fill-opacity="0.3"/>
<path d="M438 29C423.926 29.026 405 14.6812 405 14.6812C405 14.6812 423.868 0.0258706 438 -1.44248e-06C452.103 -0.02582 471 14.5 471 14.5C471 14.5 452.103 28.9739 438 29Z" fill="url(#paint3_linear_2557_15905)" fill-opacity="0.3"/>
<path d="M560.5 29C546.639 29.026 528 14.6812 528 14.6812C528 14.6812 546.582 0.0258706 560.5 -1.42062e-06C574.389 -0.02582 593 14.5 593 14.5C593 14.5 574.389 28.9739 560.5 29Z" fill="url(#paint4_linear_2557_15905)" fill-opacity="0.3"/>
<path d="M683.5 29C669.639 29.026 651 14.6812 651 14.6812C651 14.6812 669.582 0.0258706 683.5 -1.42062e-06C697.389 -0.02582 716 14.5 716 14.5C716 14.5 697.389 28.9739 683.5 29Z" fill="url(#paint5_linear_2557_15905)" fill-opacity="0.3"/>
<path d="M806.5 29C792.639 29.026 774 14.6812 774 14.6812C774 14.6812 792.582 0.0258706 806.5 -1.42062e-06C820.389 -0.02582 839 14.5 839 14.5C839 14.5 820.389 28.9739 806.5 29Z" fill="url(#paint6_linear_2557_15905)" fill-opacity="0.3"/>
<path d="M929.5 29C915.639 29.026 897 14.6812 897 14.6812C897 14.6812 915.582 0.0258706 929.5 -1.42062e-06C943.389 -0.02582 962 14.5 962 14.5C962 14.5 943.389 28.9739 929.5 29Z" fill="url(#paint7_linear_2557_15905)" fill-opacity="0.3"/>
<path d="M1052 29C1037.93 29.026 1019 14.6812 1019 14.6812C1019 14.6812 1037.87 0.0258706 1052 -1.44248e-06C1066.1 -0.02582 1085 14.5 1085 14.5C1085 14.5 1066.1 28.9739 1052 29Z" fill="url(#paint8_linear_2557_15905)" fill-opacity="0.3"/>
<path d="M1174.5 29C1160.64 29.026 1142 14.6812 1142 14.6812C1142 14.6812 1160.58 0.0258706 1174.5 -1.42062e-06C1188.39 -0.02582 1207 14.5 1207 14.5C1207 14.5 1188.39 28.9739 1174.5 29Z" fill="url(#paint9_linear_2557_15905)" fill-opacity="0.3"/>
<path d="M1297.5 29C1283.64 29.026 1265 14.6812 1265 14.6812C1265 14.6812 1283.58 0.0258706 1297.5 -1.42062e-06C1311.39 -0.02582 1330 14.5 1330 14.5C1330 14.5 1311.39 28.9739 1297.5 29Z" fill="url(#paint10_linear_2557_15905)" fill-opacity="0.3"/>
<path d="M1420.5 29C1406.64 29.026 1388 14.6812 1388 14.6812C1388 14.6812 1406.58 0.0258706 1420.5 -1.42062e-06C1434.39 -0.02582 1453 14.5 1453 14.5C1453 14.5 1434.39 28.9739 1420.5 29Z" fill="url(#paint11_linear_2557_15905)" fill-opacity="0.3"/>
<path d="M1543.5 29C1529.64 29.026 1511 14.6812 1511 14.6812C1511 14.6812 1529.58 0.0258706 1543.5 -1.42062e-06C1557.39 -0.02582 1576 14.5 1576 14.5C1576 14.5 1557.39 28.9739 1543.5 29Z" fill="url(#paint12_linear_2557_15905)" fill-opacity="0.3"/>
<path d="M1666 29C1651.93 29.026 1633 14.6812 1633 14.6812C1633 14.6812 1651.87 0.0258706 1666 -1.44248e-06C1680.1 -0.02582 1699 14.5 1699 14.5C1699 14.5 1680.1 28.9739 1666 29Z" fill="url(#paint13_linear_2557_15905)" fill-opacity="0.3"/>
<path d="M1788.5 29C1774.64 29.026 1756 14.6812 1756 14.6812C1756 14.6812 1774.58 0.0258706 1788.5 -1.42062e-06C1802.39 -0.02582 1821 14.5 1821 14.5C1821 14.5 1802.39 28.9739 1788.5 29Z" fill="url(#paint14_linear_2557_15905)" fill-opacity="0.3"/>
<circle cx="10.5" cy="14.5" r="10.5" fill="url(#paint15_linear_2557_15905)" fill-opacity="0.3"/>
<circle cx="133.5" cy="14.5" r="10.5" fill="url(#paint16_linear_2557_15905)" fill-opacity="0.3"/>
<ellipse cx="256" cy="14.5" rx="11" ry="10.5" fill="url(#paint17_linear_2557_15905)" fill-opacity="0.3"/>
<ellipse cx="379" cy="14.5" rx="11" ry="10.5" fill="url(#paint18_linear_2557_15905)" fill-opacity="0.3"/>
<circle cx="501.5" cy="14.5" r="10.5" fill="url(#paint19_linear_2557_15905)" fill-opacity="0.3"/>
<circle cx="624.5" cy="14.5" r="10.5" fill="url(#paint20_linear_2557_15905)" fill-opacity="0.3"/>
<ellipse cx="747" cy="14.5" rx="11" ry="10.5" fill="url(#paint21_linear_2557_15905)" fill-opacity="0.3"/>
<ellipse cx="870" cy="14.5" rx="11" ry="10.5" fill="url(#paint22_linear_2557_15905)" fill-opacity="0.3"/>
<ellipse cx="993" cy="14.5" rx="11" ry="10.5" fill="url(#paint23_linear_2557_15905)" fill-opacity="0.3"/>
<circle cx="1115.5" cy="14.5" r="10.5" fill="url(#paint24_linear_2557_15905)" fill-opacity="0.3"/>
<ellipse cx="1238" cy="14.5" rx="11" ry="10.5" fill="url(#paint25_linear_2557_15905)" fill-opacity="0.3"/>
<ellipse cx="1361" cy="14.5" rx="11" ry="10.5" fill="url(#paint26_linear_2557_15905)" fill-opacity="0.3"/>
<ellipse cx="1484" cy="14.5" rx="11" ry="10.5" fill="url(#paint27_linear_2557_15905)" fill-opacity="0.3"/>
<ellipse cx="1606" cy="14.5" rx="11" ry="10.5" fill="url(#paint28_linear_2557_15905)" fill-opacity="0.3"/>
<ellipse cx="1729" cy="14.5" rx="11" ry="10.5" fill="url(#paint29_linear_2557_15905)" fill-opacity="0.3"/>
<ellipse cx="1852" cy="14.5" rx="11" ry="10.5" fill="url(#paint30_linear_2557_15905)" fill-opacity="0.3"/>
<defs>
<linearGradient id="paint0_linear_2557_15905" x1="103" y1="14.5" x2="37" y2="14.5" gradientUnits="userSpaceOnUse">
<stop stop-color="#E3C151"/>
<stop offset="1" stop-color="#B78E39"/>
</linearGradient>
<linearGradient id="paint1_linear_2557_15905" x1="225" y1="14.5" x2="160" y2="14.5" gradientUnits="userSpaceOnUse">
<stop stop-color="#E3C151"/>
<stop offset="1" stop-color="#B78E39"/>
</linearGradient>
<linearGradient id="paint2_linear_2557_15905" x1="348" y1="14.5" x2="283" y2="14.5" gradientUnits="userSpaceOnUse">
<stop stop-color="#E3C151"/>
<stop offset="1" stop-color="#B78E39"/>
</linearGradient>
<linearGradient id="paint3_linear_2557_15905" x1="471" y1="14.5" x2="405" y2="14.5" gradientUnits="userSpaceOnUse">
<stop stop-color="#E3C151"/>
<stop offset="1" stop-color="#B78E39"/>
</linearGradient>
<linearGradient id="paint4_linear_2557_15905" x1="593" y1="14.5" x2="528" y2="14.5" gradientUnits="userSpaceOnUse">
<stop stop-color="#E3C151"/>
<stop offset="1" stop-color="#B78E39"/>
</linearGradient>
<linearGradient id="paint5_linear_2557_15905" x1="716" y1="14.5" x2="651" y2="14.5" gradientUnits="userSpaceOnUse">
<stop stop-color="#E3C151"/>
<stop offset="1" stop-color="#B78E39"/>
</linearGradient>
<linearGradient id="paint6_linear_2557_15905" x1="839" y1="14.5" x2="774" y2="14.5" gradientUnits="userSpaceOnUse">
<stop stop-color="#E3C151"/>
<stop offset="1" stop-color="#B78E39"/>
</linearGradient>
<linearGradient id="paint7_linear_2557_15905" x1="962" y1="14.5" x2="897" y2="14.5" gradientUnits="userSpaceOnUse">
<stop stop-color="#E3C151"/>
<stop offset="1" stop-color="#B78E39"/>
</linearGradient>
<linearGradient id="paint8_linear_2557_15905" x1="1085" y1="14.5" x2="1019" y2="14.5" gradientUnits="userSpaceOnUse">
<stop stop-color="#E3C151"/>
<stop offset="1" stop-color="#B78E39"/>
</linearGradient>
<linearGradient id="paint9_linear_2557_15905" x1="1207" y1="14.5" x2="1142" y2="14.5" gradientUnits="userSpaceOnUse">
<stop stop-color="#E3C151"/>
<stop offset="1" stop-color="#B78E39"/>
</linearGradient>
<linearGradient id="paint10_linear_2557_15905" x1="1330" y1="14.5" x2="1265" y2="14.5" gradientUnits="userSpaceOnUse">
<stop stop-color="#E3C151"/>
<stop offset="1" stop-color="#B78E39"/>
</linearGradient>
<linearGradient id="paint11_linear_2557_15905" x1="1453" y1="14.5" x2="1388" y2="14.5" gradientUnits="userSpaceOnUse">
<stop stop-color="#E3C151"/>
<stop offset="1" stop-color="#B78E39"/>
</linearGradient>
<linearGradient id="paint12_linear_2557_15905" x1="1576" y1="14.5" x2="1511" y2="14.5" gradientUnits="userSpaceOnUse">
<stop stop-color="#E3C151"/>
<stop offset="1" stop-color="#B78E39"/>
</linearGradient>
<linearGradient id="paint13_linear_2557_15905" x1="1699" y1="14.5" x2="1633" y2="14.5" gradientUnits="userSpaceOnUse">
<stop stop-color="#E3C151"/>
<stop offset="1" stop-color="#B78E39"/>
</linearGradient>
<linearGradient id="paint14_linear_2557_15905" x1="1821" y1="14.5" x2="1756" y2="14.5" gradientUnits="userSpaceOnUse">
<stop stop-color="#E3C151"/>
<stop offset="1" stop-color="#B78E39"/>
</linearGradient>
<linearGradient id="paint15_linear_2557_15905" x1="10.5" y1="4" x2="10.5" y2="25" gradientUnits="userSpaceOnUse">
<stop stop-color="#E3C151"/>
<stop offset="1" stop-color="#B78E39"/>
</linearGradient>
<linearGradient id="paint16_linear_2557_15905" x1="133.5" y1="4" x2="133.5" y2="25" gradientUnits="userSpaceOnUse">
<stop stop-color="#E3C151"/>
<stop offset="1" stop-color="#B78E39"/>
</linearGradient>
<linearGradient id="paint17_linear_2557_15905" x1="256" y1="4" x2="256" y2="25" gradientUnits="userSpaceOnUse">
<stop stop-color="#E3C151"/>
<stop offset="1" stop-color="#B78E39"/>
</linearGradient>
<linearGradient id="paint18_linear_2557_15905" x1="379" y1="4" x2="379" y2="25" gradientUnits="userSpaceOnUse">
<stop stop-color="#E3C151"/>
<stop offset="1" stop-color="#B78E39"/>
</linearGradient>
<linearGradient id="paint19_linear_2557_15905" x1="501.5" y1="4" x2="501.5" y2="25" gradientUnits="userSpaceOnUse">
<stop stop-color="#E3C151"/>
<stop offset="1" stop-color="#B78E39"/>
</linearGradient>
<linearGradient id="paint20_linear_2557_15905" x1="624.5" y1="4" x2="624.5" y2="25" gradientUnits="userSpaceOnUse">
<stop stop-color="#E3C151"/>
<stop offset="1" stop-color="#B78E39"/>
</linearGradient>
<linearGradient id="paint21_linear_2557_15905" x1="747" y1="4" x2="747" y2="25" gradientUnits="userSpaceOnUse">
<stop stop-color="#E3C151"/>
<stop offset="1" stop-color="#B78E39"/>
</linearGradient>
<linearGradient id="paint22_linear_2557_15905" x1="870" y1="4" x2="870" y2="25" gradientUnits="userSpaceOnUse">
<stop stop-color="#E3C151"/>
<stop offset="1" stop-color="#B78E39"/>
</linearGradient>
<linearGradient id="paint23_linear_2557_15905" x1="993" y1="4" x2="993" y2="25" gradientUnits="userSpaceOnUse">
<stop stop-color="#E3C151"/>
<stop offset="1" stop-color="#B78E39"/>
</linearGradient>
<linearGradient id="paint24_linear_2557_15905" x1="1115.5" y1="4" x2="1115.5" y2="25" gradientUnits="userSpaceOnUse">
<stop stop-color="#E3C151"/>
<stop offset="1" stop-color="#B78E39"/>
</linearGradient>
<linearGradient id="paint25_linear_2557_15905" x1="1238" y1="4" x2="1238" y2="25" gradientUnits="userSpaceOnUse">
<stop stop-color="#E3C151"/>
<stop offset="1" stop-color="#B78E39"/>
</linearGradient>
<linearGradient id="paint26_linear_2557_15905" x1="1361" y1="4" x2="1361" y2="25" gradientUnits="userSpaceOnUse">
<stop stop-color="#E3C151"/>
<stop offset="1" stop-color="#B78E39"/>
</linearGradient>
<linearGradient id="paint27_linear_2557_15905" x1="1484" y1="4" x2="1484" y2="25" gradientUnits="userSpaceOnUse">
<stop stop-color="#E3C151"/>
<stop offset="1" stop-color="#B78E39"/>
</linearGradient>
<linearGradient id="paint28_linear_2557_15905" x1="1606" y1="4" x2="1606" y2="25" gradientUnits="userSpaceOnUse">
<stop stop-color="#E3C151"/>
<stop offset="1" stop-color="#B78E39"/>
</linearGradient>
<linearGradient id="paint29_linear_2557_15905" x1="1729" y1="4" x2="1729" y2="25" gradientUnits="userSpaceOnUse">
<stop stop-color="#E3C151"/>
<stop offset="1" stop-color="#B78E39"/>
</linearGradient>
<linearGradient id="paint30_linear_2557_15905" x1="1852" y1="4" x2="1852" y2="25" gradientUnits="userSpaceOnUse">
<stop stop-color="#E3C151"/>
<stop offset="1" stop-color="#B78E39"/>
</linearGradient>
</defs>
</svg>
