<svg width="80" height="94" viewBox="0 0 80 94" fill="none" xmlns="http://www.w3.org/2000/svg">
<g clip-path="url(#clip0_2551_7275)">
<mask id="mask0_2551_7275" style="mask-type:luminance" maskUnits="userSpaceOnUse" x="0" y="0" width="80" height="94">
<path d="M80 0H0V94H80V0Z" fill="white"/>
</mask>
<g mask="url(#mask0_2551_7275)">
<path fill-rule="evenodd" clip-rule="evenodd" d="M19.685 48.5752C19.6778 48.6023 19.6707 48.6294 19.6622 48.6565L18.6636 52.2461H17.8588L16.5781 47.4091H17.4542L18.1736 50.5134C18.2035 50.6447 18.2334 50.7775 18.2619 50.9088C18.2647 50.8959 18.2676 50.8831 18.2704 50.8717C18.2918 50.7817 18.3132 50.6904 18.3374 50.6005C18.3374 50.5991 19.2362 47.4091 19.2362 47.4091H20.1508L20.8331 49.8226C20.93 50.1637 21.0154 50.5077 21.0867 50.856C21.118 50.7218 21.1508 50.5876 21.1835 50.4535L21.9257 47.4105H22.7904L21.467 52.2476H20.6964L19.7063 48.658C19.6992 48.6308 19.6921 48.6037 19.6835 48.5766M24.581 48.1941V49.3573H27.118V50.138H24.581V51.4597H27.3972V52.2447H23.732V47.4077H27.2904V48.1927H24.581V48.1941ZM29.457 51.4611H31.7134V52.2461H28.6052V47.4091H29.4556V51.4611H29.457ZM33.6607 51.4611H35.9172V52.2461H32.8103V47.4091H33.6607V51.4611ZM40.0097 49.6542C40.1878 49.7398 40.3459 49.8597 40.4699 50.0224C40.6422 50.2479 40.7177 50.5106 40.7177 50.7932C40.7177 51.0758 40.6693 51.2413 40.5696 51.4454C40.4798 51.6267 40.3602 51.7951 40.1978 51.9179C40.0368 52.0392 39.8474 52.1162 39.6536 52.1662C39.4058 52.229 39.138 52.2461 38.883 52.2461H37.0126V47.4091H38.8545C39.1479 47.4091 39.4741 47.4391 39.7448 47.5575C39.977 47.6589 40.1636 47.8187 40.2975 48.0342C40.4243 48.2398 40.4955 48.4639 40.4955 48.7065C40.4955 48.9491 40.4342 49.1361 40.3174 49.3259C40.2362 49.4572 40.1308 49.5671 40.0083 49.6556M42.8132 48.1941V49.3573H45.3502V50.138H42.8132V51.4597H45.6294V52.2447H41.9642V47.4077H45.5226V48.1927H42.8132V48.1941ZM46.9684 47.4091H47.8174V52.2461H46.9684V47.4091ZM52.3103 50.7375V47.4105H53.1337V52.2476H52.3246L50.1023 48.9163V52.2476H49.279V47.4105H50.0881L52.3103 50.7375ZM58.0454 51.1229V50.4463H56.6978V49.6628H58.883C58.883 49.6613 58.883 51.5453 58.883 51.5453L58.8374 51.5824C58.5468 51.8137 58.2291 52.0063 57.883 52.1376C57.5553 52.2618 57.2134 52.3261 56.863 52.3261C56.5126 52.3261 55.9798 52.2318 55.5795 52.0206C55.1921 51.8165 54.8944 51.5225 54.6949 51.1314C54.4898 50.7304 54.4001 50.2993 54.4001 49.8497C54.4001 49.4001 54.4941 48.9548 54.6921 48.5452C54.883 48.1513 55.1622 47.8359 55.5496 47.6289C55.9414 47.4191 56.373 47.332 56.816 47.332C57.259 47.332 57.4599 47.3806 57.7619 47.5004C58.0254 47.6061 58.2647 47.7631 58.4414 47.9872C58.6237 48.2184 58.7377 48.5024 58.8103 48.785L58.8402 48.9006L58.0625 49.1147L58.0283 49.0005C57.977 48.825 57.9029 48.6323 57.7918 48.4867C57.6935 48.3568 57.5525 48.2669 57.4043 48.2041C57.2177 48.1256 57.0197 48.0928 56.8189 48.0928C56.618 48.0928 56.3559 48.1213 56.1465 48.2084C55.9784 48.2783 55.8231 48.3768 55.7006 48.5124C55.5881 48.638 55.4969 48.7764 55.4314 48.932C55.3146 49.2117 55.2647 49.5072 55.2647 49.8098C55.2647 50.1124 55.3132 50.4849 55.4642 50.7803C55.5909 51.0287 55.7747 51.2171 56.024 51.3412C56.2776 51.4668 56.5439 51.5311 56.8274 51.5311C57.1109 51.5311 57.3189 51.4811 57.5525 51.3869C57.7163 51.3213 57.9029 51.2328 58.0454 51.1186M37.8644 49.3402H38.7348C38.8459 49.3402 38.9585 49.3373 39.0696 49.3274C39.138 49.3216 39.212 49.3117 39.2776 49.2931C39.3887 49.2603 39.4941 49.2046 39.5639 49.109C39.6337 49.0119 39.6565 48.8963 39.6565 48.7779C39.6565 48.6594 39.6308 48.5424 39.5667 48.441C39.5069 48.3468 39.4257 48.2869 39.3189 48.254C39.2405 48.2298 39.1479 48.2184 39.0667 48.2112C38.9314 48.1984 38.7932 48.1955 38.6565 48.1955H37.863V49.3402H37.8644ZM37.8644 51.4611H38.883C38.9642 51.4611 39.0454 51.4611 39.1266 51.4554C39.175 51.4526 39.2263 51.4497 39.2747 51.4411C39.3815 51.4212 39.4912 51.3898 39.5824 51.3312C39.6636 51.2799 39.7248 51.2042 39.7704 51.12C39.8246 51.0187 39.8474 50.9059 39.8474 50.7917C39.8474 50.6776 39.8174 50.5263 39.7391 50.4135C39.6636 50.305 39.5596 50.2351 39.4357 50.1937C39.2491 50.1323 38.9984 50.1238 38.8032 50.1238H37.8644V51.4597V51.4611Z" fill="#E3A500"/>
<path fill-rule="evenodd" clip-rule="evenodd" d="M65.68 43.1018H62.8281V30.7402H64.6088C64.9805 30.7402 65.3182 30.893 65.5632 31.1384C65.8096 31.3854 65.962 31.7236 65.962 32.0961V43.1018H65.6785H65.68Z" fill="#E3A500"/>
<path fill-rule="evenodd" clip-rule="evenodd" d="M56.9065 43.1028H54.0547V30.7412H55.8353C56.2071 30.7412 56.5447 30.8939 56.7897 31.1394C56.908 31.2579 57.0048 31.3977 57.0732 31.5519C57.3709 31.3107 57.69 31.1337 58.0262 31.0067C58.5006 30.8282 59.0077 30.7483 59.5362 30.7212C59.9208 30.7012 60.3168 30.7212 60.7157 30.7398L60.7712 30.7426L61.0419 30.7555V33.3502L60.6644 33.2161C60.5461 33.1733 60.0048 32.9991 59.3524 33.0134C58.9963 33.0205 58.6074 33.0848 58.2399 33.2589C58.0818 33.3345 57.757 33.5543 57.5034 33.8983C57.3481 34.1081 57.2228 34.3636 57.1886 34.6548V43.1028H56.9051H56.9065Z" fill="#E3A500"/>
<path fill-rule="evenodd" clip-rule="evenodd" d="M45.8718 33.6629L45.9459 33.6801C46.1567 33.7272 46.3946 33.7771 46.6424 33.8285C49.0043 34.3181 52.2678 34.9932 52.2678 38.2545C52.2678 41.5158 51.6083 41.1504 50.5954 41.9768C49.4017 42.9516 47.7194 43.3712 46.0627 43.3712C44.406 43.3712 42.4459 42.8731 41.255 41.8369C40.161 40.8849 39.5014 39.4905 39.5014 37.625V37.341H41.3946C41.708 37.341 41.9943 37.4452 42.2236 37.6236C42.4544 37.8035 42.6254 38.0589 42.7051 38.3615C42.7108 38.3858 42.7151 38.4001 42.7179 38.4143L42.7222 38.4372C42.8832 39.1808 43.2792 39.7131 43.8234 40.0671C44.453 40.4767 45.2892 40.658 46.2065 40.658C47.1239 40.658 47.8889 40.451 48.3889 40.0714C48.8661 39.7089 49.1254 39.1793 49.1254 38.5128C49.1254 37.1441 47.9131 36.8743 45.8547 36.419L45.8219 36.4119C45.6225 36.3676 45.396 36.3205 45.1581 36.272C42.8162 35.791 39.5 35.1102 39.5 31.8375C39.5 28.5647 40.1595 28.9415 41.1724 28.1151C42.3675 27.1403 44.0484 26.7207 45.7051 26.7207C47.3618 26.7207 49.3219 27.2188 50.5128 28.255C51.6068 29.207 52.2664 30.6014 52.2664 32.4669V32.7509H50.3732C50.0541 32.7509 49.7593 32.6382 49.5271 32.4512C49.2906 32.2614 49.1197 31.993 49.0527 31.6847L49.047 31.6591C48.886 30.914 48.4915 30.3816 47.9459 30.0263C47.3162 29.6166 46.4786 29.4339 45.5613 29.4339C44.6439 29.4339 43.8789 29.6409 43.3789 30.0206C42.9017 30.3831 42.6424 30.9126 42.6424 31.5791C42.6424 32.9393 43.8063 33.2005 45.8718 33.6644V33.6629Z" fill="#E3A500"/>
<path fill-rule="evenodd" clip-rule="evenodd" d="M35.7112 43.1018H32.8594V30.7402H34.64C35.0118 30.7402 35.3494 30.893 35.5944 31.1384C35.8409 31.3854 35.9933 31.7236 35.9933 32.0961V43.1018H35.7098H35.7112Z" fill="#E3A500"/>
<path fill-rule="evenodd" clip-rule="evenodd" d="M26.9378 43.1028H24.0859V30.7412H25.8666C26.2384 30.7412 26.576 30.8939 26.821 31.1394C26.9392 31.2579 27.0361 31.3977 27.1045 31.5519C27.4022 31.3107 27.7213 31.1337 28.0574 31.0067C28.5318 30.8282 29.0389 30.7483 29.5674 30.7212C29.952 30.7012 30.348 30.7212 30.7469 30.7398L30.8025 30.7426L31.0717 30.7555V33.3502L30.6942 33.2161C30.5745 33.1733 30.0347 32.9991 29.3822 33.0134C29.0261 33.0205 28.6372 33.0848 28.2697 33.2589C28.1116 33.3345 27.7868 33.5543 27.5332 33.8983C27.378 34.1081 27.2526 34.3636 27.2184 34.6548V43.1028H26.9349H26.9378Z" fill="#E3A500"/>
<path fill-rule="evenodd" clip-rule="evenodd" d="M15.9094 33.6629L15.9835 33.6801C16.1943 33.7272 16.4322 33.7771 16.6801 33.8285C19.0433 34.3181 22.3054 34.9932 22.3054 38.2545C22.3054 41.5158 21.6459 41.1504 20.6331 41.9768C19.4379 42.9516 17.757 43.3712 16.1003 43.3712C14.4436 43.3712 12.4835 42.8731 11.2926 41.8369C10.1972 40.8849 9.53906 39.4905 9.53906 37.625V37.341H11.4322C11.7456 37.341 12.0319 37.4452 12.2613 37.6236C12.4921 37.8035 12.663 38.0589 12.7428 38.3615C12.7485 38.3858 12.7513 38.4001 12.7556 38.4143L12.7599 38.4372C12.9208 39.1808 13.3168 39.7131 13.8624 40.0671C14.4921 40.4767 15.3282 40.658 16.2456 40.658C17.163 40.658 17.928 40.451 18.428 40.0714C18.9052 39.7089 19.1644 39.1793 19.1644 38.5128C19.1644 37.1441 17.9522 36.8743 15.8938 36.419L15.861 36.4119C15.6616 36.3676 15.4351 36.3205 15.1972 36.272C12.8553 35.791 9.53906 35.1102 9.53906 31.8375C9.53906 28.5647 10.1986 28.9415 11.2114 28.1151C12.4066 27.1403 14.0875 26.7207 15.7442 26.7207C17.4009 26.7207 19.361 27.2188 20.5519 28.255C21.6459 29.207 22.3054 30.6014 22.3054 32.4669V32.7509H20.4123C20.0918 32.7509 19.7983 32.6382 19.5661 32.4512C19.3297 32.2614 19.1587 31.993 19.0918 31.6847L19.0861 31.6591C18.9251 30.914 18.5305 30.3816 17.9849 30.0263C17.3553 29.6166 16.5177 29.4339 15.6003 29.4339C14.6829 29.4339 13.918 29.6409 13.418 30.0206C12.9408 30.3831 12.6815 30.9126 12.6815 31.5791C12.6815 32.9393 13.8453 33.2005 15.9109 33.6644L15.9094 33.6629Z" fill="#E3A500"/>
<path fill-rule="evenodd" clip-rule="evenodd" d="M34.4082 26.7207C34.8711 26.7207 35.2885 26.9091 35.5919 27.2117C35.8953 27.5157 36.082 27.9353 36.082 28.3977C36.082 28.8602 35.8939 29.2798 35.5919 29.5838C35.2885 29.8878 34.8711 30.0748 34.4082 30.0748C33.9452 30.0748 33.5278 29.8864 33.2244 29.5838C32.921 29.2798 32.7344 28.8602 32.7344 28.3977C32.7344 27.9353 32.9224 27.5157 33.2244 27.2117C33.5278 26.9077 33.9466 26.7207 34.4082 26.7207ZM64.3754 26.7207C64.8384 26.7207 65.2557 26.9091 65.5592 27.2117C65.8626 27.5157 66.0492 27.9353 66.0492 28.3977C66.0492 28.8602 65.8612 29.2798 65.5592 29.5838C65.2557 29.8878 64.8384 30.0748 64.3754 30.0748C63.9124 30.0748 63.4951 29.8864 63.1916 29.5838C62.8882 29.2798 62.7016 28.8602 62.7016 28.3977C62.7016 27.9353 62.8896 27.5157 63.1916 27.2117C63.4951 26.9077 63.9124 26.7207 64.3754 26.7207Z" fill="#E3A500"/>
<path fill-rule="evenodd" clip-rule="evenodd" d="M70.2362 26.7343C70.2362 26.3603 70.0852 26.0221 69.8416 25.778C69.598 25.534 69.2604 25.3827 68.8872 25.3827C68.514 25.3827 68.1935 25.5354 67.9528 25.7794C67.7134 26.0235 67.5639 26.3603 67.5639 26.7343C67.5639 27.1082 67.712 27.4351 67.9485 27.672C68.1892 27.9132 68.5226 28.0602 68.8858 28.0602C69.249 28.0602 69.6009 27.9146 69.8445 27.6749C70.0852 27.4379 70.2348 27.1082 70.2348 26.7357M68.8345 27.2838V26.2105H69.1735L69.3573 26.9441L69.5667 26.2105H69.8787V27.2838H69.6963V26.4189L69.4613 27.2838H69.2519L69.0425 26.4189V27.2838H68.8331H68.8345ZM68.155 27.2838V26.3946H67.8416V26.2105H68.7035V26.3946H68.3644V27.2838H68.155ZM70.0026 25.6167C70.2875 25.9022 70.4641 26.2975 70.4641 26.7343C70.4641 27.171 70.2889 27.5578 70.0055 27.8361C69.7206 28.1173 69.3231 28.2886 68.8872 28.2886C68.4513 28.2886 68.071 28.1159 67.7875 27.8333C67.5097 27.555 67.3359 27.1696 67.3359 26.7357C67.3359 26.3018 67.5111 25.9065 67.7904 25.621C68.0724 25.3327 68.4613 25.1543 68.8872 25.1543C69.3131 25.1543 69.7177 25.3313 70.0026 25.6167Z" fill="#E3A500"/>
<path fill-rule="evenodd" clip-rule="evenodd" d="M50.7687 58.7966H50.6974C50.471 58.7966 50.2074 58.8266 50.0123 58.9536C49.8784 59.0407 49.7957 59.152 49.7957 59.3147C49.7957 59.4774 49.8057 59.466 49.8356 59.5345C49.8613 59.5916 49.894 59.6444 49.941 59.6872V59.6887C49.9838 59.7286 50.0322 59.7558 50.0878 59.7743C50.1504 59.7943 50.2145 59.8043 50.2801 59.8043C50.3855 59.8043 50.4923 59.7843 50.5749 59.7129C50.6476 59.6516 50.7117 59.5816 50.7658 59.5031V58.7966H50.7687ZM50.8983 60.0269C50.8185 60.0983 50.7231 60.1554 50.6333 60.2039C50.441 60.3067 50.2088 60.3338 49.9937 60.3338C49.7786 60.3338 49.7758 60.3152 49.6704 60.2881C49.5465 60.2567 49.4325 60.1996 49.3285 60.1254C49.2131 60.0426 49.1248 59.9327 49.0564 59.8086C48.9738 59.6587 48.9453 59.4846 48.9453 59.3133C48.9453 59.142 48.9909 58.9508 49.1049 58.8023C49.2117 58.6639 49.3513 58.5626 49.5094 58.4898C49.6832 58.4098 49.8712 58.3627 50.0593 58.3371C50.2701 58.3071 50.4838 58.2942 50.696 58.2942H50.7658C50.7616 58.1615 50.7502 58.0231 50.7202 57.8975C50.6975 57.8018 50.6618 57.6876 50.602 57.6077C50.5593 57.5521 50.5066 57.5092 50.4425 57.485C50.3698 57.4593 50.2943 57.4479 50.2188 57.4479C50.0849 57.4479 49.9467 57.4707 49.8328 57.5435C49.7174 57.6177 49.6618 57.769 49.6348 57.8975L49.6134 57.9931H49.1063V57.8718C49.1063 57.7619 49.1134 57.652 49.1276 57.5435C49.1447 57.4122 49.2088 57.3009 49.3014 57.2081C49.357 57.1524 49.4296 57.111 49.5023 57.0796C49.5849 57.0454 49.6718 57.0211 49.7587 57.004C49.8527 56.9854 49.9467 56.9726 50.0422 56.964C50.1419 56.954 50.243 56.9512 50.3442 56.9512C50.4952 56.9512 50.6447 56.9669 50.7915 57.0011C50.9482 57.0382 51.0863 57.1139 51.2046 57.2224C51.3385 57.3451 51.4268 57.5107 51.4866 57.6805C51.5664 57.9089 51.5863 58.1772 51.5863 58.417V60.2696H51.0849L50.8969 60.0255L50.8983 60.0269Z" fill="#E3A500"/>
<path fill-rule="evenodd" clip-rule="evenodd" d="M47.4082 58.3618C47.3997 58.1349 47.3655 57.8766 47.2587 57.6867C47.1689 57.5269 47.0407 57.4512 46.8584 57.4512C46.676 57.4512 46.7202 57.4727 46.6589 57.514C46.5849 57.5654 46.5293 57.6382 46.4837 57.7153C46.4239 57.818 46.384 57.9337 46.3555 58.0478C46.3299 58.1506 46.3171 58.2548 46.3114 58.3604H47.4082V58.3618ZM46.3128 58.8614C46.3199 58.9741 46.3356 59.0869 46.3641 59.1968C46.3954 59.3195 46.4438 59.4394 46.5151 59.545C46.5763 59.635 46.6518 59.7078 46.7458 59.7606C46.8399 59.8134 46.9438 59.8362 47.0507 59.8362C47.2088 59.8362 47.3726 59.8077 47.5079 59.7206C47.6447 59.6335 47.7558 59.5094 47.847 59.3766L47.9182 59.2724L48.2359 59.5094L48.1803 59.6036C48.045 59.8319 47.8669 60.0389 47.6319 60.1659C47.4125 60.2844 47.1732 60.3343 46.9253 60.3343C46.6775 60.3343 46.4823 60.2958 46.2829 60.1959C46.1034 60.1074 45.9495 59.9832 45.8228 59.8276C45.6946 59.6678 45.6062 59.4851 45.5493 59.2896C45.488 59.0798 45.4609 58.8628 45.4609 58.643C45.4609 58.4232 45.4894 58.2063 45.5535 57.9965C45.6119 57.8009 45.7003 57.6182 45.827 57.4584C45.9481 57.3042 46.0963 57.1801 46.2686 57.0901C46.4524 56.9931 46.6547 56.9531 46.8612 56.9531C47.2558 56.9531 47.6532 57.0487 47.9196 57.3613C48.1846 57.671 48.2629 58.0878 48.2629 58.4846V58.4874L48.2444 58.8614H46.3156H46.3128Z" fill="#E3A500"/>
<path fill-rule="evenodd" clip-rule="evenodd" d="M23.0517 58.6425C23.0517 58.4784 23.0346 58.3142 22.9976 58.1544C22.9663 58.0216 22.9192 57.8903 22.848 57.7719C22.791 57.6777 22.7212 57.592 22.6315 57.5292C22.5546 57.475 22.4691 57.4493 22.3737 57.4493C22.2782 57.4493 22.1942 57.475 22.1158 57.5292C22.0247 57.592 21.9549 57.6777 21.8993 57.7719C21.8295 57.8889 21.7825 58.0202 21.7497 58.1544C21.7113 58.3142 21.6956 58.4784 21.6956 58.6425C21.6956 58.8066 21.7127 58.9708 21.7497 59.1306C21.7811 59.2633 21.8281 59.3947 21.8993 59.5131C21.9563 59.6073 22.0261 59.6915 22.1158 59.7543C22.1942 59.8086 22.2782 59.8357 22.3737 59.8357C22.4691 59.8357 22.5532 59.8086 22.6315 59.7543C22.7212 59.6915 22.7925 59.6073 22.848 59.5131C22.9178 59.3961 22.9663 59.2648 22.9976 59.1306C23.0361 58.9708 23.0517 58.8066 23.0517 58.6425ZM20.8438 58.6425C20.8438 58.4213 20.8737 58.2029 20.942 57.9931C21.0061 57.7947 21.1044 57.612 21.2412 57.4536C21.3751 57.298 21.5361 57.1753 21.7212 57.0868C21.9249 56.9897 22.1486 56.9512 22.3722 56.9512C22.5959 56.9512 22.8153 56.9911 23.019 57.0868C23.2056 57.1753 23.3708 57.2966 23.5047 57.4536C23.6415 57.612 23.7383 57.7947 23.8024 57.9931C23.8708 58.2029 23.9007 58.4213 23.9007 58.6425C23.9007 58.8637 23.8708 59.0821 23.8024 59.2919C23.7383 59.4903 23.6415 59.6715 23.5047 59.83C23.3694 59.987 23.2056 60.1083 23.019 60.1968C22.8153 60.2924 22.5973 60.3338 22.3722 60.3338C22.1472 60.3338 21.9249 60.2938 21.7212 60.1968C21.5361 60.1083 21.3751 59.9855 21.2412 59.83C21.1044 59.6715 21.0061 59.4903 20.942 59.2919C20.8737 59.0821 20.8438 58.8637 20.8438 58.6425Z" fill="#E3A500"/>
<path fill-rule="evenodd" clip-rule="evenodd" d="M57.9727 57.1456C58.024 57.1142 58.0781 57.0857 58.1323 57.06C58.3032 56.9787 58.4955 56.9501 58.6835 56.9501C58.8716 56.9501 58.9727 56.9658 59.1137 57.0015C59.2619 57.0372 59.3944 57.1085 59.5112 57.207C59.6394 57.3141 59.7291 57.4539 59.7918 57.6081C59.8701 57.7993 59.8929 58.0206 59.8929 58.2261V60.2699H59.0739V58.2261C59.0739 58.1076 59.0625 57.9749 59.0211 57.8636C58.9912 57.7808 58.9485 57.7023 58.8887 57.6366C58.8374 57.5852 58.7776 57.5439 58.7092 57.5182C58.6394 57.4925 58.5667 57.4796 58.4912 57.4796C58.4157 57.4796 58.2904 57.5067 58.2021 57.5624C58.1194 57.6152 58.0425 57.6766 57.9741 57.7465V60.2685H57.155V56.6861C57.155 56.5505 57.1408 56.3949 57.0852 56.2707C57.0439 56.178 56.9157 56.1665 56.8274 56.1665H56.5781V55.7969H57.2761C57.3773 55.7969 57.4855 55.804 57.5838 55.8283C57.6821 55.854 57.7633 55.9068 57.826 55.9867C57.8915 56.0695 57.9257 56.1722 57.9442 56.2764C57.9656 56.412 57.9713 56.5519 57.9713 56.6875V57.1471L57.9727 57.1456Z" fill="#E3A500"/>
<path fill-rule="evenodd" clip-rule="evenodd" d="M54.7129 57.5123H54.2656V57.0128H54.7129V56.5118L55.0961 56.0508H55.532V57.0128H56.2998V57.5123H55.532V59.3792C55.532 59.5062 55.5491 59.6932 55.6588 59.7774C55.7143 59.8216 55.787 59.8331 55.8568 59.8331C55.9266 59.8331 56.0206 59.8273 56.0918 59.8016C56.1559 59.7788 56.2186 59.7531 56.2784 59.7203L56.3881 59.6603L56.5534 59.9915L56.4708 60.0514C56.4309 60.0814 56.391 60.1099 56.3497 60.1371C56.2913 60.177 56.2286 60.207 56.1631 60.2327C56.0847 60.2641 56.0007 60.2869 55.918 60.3026C55.8141 60.3226 55.7058 60.3297 55.599 60.3297C55.3596 60.3297 55.1403 60.2641 54.9636 60.0999C54.7642 59.9158 54.7101 59.6375 54.7101 59.3763V57.5095L54.7129 57.5123Z" fill="#E3A500"/>
<path fill-rule="evenodd" clip-rule="evenodd" d="M53.4805 60.2705H52.6614V56.688C52.6614 56.5524 52.6472 56.3969 52.5916 56.2727C52.5503 56.1799 52.4221 56.1685 52.3338 56.1685H52.0859V55.7988H52.7825C52.8837 55.7988 52.9919 55.806 53.0902 55.8302C53.1885 55.8559 53.2697 55.9087 53.3324 55.9887C53.3979 56.0714 53.4321 56.1742 53.4506 56.2784V56.2798C53.472 56.4126 53.4777 56.5539 53.4777 56.688V60.2705H53.4805Z" fill="#E3A500"/>
<path fill-rule="evenodd" clip-rule="evenodd" d="M42.6631 57.1456C42.7143 57.1142 42.7685 57.0857 42.8212 57.06C42.9921 56.9787 43.1844 56.9501 43.3725 56.9501C43.5605 56.9501 43.6616 56.9658 43.8012 57.0015C43.9494 57.0372 44.0819 57.1085 44.1987 57.207C44.3269 57.3141 44.4166 57.4539 44.4793 57.6081C44.5576 57.7993 44.5804 58.0206 44.5804 58.2261V60.2699H43.7614V58.2261C43.7614 58.1076 43.75 57.9749 43.7086 57.8636C43.6787 57.7808 43.636 57.7023 43.5762 57.6366C43.5249 57.5852 43.4651 57.5439 43.3967 57.5182C43.3269 57.4925 43.2542 57.4796 43.1787 57.4796C43.1032 57.4796 42.9779 57.5067 42.8896 57.5624C42.8069 57.6152 42.73 57.6766 42.6616 57.7465V60.2685H41.8425V56.6861C41.8425 56.5505 41.8283 56.3949 41.7727 56.2707C41.7314 56.178 41.6032 56.1665 41.5149 56.1665H41.2656V55.7969H41.9636C42.0648 55.7969 42.173 55.804 42.2713 55.8283C42.3696 55.854 42.4508 55.9068 42.5135 55.9867C42.579 56.0695 42.6132 56.1722 42.6317 56.2764V56.2779C42.6531 56.4106 42.6588 56.5519 42.6588 56.6861V57.1456H42.6631Z" fill="#E3A500"/>
<path fill-rule="evenodd" clip-rule="evenodd" d="M38.108 56.9512C38.306 56.9512 38.514 56.9626 38.7078 57.0054C38.8588 57.0397 39.0097 57.0996 39.1209 57.2109C39.1664 57.2566 39.2078 57.3108 39.2377 57.3694C39.2704 57.4336 39.2861 57.5035 39.2975 57.5749C39.3089 57.6548 39.3132 57.7362 39.3146 57.8161C39.316 57.9217 39.3189 58.0259 39.3189 58.1315V58.2528H38.9542L38.9471 58.1387C38.9357 57.9474 38.8844 57.7462 38.7305 57.6177C38.5881 57.4992 38.4186 57.4507 38.2348 57.4507C38.0511 57.4507 37.987 57.4721 37.8815 57.5349C37.7804 57.5949 37.6992 57.6777 37.6351 57.7776C37.5596 57.8932 37.5112 58.0202 37.4813 58.1544C37.4456 58.3142 37.43 58.4798 37.43 58.6439C37.43 58.808 37.4456 58.9736 37.4813 59.1335C37.5112 59.2676 37.5596 59.3947 37.6351 59.5103C37.6992 59.6087 37.7818 59.6901 37.8815 59.75C37.9884 59.8143 38.1123 59.8371 38.2348 59.8371C38.3573 59.8371 38.5795 59.8114 38.722 59.7215C38.8588 59.6344 38.9727 59.5117 39.0639 59.3775L39.1351 59.2733L39.4528 59.5103L39.3972 59.6045C39.2605 59.8343 39.081 60.0412 38.8417 60.1668C38.6152 60.2867 38.363 60.3352 38.108 60.3352C37.8531 60.3352 37.6437 60.2981 37.4328 60.1982C37.2476 60.1112 37.0838 59.9884 36.9528 59.8285C36.8231 59.6687 36.7305 59.4874 36.6707 59.2905C36.608 59.0792 36.5781 58.8623 36.5781 58.6439C36.5781 58.4255 36.6066 58.2072 36.6707 57.9974C36.7305 57.8004 36.8217 57.6177 36.9528 57.4579C37.0824 57.298 37.2462 57.1753 37.4328 57.0882C37.6437 56.9897 37.8773 56.9526 38.108 56.9526" fill="#E3A500"/>
<path fill-rule="evenodd" clip-rule="evenodd" d="M35.6446 56.464C35.6446 56.5768 35.6104 56.6824 35.5278 56.7623C35.4466 56.8408 35.3412 56.8722 35.2301 56.8722C35.1189 56.8722 34.9765 56.8123 34.8868 56.7081C34.7956 56.6039 34.75 56.4783 34.75 56.3398C34.75 56.2014 34.7856 56.12 34.8697 56.0415C34.9509 55.9645 35.0563 55.9316 35.1674 55.9316C35.2785 55.9316 35.4209 55.9916 35.5107 56.0958C35.6019 56.2014 35.646 56.3256 35.646 56.464" fill="#E3A500"/>
<path fill-rule="evenodd" clip-rule="evenodd" d="M35.6837 60.2698H34.866V57.9048C34.866 57.7707 34.8517 57.6137 34.7962 57.4895C34.7549 57.3967 34.6267 57.3853 34.5384 57.3853H34.2891V57.0156H34.9871C35.0896 57.0156 35.1993 57.0228 35.2976 57.0485C35.3945 57.0741 35.4771 57.1255 35.5383 57.2055C35.6053 57.2897 35.6381 57.3953 35.6552 57.4995C35.6765 57.6322 35.6822 57.7721 35.6822 57.9062V60.2712L35.6837 60.2698Z" fill="#E3A500"/>
<path fill-rule="evenodd" clip-rule="evenodd" d="M32.1192 57.5123H31.6719V57.0128H32.1192V56.5118L32.5024 56.0508H32.9383V57.0128H33.7061V57.5123H32.9383V59.3792C32.9383 59.5062 32.9553 59.6932 33.065 59.7774C33.1206 59.8202 33.1932 59.8331 33.263 59.8331C33.3328 59.8331 33.4269 59.8273 33.4981 59.8016C33.5622 59.7788 33.6249 59.7531 33.6847 59.7203L33.7944 59.6603L33.9596 59.9915L33.877 60.0514C33.8371 60.0814 33.7958 60.1099 33.7559 60.1371C33.6989 60.177 33.6348 60.207 33.5693 60.2327C33.491 60.2641 33.4069 60.2869 33.3243 60.3026C33.2203 60.3226 33.112 60.3297 33.0052 60.3297C32.7659 60.3297 32.5465 60.2641 32.3699 60.0999C32.1705 59.9158 32.1163 59.6375 32.1163 59.3763V57.5095L32.1192 57.5123Z" fill="#E3A500"/>
<path fill-rule="evenodd" clip-rule="evenodd" d="M31.1094 59.3809C31.1094 59.5265 31.0795 59.6692 31.0083 59.7977C30.9413 59.9176 30.8502 60.016 30.739 60.0974C30.6208 60.183 30.4841 60.2401 30.343 60.2758C30.1878 60.3158 30.0282 60.3343 29.8687 60.3343C29.7091 60.3343 29.4157 60.3215 29.2077 60.263C29.0581 60.2201 28.9029 60.1559 28.7903 60.0432C28.6935 59.9461 28.6322 59.8319 28.6165 59.6963C28.5994 59.5607 28.5952 59.4209 28.5952 59.2853V59.164H28.9456L28.9627 59.2653C28.9898 59.4309 29.0596 59.5764 29.1906 59.6835C29.3402 59.8062 29.5524 59.8362 29.739 59.8362C29.9257 59.8362 30.0824 59.8205 30.2006 59.732C30.2775 59.6749 30.3202 59.6064 30.3202 59.5094C30.3202 59.4123 30.2875 59.3395 30.2163 59.2753C30.108 59.1768 29.9541 59.1012 29.8202 59.0455L29.4356 58.8857C29.2191 58.7957 28.9983 58.6758 28.8302 58.5088C28.6664 58.3447 28.5938 58.1378 28.5938 57.9065C28.5938 57.6753 28.6208 57.6197 28.6863 57.4912C28.7476 57.3713 28.8359 57.2728 28.9428 57.1915C29.0539 57.1073 29.1806 57.0487 29.3145 57.0116C29.4627 56.9703 29.6165 56.9531 29.7704 56.9531C29.9242 56.9531 30.2049 56.9674 30.4057 57.0245C30.5553 57.0673 30.7034 57.133 30.8145 57.2443C30.91 57.3399 30.9741 57.4541 30.9912 57.5897C31.0083 57.7253 31.0097 57.8666 31.0097 58.0022V58.1235H30.6593L30.6422 58.0221C30.6151 57.8566 30.5496 57.7096 30.42 57.6011C30.2775 57.4826 30.0795 57.4512 29.8986 57.4512C29.7177 57.4512 29.6037 57.4684 29.4969 57.5526C29.4214 57.6111 29.3801 57.6825 29.3801 57.7781C29.3801 57.8737 29.4214 57.9351 29.4812 57.9979C29.571 58.0921 29.6992 58.1606 29.8174 58.212L30.202 58.3718C30.4285 58.466 30.6792 58.5888 30.8587 58.7586C31.0339 58.9242 31.1066 59.1426 31.1066 59.3809" fill="#E3A500"/>
<path fill-rule="evenodd" clip-rule="evenodd" d="M27.6446 56.464C27.6446 56.5768 27.6104 56.6824 27.5278 56.7623C27.4466 56.8408 27.3412 56.8722 27.2301 56.8722C27.1189 56.8722 26.9765 56.8123 26.8868 56.7081C26.7956 56.6039 26.75 56.4783 26.75 56.3398C26.75 56.2014 26.7856 56.12 26.8697 56.0415C26.9509 55.9645 27.0563 55.9316 27.1674 55.9316C27.2785 55.9316 27.4209 55.9916 27.5107 56.0958C27.6019 56.2 27.646 56.3256 27.646 56.464" fill="#E3A500"/>
<path fill-rule="evenodd" clip-rule="evenodd" d="M27.6758 60.2698H26.8582V57.9048C26.8582 57.7707 26.8439 57.6137 26.7884 57.4895C26.7471 57.3967 26.6189 57.3853 26.5305 57.3853H26.2812V57.0156H26.9793C27.0818 57.0156 27.1915 57.0228 27.2898 57.0485C27.3867 57.0741 27.4679 57.1255 27.5305 57.204C27.5975 57.2882 27.6303 57.3939 27.6473 57.498C27.6687 57.6308 27.6744 57.7707 27.6744 57.9048V60.2698H27.6758Z" fill="#E3A500"/>
<path fill-rule="evenodd" clip-rule="evenodd" d="M25.6602 60.2705H24.8411V56.688C24.8411 56.5524 24.8269 56.3969 24.7713 56.2727C24.73 56.1799 24.6018 56.1685 24.5135 56.1685H24.2656V55.7988H24.9622C25.0633 55.7988 25.1716 55.806 25.2699 55.8302C25.3682 55.8559 25.4494 55.9087 25.5121 55.9887C25.5776 56.0714 25.6118 56.1756 25.6303 56.2784C25.6517 56.414 25.6574 56.5539 25.6574 56.6894V60.2719L25.6602 60.2705Z" fill="#E3A500"/>
<path fill-rule="evenodd" clip-rule="evenodd" d="M18.0523 57.1456C18.1035 57.1142 18.1577 57.0857 18.2104 57.06C18.3813 56.9787 18.5736 56.9501 18.7617 56.9501C18.9497 56.9501 19.0508 56.9658 19.1919 57.0015C19.34 57.0372 19.4725 57.1085 19.5893 57.207C19.7175 57.3141 19.8072 57.4539 19.8699 57.6081C19.9483 57.8008 19.9711 58.0206 19.9711 58.2261V60.2699H19.152V58.2261C19.152 58.1076 19.1406 57.9749 19.0993 57.8636C19.0694 57.7808 19.0266 57.7023 18.9668 57.6366C18.9155 57.5852 18.8557 57.5439 18.7873 57.5182C18.7175 57.4925 18.6449 57.4796 18.5694 57.4796C18.4939 57.4796 18.3685 57.5067 18.2802 57.5624C18.1976 57.6152 18.1206 57.6766 18.0523 57.7465V60.2685H17.2332V56.6861C17.2332 56.5505 17.2189 56.3949 17.1634 56.2707C17.1221 56.178 16.9939 56.1665 16.9055 56.1665H16.6562V55.7969H17.3543C17.4554 55.7969 17.5637 55.804 17.6619 55.8283C17.7602 55.8554 17.8414 55.9068 17.9041 55.9867C17.9696 56.0695 18.0038 56.1722 18.0223 56.2764V56.2793C18.0437 56.412 18.0494 56.5533 18.0494 56.6875V57.1471L18.0523 57.1456Z" fill="#E3A500"/>
<path fill-rule="evenodd" clip-rule="evenodd" d="M77.735 40.0777C77.735 60.9587 60.8405 77.8847 40.0014 77.8847C19.1624 77.8847 2.26638 60.9587 2.26638 40.0777C2.26638 19.1968 19.1595 2.27079 40 2.27079C60.8405 2.27079 77.7336 19.1982 77.7336 40.0777M80 40.0777C80 17.9436 62.0912 0 40 0C17.9088 0 0 17.9436 0 40.0777C0 62.2118 17.9088 80.1555 40 80.1555C62.0912 80.1555 80 62.2118 80 40.0777Z" fill="#E3A500"/>
<path fill-rule="evenodd" clip-rule="evenodd" d="M6.83333 84.5881V91.9671H4.90456V87.5055H4.88604L3.39886 89.4922L1.94729 87.5055H1.92877V91.9671H0V84.5881H1.83048L3.39886 86.7561L5.00285 84.5881H6.83333ZM7.99573 86.5121H9.65385V86.8275C9.82764 86.6705 10.0142 86.5606 10.2123 86.4978C10.4103 86.435 10.6268 86.3993 10.8618 86.3936V87.9465C10.6339 87.9579 10.4174 88.0079 10.2123 88.0949C10.0085 88.182 9.84615 88.3318 9.72507 88.5417V91.9642H7.9943V86.5092L7.99573 86.5121ZM16.2165 86.5121V91.9671H13.4487C12.6011 91.9671 12.0256 91.7444 11.7222 91.2991C11.4188 90.8538 11.2664 90.32 11.2664 89.7006C11.2664 89.0812 11.2877 89.2681 11.3291 89.0369C11.3718 88.8057 11.4259 88.5716 11.4915 88.3376C11.5641 88.0906 11.6453 87.8466 11.735 87.6054C11.8248 87.3642 11.9188 87.1358 12.0142 86.9188C12.0442 86.8461 12.0741 86.7775 12.104 86.7105C12.1339 86.6448 12.1638 86.5806 12.1937 86.5206L13.9701 86.5121C13.9217 86.6505 13.8689 86.7932 13.812 86.9417C13.755 87.0887 13.6966 87.2443 13.6368 87.407C13.594 87.5212 13.5527 87.6368 13.51 87.7552C13.4672 87.8723 13.4288 87.9922 13.3932 88.112C13.3091 88.3704 13.2379 88.6273 13.1809 88.8799C13.1239 89.1325 13.0954 89.368 13.0954 89.585C13.0954 90.0246 13.2066 90.2872 13.4288 90.3757C13.651 90.4628 13.9402 90.507 14.2949 90.507H14.4843V86.5149H16.2151L16.2165 86.5121ZM18.9658 84.9321V86.5121H19.8761V87.9393H18.9658V90.016C18.9658 90.1488 18.9943 90.2601 19.0513 90.35C19.1083 90.4399 19.2265 90.4913 19.4074 90.5042H20.0926L19.6595 91.9671H18.8746C18.4003 91.9671 18.0071 91.8543 17.698 91.6288C17.3889 91.4033 17.2336 90.9623 17.2336 90.3058V87.9393H16.8462V86.5121H17.2336V85.4459L18.9644 84.9307L18.9658 84.9321ZM22.3006 84.5881V86.5121H23.2564C23.9957 86.5178 24.5043 86.6891 24.7849 87.0273C25.0641 87.3642 25.2037 87.8951 25.2037 88.6173V91.9685H23.4729V88.8442C23.4615 88.5017 23.4217 88.2748 23.3561 88.1663C23.2906 88.0578 23.0769 88.0007 22.7165 87.995H22.302V91.9685H20.5712V84.5895H22.302L22.3006 84.5881ZM30.8191 86.5121V91.9671H28.0513C27.2037 91.9671 26.6282 91.7444 26.3248 91.2991C26.0214 90.8538 25.8689 90.32 25.8689 89.7006C25.8689 89.0812 25.8903 89.2681 25.9316 89.0369C25.9744 88.8057 26.0285 88.5716 26.094 88.3376C26.1667 88.0906 26.2479 87.8466 26.3376 87.6054C26.4274 87.3642 26.5214 87.1358 26.6168 86.9188C26.6467 86.8461 26.6766 86.7775 26.7066 86.7105C26.7365 86.6448 26.7664 86.5806 26.7963 86.5206L28.5727 86.5121C28.5242 86.6505 28.4715 86.7932 28.4145 86.9417C28.3575 87.0887 28.2991 87.2443 28.2393 87.407C28.1966 87.5212 28.1553 87.6368 28.1125 87.7552C28.0698 87.8723 28.0313 87.9922 27.9957 88.112C27.9117 88.3704 27.8405 88.6273 27.7835 88.8799C27.7265 89.1325 27.698 89.368 27.698 89.585C27.698 90.0246 27.8091 90.2872 28.0313 90.3757C28.2536 90.4628 28.5427 90.507 28.8974 90.507H29.0869V86.5149H30.8177L30.8191 86.5121ZM31.7479 86.5121H34.4345C35.1738 86.5178 35.6823 86.6891 35.963 87.0273C36.2422 87.3642 36.3818 87.8951 36.3818 88.6173V91.9685H34.651V88.8442C34.6396 88.5017 34.5997 88.2748 34.5342 88.1663C34.4687 88.0578 34.255 88.0007 33.8946 87.995H33.4801V91.9685H31.7493V86.5135L31.7479 86.5121ZM39.2479 86.5121V90.811C39.2479 91.5218 39.1581 92.0927 38.9772 92.5223C38.7963 92.9533 38.5356 93.3573 38.1923 93.7369C38.1567 93.7797 38.1168 93.8226 38.0755 93.8682C38.0328 93.9139 37.9915 93.9567 37.9487 93.9995L36.5969 93.0247C37.0598 92.5494 37.3291 92.0941 37.4031 91.6602C37.4786 91.2264 37.5157 90.8895 37.5157 90.6483V86.5121H39.2464H39.2479ZM39.2479 86.0611H37.5171V84.5895H39.2479V86.0611ZM44.8276 86.5121V91.9671H43.0883C42.2236 91.9671 41.4786 91.636 40.8576 90.9737C40.235 90.3115 39.9245 89.525 39.9245 88.6159C39.9245 87.7067 40.084 87.5968 40.4017 87.1658C40.7208 86.7347 41.3148 86.5206 42.1866 86.5206L44.8276 86.5121ZM43.0969 90.4956V87.985H42.5385C42.49 87.9907 42.4345 87.995 42.3718 87.9979C42.3091 88.0007 42.2464 88.0079 42.1866 88.0207C42.0598 88.0507 41.9459 88.1178 41.8447 88.2177C41.7422 88.3204 41.6909 88.4946 41.6909 88.74V88.83C41.7094 89.2196 41.8462 89.5807 42.1011 89.9133C42.3561 90.2472 42.688 90.4399 43.0969 90.4942M50.6325 86.5121L48.037 93.8454H46.1795L47.0271 91.4975L45.0798 86.5121H47.1353L47.9202 89.0954H47.9387L48.7236 86.5121H50.6339H50.6325ZM55.4644 86.5121V91.9671H53.7251C52.8604 91.9671 52.1154 91.636 51.4943 90.9737C50.8718 90.3115 50.5613 89.525 50.5613 88.6159C50.5613 87.7067 50.7208 87.5968 51.0385 87.1658C51.3576 86.7347 51.9516 86.5206 52.8234 86.5206L55.4644 86.5121ZM53.7336 90.4956V87.985H53.1752C53.1268 87.9907 53.0712 87.995 53.0085 87.9979C52.9459 88.0007 52.8832 88.0079 52.8234 88.0207C52.6966 88.0507 52.5826 88.1178 52.4815 88.2177C52.3789 88.3204 52.3276 88.4946 52.3276 88.74V88.83C52.3462 89.2196 52.4829 89.5807 52.7379 89.9133C52.9929 90.2472 53.3248 90.4399 53.7336 90.4942M65.3618 86.4764V91.9671H63.4331V89.6278H61.3234C61.3291 90.0489 61.4017 90.4571 61.5399 90.851C61.6781 91.2449 61.8519 91.6174 62.0627 91.9657L60.4943 93.0047C60.1396 92.4695 59.8604 91.8872 59.6567 91.2606C59.453 90.634 59.3504 89.9946 59.3504 89.3438C59.3504 88.6929 59.3519 89.1982 59.3547 89.1226C59.3576 89.0469 59.3618 88.9741 59.3675 88.8999C59.4103 88.3276 59.5356 87.7709 59.7464 87.2271C59.9573 86.6848 60.2664 86.2081 60.6752 85.7984C61.1923 85.2803 61.7507 84.9478 62.3519 84.8036C62.953 84.6595 63.5983 84.5867 64.2906 84.5867L65.2365 84.5781L65.6866 86.2495H64.1724C63.4459 86.2552 62.9074 86.3708 62.5584 86.5977C62.2094 86.8232 61.9544 87.0716 61.792 87.3427C61.7322 87.4512 61.6795 87.5611 61.6339 87.6725C61.5883 87.7838 61.5484 87.8851 61.5128 87.975H63.4331V86.4764H65.3618ZM71.2749 86.5121L68.6795 93.8454H66.8219L67.6695 91.4975L65.7222 86.5121H67.7778L68.5627 89.0954H68.5812L69.3661 86.5121H71.2778H71.2749ZM76.1595 86.5121V91.9671H73.3917C72.5442 91.9671 71.9687 91.7444 71.6652 91.2991C71.3618 90.8538 71.2094 90.32 71.2094 89.7006C71.2094 89.0812 71.2308 89.2681 71.2721 89.0369C71.3148 88.8057 71.3689 88.5716 71.4345 88.3376C71.5071 88.0906 71.5883 87.8466 71.6781 87.6054C71.7678 87.3642 71.8618 87.1358 71.9573 86.9188C71.9872 86.8461 72.0171 86.7775 72.047 86.7105C72.0769 86.6448 72.1068 86.5806 72.1368 86.5206L73.9131 86.5121C73.8647 86.6505 73.812 86.7932 73.755 86.9417C73.698 87.0901 73.6396 87.2443 73.5798 87.407C73.537 87.5212 73.4957 87.6368 73.453 87.7552C73.4103 87.8723 73.3718 87.9922 73.3362 88.112C73.2521 88.3704 73.1809 88.6273 73.1239 88.8799C73.0669 89.1325 73.0385 89.368 73.0385 89.585C73.0385 90.0246 73.1496 90.2872 73.3718 90.3757C73.594 90.4628 73.8832 90.507 74.2379 90.507H74.4274V86.5149H76.1581L76.1595 86.5121ZM77.1339 86.5121H78.792V86.8275C78.9658 86.6705 79.1524 86.5606 79.3504 86.4978C79.5484 86.435 79.765 86.3993 80 86.3936V87.9465C79.7721 87.9579 79.5556 88.0079 79.3504 88.0949C79.1467 88.182 78.9843 88.3318 78.8633 88.5417V91.9642H77.1325V86.5092L77.1339 86.5121Z" fill="#E3A500"/>
</g>
</g>
<defs>
<clipPath id="clip0_2551_7275">
<rect width="80" height="94" fill="white"/>
</clipPath>
</defs>
</svg>
